<svg width="223" height="220" viewBox="0 0 223 220" fill="none" xmlns="http://www.w3.org/2000/svg">
<g clip-path="url(#clip0_211_792)">
<path d="M7.43862 6.10733L3.97986 10.1018H65.8017V6.10733" stroke="white" stroke-linecap="round" stroke-linejoin="round"/>
<path d="M7.43862 11.8751L3.97986 15.8696H65.8017V11.8751" stroke="white" stroke-linecap="round" stroke-linejoin="round"/>
<path d="M7.43862 17.6476L3.97986 21.6421H65.8017V17.6476" stroke="white" stroke-linecap="round" stroke-linejoin="round"/>
<path d="M7.43862 23.4153L3.97986 27.4098H65.8017V23.4153" stroke="white" stroke-linecap="round" stroke-linejoin="round"/>
<path d="M7.43862 29.183L3.97986 33.1776H65.8017V29.183" stroke="white" stroke-linecap="round" stroke-linejoin="round"/>
<path d="M7.43862 34.9555L3.97986 38.95H65.8017V34.9555" stroke="white" stroke-linecap="round" stroke-linejoin="round"/>
<path d="M7.43862 40.7233L3.97986 44.7178H65.8017V40.7233" stroke="white" stroke-linecap="round" stroke-linejoin="round"/>
<path d="M7.43862 46.4958L3.97986 50.4903H65.8017V46.4958" stroke="white" stroke-linecap="round" stroke-linejoin="round"/>
<path d="M7.43862 52.2635L3.97986 56.258H65.8017V52.2635" stroke="white" stroke-linecap="round" stroke-linejoin="round"/>
<path d="M7.43862 58.036L3.97986 62.0305H65.8017V58.036" stroke="white" stroke-linecap="round" stroke-linejoin="round"/>
<path d="M7.43862 63.8037L3.97986 67.7983H65.8017V63.8037" stroke="white" stroke-linecap="round" stroke-linejoin="round"/>
<path d="M7.43862 69.5715L3.97986 73.566H65.8017V69.5715" stroke="white" stroke-linecap="round" stroke-linejoin="round"/>
<path d="M7.43862 75.344L3.97986 79.3385H65.8017V75.344" stroke="white" stroke-linecap="round" stroke-linejoin="round"/>
<path d="M7.43862 81.1117L3.97986 85.1062H65.8017V81.1117" stroke="white" stroke-linecap="round" stroke-linejoin="round"/>
<path d="M7.43862 86.8842L3.97986 90.874H65.8017V86.8842" stroke="white" stroke-linecap="round" stroke-linejoin="round"/>
<path d="M7.43862 92.6519L3.97986 96.6465H65.8017V92.6519" stroke="white" stroke-linecap="round" stroke-linejoin="round"/>
<path d="M7.43862 98.4197L3.97986 102.414H65.8017V98.4197" stroke="white" stroke-linecap="round" stroke-linejoin="round"/>
<path d="M68.7441 0.235809H3.88989V6.16391H68.7441V0.235809Z" stroke="white" stroke-linecap="round" stroke-linejoin="round"/>
<path d="M67.28 6.43744V65.0582" stroke="white" stroke-linecap="round" stroke-linejoin="round"/>
<path d="M68.4219 65.2421H66.3087V69.3734H68.4219V65.2421Z" stroke="white" stroke-linecap="round" stroke-linejoin="round"/>
<path d="M27.2011 123.806C27.2085 123.798 27.2125 123.787 27.2125 123.776C27.2125 123.764 27.2085 123.754 27.2011 123.745C27.1904 123.742 27.1787 123.742 27.1683 123.746C27.1579 123.751 27.1494 123.759 27.1443 123.769C25.8175 126.929 24.7696 130.199 24.0124 133.54C23.2382 136.882 22.6529 140.264 22.2594 143.67L22.0177 146.231C21.9798 146.66 21.9324 147.085 21.8993 147.514L21.8329 148.797C21.795 149.655 21.7429 150.509 21.7145 151.367L21.7382 153.937L21.7666 155.225C21.7903 155.654 21.8187 156.083 21.8471 156.508C21.9135 157.366 21.9656 158.219 22.0461 159.073C22.2072 160.776 22.4678 162.473 22.7332 164.162C22.7331 164.167 22.7342 164.172 22.7364 164.177C22.7386 164.182 22.7418 164.187 22.7459 164.19C22.7499 164.194 22.7547 164.196 22.7598 164.198C22.765 164.2 22.7704 164.2 22.7758 164.199C22.7876 164.199 22.799 164.195 22.8077 164.187C22.8165 164.179 22.822 164.169 22.8232 164.157C22.8232 163.299 22.7805 162.445 22.7616 161.596C22.7426 160.747 22.6621 159.894 22.6763 159.04C22.6905 158.186 22.6763 157.338 22.6479 156.489L22.6242 155.211V153.937V151.386L22.6953 148.839L22.7189 147.566C22.7189 147.141 22.7663 146.717 22.79 146.293L22.9464 143.746C23.2402 140.354 23.7243 136.982 24.3962 133.644C25.0442 130.29 25.9826 126.999 27.2011 123.806Z" fill="#263238"/>
<path d="M27.5801 137.139C27.5823 137.127 27.5807 137.116 27.5756 137.106C27.5704 137.095 27.562 137.087 27.5517 137.082C27.5461 137.08 27.5401 137.079 27.5341 137.079C27.5281 137.079 27.5223 137.081 27.5169 137.084C27.5115 137.086 27.5068 137.09 27.503 137.095C27.4992 137.099 27.4964 137.105 27.4948 137.11C26.0295 141.361 25.0567 145.765 24.5952 150.235C24.3677 152.466 24.1213 154.701 24.0834 156.941C24.0291 159.186 24.1097 161.432 24.3251 163.667C24.3259 163.677 24.3301 163.686 24.3369 163.694C24.3437 163.702 24.3529 163.707 24.363 163.709C24.3692 163.71 24.3755 163.709 24.3815 163.707C24.3875 163.705 24.3931 163.703 24.3979 163.699C24.4028 163.695 24.4068 163.69 24.4097 163.684C24.4127 163.679 24.4145 163.673 24.4151 163.667C24.6757 161.436 24.8321 159.205 24.9884 156.979C25.1448 154.753 25.1685 152.522 25.3153 150.296C25.4519 148.075 25.7144 145.863 26.1018 143.67C26.4736 141.468 26.9671 139.287 27.5801 137.139Z" fill="#263238"/>
<path d="M34.9952 141.826C34.9864 141.818 34.9744 141.813 34.962 141.813C34.9496 141.813 34.9377 141.818 34.9289 141.826C33.0674 143.007 31.3897 144.453 29.9492 146.118C29.2264 146.958 28.5765 147.857 28.0066 148.806L27.6086 149.556L27.2959 150.334C27.1909 150.592 27.0992 150.855 27.0211 151.122C26.9405 151.386 26.8553 151.655 26.7795 151.919C26.2132 154.05 25.8703 156.235 25.756 158.436C25.6437 160.628 25.7261 162.824 26.0024 165.001C26.0032 165.011 26.0074 165.021 26.0142 165.029C26.0211 165.036 26.0302 165.042 26.0403 165.044C26.0526 165.044 26.0646 165.04 26.0742 165.032C26.0837 165.024 26.0902 165.013 26.0924 165.001L26.6563 158.502C26.8126 156.352 27.0894 154.213 27.4854 152.093C27.5423 151.834 27.6181 151.575 27.6844 151.32C27.7452 151.059 27.8211 150.803 27.9118 150.551L28.1961 149.801L28.5373 149.094C29.0521 148.148 29.6481 147.249 30.3188 146.406C31.6408 144.681 33.21 143.159 34.9763 141.888C34.9859 141.881 34.993 141.871 34.9964 141.86C34.9998 141.849 34.9994 141.837 34.9952 141.826Z" fill="#263238"/>
<path d="M31.399 150.174C30.4352 150.876 29.6605 151.804 29.1437 152.876C28.5986 153.926 28.1743 155.033 27.8787 156.177C27.79 156.46 27.7157 156.746 27.656 157.036L27.4523 157.899C27.3441 158.479 27.2713 159.065 27.2343 159.653C27.2343 160.243 27.2059 160.832 27.2343 161.417C27.276 162.006 27.3536 162.592 27.4665 163.171C27.4688 163.18 27.4735 163.189 27.4802 163.195C27.4869 163.202 27.4952 163.207 27.5044 163.209C27.5103 163.21 27.5165 163.211 27.5225 163.209C27.5285 163.208 27.5342 163.206 27.5391 163.202C27.544 163.198 27.5482 163.194 27.5512 163.189C27.5542 163.183 27.556 163.177 27.5565 163.171C27.6928 162.602 27.7972 162.026 27.8692 161.445C27.9592 160.875 28.0493 160.304 28.1203 159.738C28.1914 159.172 28.2767 158.606 28.3241 158.036C28.3714 157.465 28.4425 156.894 28.5704 156.338C28.7618 155.213 29.0797 154.114 29.518 153.06C29.9144 151.98 30.5642 151.01 31.4133 150.23C31.4173 150.227 31.4205 150.223 31.4227 150.218C31.425 150.213 31.4261 150.208 31.4261 150.202C31.4261 150.197 31.425 150.192 31.4227 150.187C31.4205 150.182 31.4173 150.177 31.4133 150.174C31.4085 150.173 31.4038 150.173 31.399 150.174Z" fill="#263238"/>
<path d="M20.9896 156.682C20.7432 153.801 20.2647 150.943 19.8145 148.089C19.3644 145.236 18.8669 142.388 18.3363 139.544C17.8056 136.7 17.2276 133.885 16.6116 131.055C16.6085 131.045 16.6025 131.037 16.5944 131.031C16.5863 131.026 16.5766 131.022 16.5666 131.022C16.5566 131.022 16.5469 131.026 16.5388 131.031C16.5308 131.037 16.5247 131.045 16.5216 131.055C17.0191 133.885 17.4692 136.752 17.8909 139.605C18.3126 142.458 18.7343 145.316 19.0991 148.174C19.4639 151.032 19.7293 153.909 20.0893 156.762L21.1507 165.364C21.1507 165.376 21.1552 165.386 21.1632 165.394C21.1712 165.402 21.182 165.407 21.1933 165.407C21.2048 165.406 21.2157 165.401 21.2243 165.394C21.2329 165.386 21.2386 165.376 21.2407 165.364C21.2739 164.638 21.2739 163.916 21.2928 163.19C21.3118 162.464 21.2596 161.742 21.2502 161.021C21.2217 159.568 21.0985 158.13 20.9896 156.682Z" fill="#263238"/>
<path d="M19.2507 156.644C19.0944 155.498 18.8859 154.362 18.6632 153.23L18.2605 151.546C18.1231 150.985 17.9999 150.424 17.8341 149.867C17.2564 147.63 16.5153 145.437 15.6167 143.307L15.2613 142.515L14.8728 141.737C14.6311 141.213 14.3327 140.718 14.0484 140.214C13.4824 139.201 12.7793 138.271 11.9589 137.45C11.9549 137.446 11.9501 137.442 11.9448 137.44C11.9396 137.438 11.9339 137.437 11.9281 137.437C11.9223 137.437 11.9166 137.438 11.9114 137.44C11.9061 137.442 11.9013 137.446 11.8973 137.45C11.8931 137.454 11.8898 137.459 11.8876 137.464C11.8853 137.469 11.8842 137.475 11.8842 137.481C11.8842 137.486 11.8853 137.492 11.8876 137.497C11.8898 137.502 11.8931 137.507 11.8973 137.511C12.6554 138.364 13.293 139.316 13.7925 140.341C14.0484 140.85 14.3137 141.355 14.5269 141.888L14.8681 142.671L15.1713 143.472C15.9729 145.611 16.6173 147.805 17.0997 150.037C17.365 151.145 17.5403 152.277 17.7583 153.395L18.0283 155.088C18.1278 155.649 18.2463 156.206 18.3268 156.772C18.5069 157.899 18.7153 159.026 18.9143 160.153C19.1133 161.28 19.2981 162.417 19.535 163.544C19.5372 163.555 19.5432 163.564 19.5518 163.571C19.5605 163.578 19.5713 163.582 19.5824 163.582C19.5937 163.582 19.6046 163.577 19.6125 163.569C19.6205 163.561 19.625 163.55 19.625 163.539C19.625 162.385 19.5982 161.233 19.5445 160.082C19.5255 158.936 19.3692 157.79 19.2507 156.644Z" fill="#263238"/>
<path d="M16.8533 156.79C16.3131 155.277 15.6925 153.796 15.0149 152.343C14.3321 150.893 13.5616 149.485 12.7075 148.127C12.6986 148.121 12.6878 148.117 12.6767 148.117C12.6656 148.117 12.6548 148.121 12.6459 148.127C12.6386 148.136 12.6345 148.146 12.6345 148.158C12.6345 148.169 12.6386 148.18 12.6459 148.188C13.3894 149.597 14.0475 151.049 14.6169 152.537C15.2044 154.008 15.7351 155.508 16.1757 157.026C16.6164 158.545 16.9575 160.096 17.3602 161.624C17.763 163.152 18.1325 164.69 18.6063 166.232C18.6092 166.241 18.6149 166.249 18.6225 166.255C18.6301 166.261 18.6393 166.265 18.649 166.265C18.6608 166.265 18.6722 166.261 18.6809 166.253C18.6897 166.245 18.6952 166.234 18.6964 166.223C18.7149 164.611 18.5641 163.002 18.2463 161.422C17.9064 159.844 17.4406 158.295 16.8533 156.79Z" fill="#263238"/>
<path d="M16.7538 161.832C16.4577 160.887 16.0269 159.99 15.4745 159.167C14.9616 158.324 14.3369 157.553 13.6172 156.875C13.2442 156.544 12.8432 156.246 12.4185 155.984C12.0046 155.717 11.5526 155.513 11.0776 155.38C11.067 155.378 11.056 155.38 11.0466 155.385C11.0371 155.391 11.0297 155.399 11.0255 155.409C11.0185 155.416 11.0146 155.427 11.0146 155.437C11.0146 155.447 11.0185 155.457 11.0255 155.465C11.8817 155.872 12.6397 156.457 13.2476 157.182C13.8676 157.887 14.3888 158.672 14.797 159.516C15.2376 160.346 15.465 161.261 15.8488 162.115C16.0147 162.554 16.1852 162.992 16.3795 163.431C16.5448 163.886 16.7395 164.33 16.9623 164.761C16.9661 164.767 16.9716 164.773 16.9782 164.777C16.9849 164.781 16.9924 164.784 17.0002 164.784C17.0125 164.784 17.0245 164.78 17.034 164.773C17.0436 164.765 17.05 164.754 17.0523 164.742C17.0666 164.249 17.0476 163.756 16.9954 163.266C16.9717 162.789 16.8675 162.308 16.7538 161.832Z" fill="#263238"/>
<path d="M16.9291 135.181C15.482 134.78 14.1728 133.992 13.1431 132.903C12.1134 131.814 11.4025 130.465 11.0871 129.003C9.98787 123.91 13.5224 126.094 10.3574 118.09C7.19243 110.087 7.92208 108.276 9.01657 105.97C10.1111 103.664 10.7223 104.395 11.6936 107.427C12.6649 110.46 16.2089 115.185 17.5403 124.033C18.8717 132.88 16.9291 135.181 16.9291 135.181Z" fill="white"/>
<path d="M26.3103 126.579C26.3103 126.579 23.1406 125.485 23.0221 119.548C22.9037 113.61 25.3343 114.832 25.6991 107.427C26.0639 100.023 26.552 94.8213 27.8928 94.694C29.2337 94.5666 32.7635 98.3301 33.9812 106.574C35.1989 114.817 32.3987 120.25 29.9634 122.693C27.528 125.136 26.3103 126.579 26.3103 126.579Z" fill="white"/>
<path d="M15.2281 142.336C15.2281 142.336 14.4937 137.973 13.0343 135.912C11.575 133.852 8.40528 132.031 6.33476 128.032C4.26424 124.033 1.95208 122.094 2.07053 127.791C2.18898 133.488 4.74752 136.393 7.91727 138.337C11.087 140.28 15.2281 142.336 15.2281 142.336Z" fill="white"/>
<path d="M13.8872 149.848C13.8872 149.848 10.9639 144.274 6.70437 140.152C2.44488 136.03 -0.971242 133.969 0.246433 136.03C1.46411 138.091 2.92816 137.973 4.98447 141.609C7.04077 145.246 6.44378 147.91 9.36715 149.971C12.2905 152.032 13.8872 149.848 13.8872 149.848Z" fill="white"/>
<path d="M13.5224 157.003C13.3992 156.64 13.276 153.97 9.13973 151.815C5.00342 149.66 1.08507 150.48 1.5873 151.57C2.08953 152.659 4.63386 154.48 7.18766 155.569C9.74146 156.658 13.5224 157.003 13.5224 157.003Z" fill="white"/>
<path d="M26.064 142.576C26.064 142.576 24.2635 140.275 25.2111 135.427C26.1587 130.579 28.3761 131.791 30.8162 129.244C33.2563 126.697 32.7635 126.334 35.1989 123.669C37.6342 121.005 39.8232 119.548 40.7992 120.637C41.7753 121.726 40.3254 125.122 38.8519 127.06C37.3784 128.999 35.0615 129.97 33.9812 132.394C32.9009 134.818 33.37 138.7 30.5698 140.515C27.7696 142.331 26.064 142.576 26.064 142.576Z" fill="white"/>
<path d="M32.1523 143.911C32.1523 143.911 36.5398 138.954 39.7048 135.304C42.8698 131.654 44.0875 128.881 44.2106 131.305C44.3338 133.729 45.3051 135.667 42.7466 138.818C40.1881 141.968 32.1523 143.911 32.1523 143.911Z" fill="white"/>
<path d="M29.8402 151.909C29.8402 151.909 29.717 149.971 36.6583 145.486C43.5995 141.001 46.5229 140.152 45.7932 141.973C45.0635 143.793 42.0028 145.609 38.7288 148.882C35.4548 152.155 29.8402 151.909 29.8402 151.909Z" fill="white"/>
<path d="M17.2228 134.667C17.2228 134.667 15.5929 125.971 13.9061 119.788C12.2194 113.605 11.106 109.851 11.106 109.851" stroke="#263238" stroke-linecap="round" stroke-linejoin="round"/>
<path d="M26.0261 126.693C26.0261 126.693 29.0016 117.26 29.9492 111.545C30.8968 105.829 29.826 101.608 29.338 99.0611" stroke="#263238" stroke-linecap="round" stroke-linejoin="round"/>
<path d="M14.8443 142.152C13.5322 139.909 12.0312 137.78 10.3574 135.79C7.67565 132.64 5.61934 130.942 4.38745 127.909" stroke="#263238" stroke-linecap="round" stroke-linejoin="round"/>
<path d="M26.064 142.576C26.064 142.576 27.04 136.757 29.3522 133.729C31.6643 130.701 36.2934 125.971 38.1223 122.92" stroke="#263238" stroke-linecap="round" stroke-linejoin="round"/>
<path d="M13.2333 156.875C13.2333 156.875 9.13968 154.22 6.21631 152.763" stroke="#263238" stroke-linecap="round" stroke-linejoin="round"/>
<path d="M36.7008 181.3C36.426 173.948 28.215 169.038 28.215 169.038H15.6308C15.6308 169.038 7.41977 173.943 7.14496 181.3C6.87016 188.657 16.4505 215.623 16.4505 215.623H27.3953C27.3953 215.623 36.9709 188.657 36.7008 181.3Z" fill="#263238" stroke="#263238" stroke-linecap="round" stroke-linejoin="round"/>
<path d="M29.8355 161.808H13.7783L15.6309 169.043H27.9829L29.8355 161.808Z" fill="#263238" stroke="#263238" stroke-linecap="round" stroke-linejoin="round"/>
<path d="M222.56 215.623H2.38794" stroke="#263238" stroke-linecap="round" stroke-linejoin="round"/>
<path d="M138.062 19.8547V181.908C138.062 184.045 137.209 186.093 135.691 187.604C134.174 189.115 132.115 189.963 129.969 189.963H59.6187C57.4724 189.963 55.414 189.115 53.8964 187.604C52.3787 186.093 51.5261 184.045 51.5261 181.908V19.8499C51.5261 17.7149 52.3782 15.6672 53.895 14.1575C55.4118 12.6478 57.4689 11.7996 59.6139 11.7996H89.8094L89.8379 11.8892C90.596 14.5868 92.3206 16.3365 94.2442 16.3365H95.334C97.2576 16.3365 98.987 14.5821 99.7404 11.8845L99.7735 11.7949H129.969C131.032 11.7949 132.085 12.0034 133.067 12.4085C134.049 12.8136 134.941 13.4073 135.693 14.1558C136.445 14.9043 137.041 15.7928 137.447 16.7707C137.853 17.7485 138.062 18.7965 138.062 19.8547Z" fill="white" stroke="#263238" stroke-miterlimit="10"/>
<path d="M108.079 117.657H82.9819C81.7154 117.657 80.6887 118.679 80.6887 119.939V124.58C80.6887 125.84 81.7154 126.862 82.9819 126.862H108.079C109.346 126.862 110.373 125.84 110.373 124.58V119.939C110.373 118.679 109.346 117.657 108.079 117.657Z" fill="#263238" stroke="#263238" stroke-linecap="round" stroke-linejoin="round"/>
<path d="M51.5261 139.549V181.908C51.5261 184.045 52.3787 186.093 53.8964 187.604C55.414 189.115 57.4724 189.963 59.6187 189.963H129.969C132.115 189.963 134.174 189.115 135.691 187.604C137.209 186.093 138.062 184.045 138.062 181.908V139.549H51.5261Z" fill="#DBDBDB" stroke="#263238" stroke-linecap="round" stroke-linejoin="round"/>
<path d="M77.8838 144.661H56.3115C55.7175 144.661 55.236 145.14 55.236 145.731V151.523C55.236 152.114 55.7175 152.593 56.3115 152.593H77.8838C78.4778 152.593 78.9593 152.114 78.9593 151.523V145.731C78.9593 145.14 78.4778 144.661 77.8838 144.661Z" fill="white"/>
<path d="M104.431 144.661H82.8587C82.2647 144.661 81.7832 145.14 81.7832 145.731V151.523C81.7832 152.114 82.2647 152.593 82.8587 152.593H104.431C105.025 152.593 105.507 152.114 105.507 151.523V145.731C105.507 145.14 105.025 144.661 104.431 144.661Z" fill="white"/>
<path d="M130.983 144.661H109.411C108.817 144.661 108.335 145.14 108.335 145.731V151.523C108.335 152.114 108.817 152.593 109.411 152.593H130.983C131.577 152.593 132.058 152.114 132.058 151.523V145.731C132.058 145.14 131.577 144.661 130.983 144.661Z" fill="white"/>
<path d="M77.8838 154.8H56.3115C55.7175 154.8 55.236 155.28 55.236 155.871V161.662C55.236 162.253 55.7175 162.733 56.3115 162.733H77.8838C78.4778 162.733 78.9593 162.253 78.9593 161.662V155.871C78.9593 155.28 78.4778 154.8 77.8838 154.8Z" fill="white"/>
<path d="M104.431 154.8H82.8587C82.2647 154.8 81.7832 155.28 81.7832 155.871V161.662C81.7832 162.253 82.2647 162.733 82.8587 162.733H104.431C105.025 162.733 105.507 162.253 105.507 161.662V155.871C105.507 155.28 105.025 154.8 104.431 154.8Z" fill="white"/>
<path d="M130.983 154.8H109.411C108.817 154.8 108.335 155.28 108.335 155.871V161.662C108.335 162.253 108.817 162.733 109.411 162.733H130.983C131.577 162.733 132.058 162.253 132.058 161.662V155.871C132.058 155.28 131.577 154.8 130.983 154.8Z" fill="white"/>
<path d="M77.8838 164.935H56.3115C55.7175 164.935 55.236 165.414 55.236 166.006V171.797C55.236 172.388 55.7175 172.868 56.3115 172.868H77.8838C78.4778 172.868 78.9593 172.388 78.9593 171.797V166.006C78.9593 165.414 78.4778 164.935 77.8838 164.935Z" fill="white"/>
<path d="M104.431 164.935H82.8587C82.2647 164.935 81.7832 165.414 81.7832 166.006V171.797C81.7832 172.388 82.2647 172.868 82.8587 172.868H104.431C105.025 172.868 105.507 172.388 105.507 171.797V166.006C105.507 165.414 105.025 164.935 104.431 164.935Z" fill="white"/>
<path d="M130.983 164.935H109.411C108.817 164.935 108.335 165.414 108.335 166.006V171.797C108.335 172.388 108.817 172.868 109.411 172.868H130.983C131.577 172.868 132.058 172.388 132.058 171.797V166.006C132.058 165.414 131.577 164.935 130.983 164.935Z" fill="white"/>
<path d="M104.431 175.075H82.8587C82.2647 175.075 81.7832 175.554 81.7832 176.145V181.937C81.7832 182.528 82.2647 183.007 82.8587 183.007H104.431C105.025 183.007 105.507 182.528 105.507 181.937V176.145C105.507 175.554 105.025 175.075 104.431 175.075Z" fill="white"/>
<path d="M129.192 183.007H114.395L111.202 179.31L114.395 175.075H129.192V183.007Z" fill="white"/>
<path d="M95.7415 48.5001L95.5282 48.3397L95.315 48.5001C95.315 48.5001 84.4175 54.6734 79.49 57.0173C79.49 57.0173 81.859 70.2223 83.5505 76.174C85.242 82.1257 91.8942 85.3279 95.5282 87.4548C99.1671 85.3279 105.796 82.1351 107.506 76.174C109.216 70.2129 111.571 57.0173 111.571 57.0173C106.648 54.6734 95.7415 48.5001 95.7415 48.5001Z" fill="white"/>
<path d="M94.4101 74.0187L87.1799 67.8501C87.0144 67.7092 86.8784 67.5373 86.7796 67.3441C86.6809 67.1508 86.6213 66.9402 86.6044 66.724C86.5702 66.2876 86.7116 65.8554 86.9974 65.5227C87.2833 65.19 87.6903 64.984 88.1288 64.9499C88.5673 64.9159 89.0014 65.0566 89.3357 65.3412L94.0737 69.3876L102.195 60.1959C102.485 59.867 102.895 59.6663 103.334 59.638C103.773 59.6097 104.205 59.7561 104.535 60.045C104.866 60.334 105.067 60.7417 105.096 61.1786C105.124 61.6155 104.977 62.0458 104.687 62.3748L94.4101 74.0187Z" fill="white"/>
<path d="M67.299 94.826H57.4629V104.617H67.299V94.826Z" fill="white" stroke="#263238" stroke-miterlimit="10"/>
<path d="M80.556 94.826H70.7198V104.617H80.556V94.826Z" fill="white" stroke="#263238" stroke-miterlimit="10"/>
<path d="M93.8178 94.826H83.9817V104.617H93.8178V94.826Z" fill="white" stroke="#263238" stroke-miterlimit="10"/>
<path d="M107.08 94.826H97.2434V104.617H107.08V94.826Z" fill="white" stroke="#263238" stroke-miterlimit="10"/>
<path d="M120.337 94.826H110.5V104.617H120.337V94.826Z" fill="white" stroke="#263238" stroke-miterlimit="10"/>
<path d="M133.598 94.826H123.762V104.617H133.598V94.826Z" fill="white" stroke="#263238" stroke-miterlimit="10"/>
<path d="M138.062 27.3909V19.8452C138.059 17.7105 137.205 15.6641 135.688 14.1555C134.171 12.647 132.114 11.7996 129.969 11.7996H99.7783L99.7498 11.8892C98.9965 14.5868 97.2671 16.3365 95.334 16.3365H94.2442C92.3206 16.3365 90.5865 14.5821 89.8379 11.8845L89.8094 11.7949H59.6139C57.4689 11.7949 55.4118 12.643 53.895 14.1528C52.3782 15.6625 51.5261 17.7101 51.5261 19.8452V27.3909H138.062Z" fill="#DBDBDB" stroke="#263238" stroke-linecap="round" stroke-linejoin="round"/>
<path d="M143.562 58.5595V42.3739H142.089V21.6515C142.09 19.974 141.758 18.3127 141.114 16.7627C140.469 15.2127 139.524 13.8043 138.333 12.6179C137.141 11.4315 135.726 10.4903 134.169 9.84824C132.612 9.20614 130.944 8.87565 129.258 8.87565H60.3294C58.6427 8.87379 56.9721 9.20287 55.4132 9.84409C53.8543 10.4853 52.4376 11.4261 51.2443 12.6126C50.0509 13.7991 49.1042 15.2082 48.4582 16.7591C47.8123 18.3101 47.4799 19.9725 47.4799 21.6515V186.313C47.4799 187.991 47.8119 189.652 48.457 191.201C49.1021 192.751 50.0476 194.159 51.2395 195.345C52.4315 196.531 53.8465 197.472 55.4037 198.113C56.9609 198.755 58.6299 199.085 60.3152 199.084H129.258C130.943 199.085 132.612 198.755 134.169 198.113C135.726 197.472 137.141 196.531 138.332 195.345C139.524 194.159 140.469 192.751 141.114 191.201C141.758 189.651 142.09 187.99 142.089 186.313V72.354H143.562V62.7898H142.089V58.5453L143.562 58.5595ZM138.062 177.188C138.062 180.576 136.709 183.825 134.302 186.221C131.895 188.617 128.63 189.963 125.226 189.963H64.3615C60.9573 189.963 57.6926 188.617 55.2855 186.221C52.8784 183.825 51.5261 180.576 51.5261 177.188V24.5707C51.5274 21.1832 52.8802 17.9348 55.2872 15.5399C57.6942 13.145 60.9582 11.7996 64.3615 11.7996H89.8095L89.8379 11.8892C90.596 14.5868 92.3206 16.3365 94.2443 16.3365H95.334C97.2577 16.3365 98.987 14.5821 99.7404 11.8845L99.7735 11.7949H125.217C128.62 11.7949 131.884 13.1403 134.291 15.5352C136.698 17.9301 138.051 21.1785 138.052 24.566L138.062 177.188Z" fill="white" stroke="#263238" stroke-linecap="round" stroke-linejoin="round"/>
<path d="M128.23 10.6347H61.3576C58.0781 10.636 54.9332 11.9323 52.613 14.2391C50.2928 16.5459 48.9868 19.6748 48.9818 22.939V185.007C48.9818 188.274 50.2857 191.407 52.6066 193.717C54.9275 196.027 58.0753 197.325 61.3576 197.325H128.23C131.512 197.325 134.66 196.027 136.981 193.717C139.302 191.407 140.606 188.274 140.606 185.007V22.939C140.601 19.6748 139.295 16.5459 136.975 14.2391C134.655 11.9323 131.51 10.636 128.23 10.6347ZM138.062 177.626C138.06 180.894 136.755 184.027 134.434 186.337C132.112 188.647 128.964 189.944 125.681 189.944H63.9066C60.6239 189.944 57.4756 188.647 55.154 186.337C52.8323 184.027 51.5274 180.894 51.5261 177.626V24.1133C51.5261 22.4958 51.8463 20.8942 52.4683 19.3999C53.0903 17.9057 54.0019 16.548 55.1512 15.4045C56.3005 14.261 57.6648 13.3541 59.1663 12.7356C60.6677 12.117 62.2769 11.799 63.9019 11.7996H89.8095L89.8379 11.8892C90.596 14.5868 92.3206 16.3365 94.2443 16.3365H95.334C97.2576 16.3365 98.987 14.5821 99.7404 11.8845L99.7735 11.7949H125.672C127.298 11.793 128.91 12.1104 130.413 12.729C131.917 13.3475 133.283 14.255 134.433 15.3995C135.584 16.5441 136.497 17.9032 137.12 19.3992C137.742 20.8952 138.062 22.4987 138.062 24.118V177.626Z" fill="#263238" stroke="#263238" stroke-linecap="round" stroke-linejoin="round"/>
<path d="M95.732 12.408C95.731 12.1713 95.6597 11.9401 95.5269 11.7438C95.3941 11.5474 95.2058 11.3946 94.9858 11.3046C94.7658 11.2147 94.524 11.1917 94.2908 11.2384C94.0577 11.2852 93.8437 11.3996 93.6759 11.5673C93.5081 11.735 93.3939 11.9485 93.3479 12.1807C93.3018 12.413 93.3259 12.6536 93.4171 12.8722C93.5084 13.0908 93.6626 13.2776 93.8604 13.409C94.0582 13.5404 94.2907 13.6106 94.5285 13.6106C94.687 13.6106 94.8438 13.5794 94.9902 13.5189C95.1365 13.4585 95.2694 13.3698 95.3812 13.2581C95.493 13.1463 95.5815 13.0137 95.6417 12.8678C95.7019 12.722 95.7326 12.5657 95.732 12.408Z" fill="white"/>
<path d="M59.2206 17.0061C59.2206 18.2182 57.8514 18.6568 57.8419 19.5811V19.6377H59.1733V20.048H57.4012V19.7037C57.4012 18.4021 58.7705 18.1521 58.7705 17.0156C58.7705 16.6053 58.6284 16.3836 58.2967 16.3836C57.9651 16.3836 57.8229 16.6194 57.8229 16.9778V17.3316H57.4012V17.0061C57.4012 16.3883 57.6808 15.9828 58.3062 15.9828C58.9316 15.9828 59.2206 16.3883 59.2206 17.0061Z" fill="#263238"/>
<path d="M61.4333 16.9967V17.1005C61.4534 17.271 61.4183 17.4435 61.3331 17.5928C61.2479 17.7421 61.117 17.8604 60.9595 17.9305C61.1183 18.0003 61.2502 18.1192 61.3356 18.2696C61.421 18.42 61.4553 18.5939 61.4333 18.7653V19.0765C61.4333 19.6896 61.1443 20.0905 60.5189 20.0905C59.8935 20.0905 59.6139 19.6896 59.6139 19.0765V18.7983H60.0356V19.1048C60.0356 19.4632 60.1825 19.6849 60.5094 19.6849C60.8364 19.6849 60.9832 19.4727 60.9832 19.0624V18.7511C60.9832 18.355 60.8127 18.1663 60.4715 18.1569H60.2299V17.7513H60.4952C60.5648 17.7523 60.6338 17.738 60.6973 17.7095C60.7607 17.6809 60.8171 17.6388 60.8623 17.5862C60.9075 17.5335 60.9405 17.4715 60.959 17.4047C60.9774 17.3379 60.9809 17.2678 60.969 17.1995V17.0156C60.969 16.6006 60.8221 16.3884 60.4952 16.3884C60.1683 16.3884 60.0214 16.6147 60.0214 16.9779V17.1807H59.5997V16.9967C59.5997 16.3836 59.8888 15.9875 60.5047 15.9875C61.1206 15.9875 61.4333 16.3836 61.4333 16.9967Z" fill="#263238"/>
<path d="M62.3052 17.3033V17.8597H61.8693V17.3033H62.3052ZM62.3052 19.4962V20.0527H61.8693V19.4962H62.3052Z" fill="#263238"/>
<path d="M63.2196 17.6664C63.2774 17.5603 63.364 17.4727 63.4696 17.4134C63.5752 17.3542 63.6955 17.3258 63.8165 17.3316C64.3377 17.3316 64.5699 17.7136 64.5699 18.2748V19.0624C64.5699 19.6754 64.2761 20.0763 63.6555 20.0763C63.0348 20.0763 62.7505 19.6754 62.7505 19.0624V18.7888H63.1722V19.0907C63.1722 19.4491 63.3238 19.6707 63.646 19.6707C63.9682 19.6707 64.1198 19.4491 64.1198 19.0907V18.3219C64.1198 17.9588 63.9682 17.7419 63.646 17.7419C63.586 17.7366 63.5256 17.7438 63.4686 17.763C63.4116 17.7822 63.3592 17.8129 63.3147 17.8532C63.2702 17.8935 63.2345 17.9426 63.21 17.9973C63.1855 18.052 63.1726 18.1111 63.1722 18.171V18.2653H62.7552L62.8642 16.0252H64.4562V16.4308H63.2669L63.2196 17.6664Z" fill="#263238"/>
<path d="M66.8157 16.992V17.0675H66.394V16.9637C66.394 16.6006 66.2471 16.3884 65.9202 16.3884C65.5933 16.3884 65.4464 16.61 65.4464 17.0392V17.9399C65.4949 17.8082 65.5846 17.6954 65.7023 17.6181C65.82 17.5409 65.9595 17.5032 66.1002 17.5108C66.6214 17.5108 66.8536 17.8833 66.8536 18.454V19.0671C66.8536 19.6802 66.5456 20.081 65.906 20.081C65.2663 20.081 64.9584 19.6802 64.9584 19.0671V17.0203C64.9584 16.3836 65.2474 15.9875 65.906 15.9875C66.5646 15.9875 66.8157 16.3789 66.8157 16.992ZM65.4227 18.5012V19.1048C65.4227 19.4632 65.5743 19.6849 65.8965 19.6849C66.2187 19.6849 66.3703 19.4632 66.3703 19.1048V18.5012C66.3703 18.138 66.214 17.9211 65.8965 17.9211C65.5791 17.9211 65.4227 18.138 65.4227 18.5012Z" fill="#263238"/>
<path d="M110.96 17.1712H109.818V20.0103H110.96V17.1712Z" fill="#263238"/>
<path d="M112.481 16.6006H111.339V20.0103H112.481V16.6006Z" fill="#263238"/>
<path d="M114.007 16.195H112.865V20.0103H114.007V16.195Z" fill="#263238"/>
<path d="M115.527 15.4923H114.386V20.0103H115.527V15.4923Z" fill="#263238"/>
<path d="M129.652 19.9348H122.815V15.7658H129.661L129.652 19.9348ZM123.184 19.5528H129.273V16.1431H123.184V19.5528Z" fill="#263238"/>
<path d="M127.373 16.5581H123.757V19.1425H127.373V16.5581Z" fill="#263238"/>
<path d="M130.282 17.3599H129.419V18.3408H130.282V17.3599Z" fill="#263238"/>
<path d="M120.294 19.0246C120.248 19.0256 120.202 19.0142 120.161 18.9916C118.768 18.1663 117.844 18.9303 117.792 18.9633C117.744 19.0106 117.68 19.0371 117.612 19.0371C117.545 19.0371 117.48 19.0106 117.432 18.9633C117.389 18.9121 117.367 18.8462 117.372 18.7794C117.376 18.7126 117.406 18.6501 117.456 18.6049C117.503 18.5625 118.683 17.5579 120.408 18.5766C120.437 18.5936 120.462 18.6162 120.482 18.6429C120.502 18.6697 120.517 18.7001 120.525 18.7325C120.534 18.7649 120.536 18.7987 120.531 18.8318C120.526 18.8649 120.515 18.8968 120.498 18.9256C120.474 18.9569 120.443 18.9821 120.408 18.9993C120.372 19.0165 120.333 19.0252 120.294 19.0246Z" fill="#263238"/>
<path d="M120.806 18.171C120.76 18.1724 120.715 18.1592 120.678 18.1333C118.659 16.9401 117.304 18.0956 117.29 18.105C117.242 18.1522 117.177 18.1787 117.11 18.1787C117.043 18.1787 116.978 18.1522 116.93 18.105C116.886 18.053 116.865 17.9863 116.869 17.9187C116.873 17.8512 116.904 17.7878 116.954 17.7419C116.954 17.7419 118.607 16.3271 120.938 17.7419C120.986 17.7709 121.022 17.8144 121.043 17.866C121.063 17.9175 121.066 17.9742 121.051 18.0275C121.036 18.0808 121.004 18.1278 120.959 18.1613C120.915 18.1949 120.861 18.2132 120.806 18.2135V18.171Z" fill="#263238"/>
<path d="M121.275 17.1806C121.229 17.1798 121.185 17.1667 121.147 17.1429C118.593 15.6338 116.883 17.0533 116.826 17.1146C116.802 17.1387 116.774 17.1579 116.742 17.1709C116.711 17.184 116.677 17.1907 116.643 17.1907C116.609 17.1907 116.576 17.184 116.544 17.1709C116.513 17.1579 116.485 17.1387 116.461 17.1146C116.418 17.0634 116.396 16.9975 116.4 16.9307C116.405 16.8639 116.435 16.8014 116.485 16.7562C116.508 16.7562 118.522 15.0207 121.407 16.7279C121.465 16.7631 121.506 16.8192 121.523 16.8843C121.54 16.9494 121.531 17.0184 121.497 17.0769C121.471 17.1108 121.438 17.1379 121.399 17.156C121.36 17.1741 121.318 17.1825 121.275 17.1806Z" fill="#263238"/>
<path d="M119.522 19.4538C119.522 19.5808 119.484 19.705 119.413 19.8106C119.342 19.9162 119.241 19.9984 119.123 20.0468C119.005 20.0952 118.875 20.1076 118.75 20.0825C118.625 20.0573 118.51 19.9958 118.42 19.9056C118.33 19.8154 118.269 19.7007 118.245 19.576C118.22 19.4513 118.234 19.3222 118.283 19.205C118.333 19.0879 118.416 18.9881 118.523 18.9182C118.629 18.8483 118.754 18.8115 118.882 18.8124C118.966 18.8124 119.05 18.829 119.128 18.8613C119.206 18.8936 119.277 18.9409 119.336 19.0005C119.395 19.0602 119.442 19.1309 119.474 19.2087C119.506 19.2865 119.522 19.3698 119.522 19.4538Z" fill="#263238"/>
<path d="M122.469 179.23L124.776 176.933C124.902 176.799 124.97 176.621 124.967 176.438C124.964 176.255 124.889 176.08 124.759 175.95C124.629 175.821 124.453 175.747 124.269 175.743C124.085 175.74 123.906 175.808 123.772 175.933L121.464 178.23L119.157 175.933C119.024 175.8 118.843 175.725 118.654 175.724C118.465 175.724 118.284 175.798 118.15 175.931C118.016 176.063 117.941 176.243 117.94 176.431C117.94 176.619 118.014 176.8 118.148 176.933L120.446 179.23L118.133 181.526C118.001 181.66 117.927 181.839 117.927 182.026C117.927 182.213 118.001 182.393 118.133 182.526C118.267 182.659 118.449 182.733 118.638 182.733C118.827 182.733 119.009 182.659 119.143 182.526L121.45 180.229L123.757 182.526C123.823 182.592 123.901 182.645 123.987 182.681C124.074 182.716 124.166 182.734 124.26 182.734C124.353 182.735 124.446 182.717 124.532 182.681C124.619 182.646 124.697 182.593 124.762 182.526C124.828 182.461 124.881 182.383 124.917 182.297C124.953 182.211 124.972 182.119 124.972 182.026C124.972 181.933 124.953 181.841 124.917 181.755C124.881 181.67 124.828 181.592 124.762 181.526L122.469 179.23Z" fill="#263238"/>
<path d="M65.8539 151.348V146.703L65.6881 146.769L65.4133 146.849L65.1385 146.924C65.08 146.938 65.0229 146.957 64.9679 146.981V146.25L65.2143 146.151L65.5317 146.005C65.6401 145.953 65.7446 145.893 65.8444 145.826C65.9315 145.766 66.0111 145.697 66.0813 145.618H66.8347V151.348H65.8539Z" fill="#263238"/>
<path d="M92.3964 151.348V150.66L93.8178 148.471C93.922 148.311 94.0215 148.16 94.1115 148C94.2065 147.852 94.2828 147.694 94.339 147.528C94.401 147.361 94.4315 147.183 94.429 147.005C94.4361 146.84 94.3967 146.677 94.3153 146.533C94.2759 146.476 94.2225 146.431 94.1602 146.401C94.0979 146.372 94.0289 146.358 93.9599 146.363C93.8951 146.359 93.8301 146.368 93.7689 146.39C93.7078 146.412 93.6519 146.446 93.6046 146.491C93.5161 146.582 93.4553 146.696 93.4293 146.821C93.3966 146.976 93.3808 147.134 93.3819 147.292V147.538H92.4343V147.283C92.4275 146.977 92.4806 146.673 92.5906 146.387C92.6809 146.14 92.8466 145.927 93.0644 145.778C93.3211 145.628 93.6147 145.551 93.9125 145.557C94.115 145.54 94.3188 145.567 94.51 145.635C94.7013 145.704 94.8756 145.812 95.0212 145.953C95.2827 146.26 95.415 146.655 95.3908 147.057C95.3935 147.274 95.3599 147.491 95.2913 147.698C95.2232 147.889 95.1342 148.073 95.026 148.245C94.9186 148.421 94.8001 148.6 94.6706 148.783L93.4908 150.565H95.2392V151.348H92.3964Z" fill="#263238"/>
<path d="M120.123 151.433C119.82 151.446 119.519 151.378 119.252 151.235C119.035 151.1 118.869 150.898 118.778 150.66C118.674 150.384 118.624 150.091 118.631 149.797V149.598H119.579V149.764C119.58 149.922 119.598 150.08 119.631 150.235C119.651 150.346 119.706 150.449 119.787 150.528C119.881 150.598 119.997 150.633 120.114 150.627C120.173 150.631 120.232 150.624 120.288 150.605C120.344 150.586 120.396 150.557 120.441 150.518C120.523 150.432 120.575 150.324 120.592 150.207C120.618 150.051 120.631 149.893 120.63 149.735C120.64 149.498 120.593 149.262 120.493 149.047C120.436 148.958 120.357 148.887 120.262 148.839C120.168 148.792 120.063 148.771 119.958 148.778H119.792V147.962H119.972C120.072 147.971 120.173 147.957 120.266 147.921C120.36 147.885 120.444 147.828 120.512 147.755C120.626 147.557 120.677 147.33 120.659 147.104C120.667 146.909 120.63 146.715 120.55 146.538C120.506 146.468 120.443 146.411 120.369 146.375C120.294 146.339 120.211 146.325 120.128 146.335C120.044 146.326 119.96 146.343 119.886 146.384C119.813 146.424 119.753 146.486 119.716 146.561C119.642 146.747 119.605 146.946 119.607 147.146V147.358H118.659V147.085C118.651 146.799 118.709 146.515 118.83 146.255C118.941 146.031 119.12 145.848 119.342 145.731C119.592 145.604 119.871 145.542 120.152 145.552C120.437 145.542 120.72 145.602 120.976 145.727C121.195 145.841 121.372 146.021 121.483 146.241C121.606 146.497 121.666 146.778 121.659 147.061C121.659 147.366 121.567 147.664 121.393 147.915C121.271 148.121 121.074 148.272 120.844 148.339C120.995 148.387 121.132 148.471 121.242 148.585C121.365 148.719 121.456 148.881 121.507 149.056C121.578 149.275 121.612 149.505 121.606 149.735C121.61 150.043 121.561 150.35 121.46 150.641C121.372 150.891 121.206 151.106 120.986 151.254C120.722 151.395 120.422 151.458 120.123 151.433Z" fill="#263238"/>
<path d="M66.3325 161.507V160.092H64.6125V159.257L66.1098 155.767H67.2564V159.314H67.8534V160.092H67.2658V161.507H66.3325ZM65.437 159.323H66.3325V156.833L65.437 159.323Z" fill="#263238"/>
<path d="M93.9126 161.591C93.6011 161.61 93.2911 161.536 93.0218 161.379C92.8093 161.238 92.6547 161.025 92.5859 160.78C92.4971 160.484 92.4555 160.175 92.4627 159.865H93.4103C93.4072 160.038 93.4199 160.21 93.4482 160.379C93.463 160.508 93.5176 160.628 93.6046 160.724C93.6487 160.768 93.7024 160.801 93.7615 160.822C93.8206 160.842 93.8836 160.849 93.9457 160.842C94.0139 160.848 94.0827 160.837 94.1451 160.809C94.2075 160.781 94.2613 160.737 94.3011 160.681C94.3767 160.545 94.4205 160.393 94.429 160.238C94.429 160.045 94.4574 159.823 94.4574 159.568C94.4609 159.374 94.4482 159.18 94.4195 158.988C94.4049 158.848 94.3525 158.714 94.2679 158.601C94.2227 158.554 94.1673 158.517 94.1058 158.493C94.0443 158.469 93.9783 158.46 93.9126 158.465C93.8494 158.464 93.7867 158.475 93.7281 158.499C93.6695 158.522 93.6163 158.557 93.5714 158.601C93.4758 158.706 93.4075 158.832 93.3724 158.969H92.5243L92.5812 155.777H95.1681V156.654H93.4103L93.3535 158.036C93.4352 157.94 93.5417 157.868 93.6614 157.828C93.8133 157.772 93.9734 157.742 94.1352 157.738C94.3963 157.712 94.6582 157.779 94.8744 157.927C95.0741 158.085 95.2197 158.301 95.2913 158.545C95.3865 158.85 95.4328 159.168 95.4287 159.488C95.4312 159.768 95.4106 160.047 95.3671 160.323C95.3356 160.555 95.26 160.779 95.1444 160.983C95.032 161.17 94.8674 161.321 94.6706 161.417C94.436 161.536 94.1758 161.596 93.9126 161.591Z" fill="#263238"/>
<path d="M120.156 161.591C119.848 161.604 119.543 161.516 119.289 161.342C119.068 161.168 118.903 160.934 118.816 160.667C118.713 160.363 118.662 160.044 118.664 159.724V157.715C118.66 157.374 118.703 157.035 118.792 156.706C118.869 156.424 119.035 156.174 119.266 155.994C119.532 155.805 119.854 155.714 120.18 155.734C120.464 155.722 120.747 155.778 121.005 155.899C121.211 156 121.377 156.166 121.478 156.371C121.584 156.618 121.634 156.885 121.625 157.154C121.625 157.154 121.625 157.182 121.625 157.201C121.628 157.216 121.628 157.232 121.625 157.248H120.678C120.688 157.052 120.657 156.856 120.588 156.673C120.548 156.605 120.489 156.551 120.418 156.518C120.347 156.484 120.267 156.472 120.19 156.484C120.135 156.482 120.08 156.49 120.029 156.51C119.977 156.529 119.931 156.559 119.891 156.597C119.801 156.701 119.743 156.829 119.725 156.965C119.683 157.194 119.664 157.426 119.668 157.658V158.342C119.743 158.229 119.848 158.139 119.972 158.083C120.168 158.005 120.381 157.975 120.592 157.994C120.803 158.014 121.006 158.083 121.185 158.196C121.371 158.347 121.506 158.551 121.573 158.781C121.653 159.06 121.691 159.349 121.687 159.639C121.691 159.978 121.643 160.315 121.545 160.639C121.462 160.914 121.296 161.157 121.071 161.337C120.804 161.524 120.482 161.613 120.156 161.591ZM120.156 160.832C120.215 160.836 120.273 160.827 120.328 160.805C120.382 160.783 120.43 160.748 120.469 160.705C120.549 160.602 120.601 160.48 120.621 160.351C120.651 160.177 120.666 160 120.663 159.823C120.663 159.615 120.663 159.427 120.64 159.266C120.63 159.127 120.584 158.992 120.507 158.875C120.464 158.825 120.409 158.786 120.347 158.761C120.285 158.737 120.218 158.727 120.152 158.734C120.075 158.733 120 158.747 119.929 158.776C119.863 158.806 119.803 158.846 119.749 158.894C119.704 158.936 119.664 158.984 119.631 159.035V159.936C119.631 160.085 119.647 160.234 119.678 160.379C119.703 160.502 119.76 160.616 119.844 160.71C119.885 160.75 119.935 160.782 119.99 160.802C120.044 160.823 120.103 160.831 120.161 160.827L120.156 160.832Z" fill="#263238"/>
<path d="M65.2664 171.665L66.432 166.685H64.8732V165.935H67.3796V166.534L66.2188 171.665H65.2664Z" fill="#263238"/>
<path d="M93.8699 171.74C93.5611 171.756 93.2547 171.68 92.9886 171.523C92.7664 171.377 92.5996 171.162 92.5148 170.91C92.4149 170.617 92.3668 170.31 92.3727 170C92.3701 169.842 92.3844 169.684 92.4153 169.529C92.4438 169.396 92.49 169.267 92.5527 169.147C92.6088 169.037 92.6824 168.936 92.7707 168.849C92.8541 168.762 92.9518 168.688 93.0597 168.633C92.8824 168.509 92.7351 168.348 92.6285 168.161C92.5049 167.919 92.443 167.65 92.4485 167.378C92.4425 167.102 92.4941 166.827 92.6001 166.572C92.6954 166.35 92.8621 166.166 93.0739 166.048C93.3182 165.918 93.5929 165.854 93.8699 165.864C94.147 165.853 94.4219 165.917 94.6659 166.048C94.8766 166.167 95.0429 166.351 95.1397 166.572C95.2485 166.826 95.2987 167.102 95.2866 167.378C95.2939 167.651 95.2337 167.921 95.1113 168.166C95.0102 168.354 94.8656 168.515 94.6896 168.637C94.7989 168.693 94.8982 168.766 94.9833 168.854C95.0701 168.941 95.1421 169.041 95.1965 169.151C95.2593 169.272 95.3055 169.4 95.3339 169.533C95.3666 169.688 95.3824 169.846 95.3813 170.005C95.3919 170.315 95.3437 170.623 95.2392 170.915C95.1528 171.166 94.9863 171.381 94.7654 171.528C94.4946 171.686 94.1829 171.76 93.8699 171.74ZM93.8699 171C93.9354 171.005 94.0012 170.995 94.062 170.971C94.1229 170.946 94.1772 170.908 94.2205 170.859C94.3052 170.756 94.3593 170.632 94.3769 170.5C94.4 170.353 94.4111 170.205 94.41 170.057C94.4165 169.899 94.4054 169.741 94.3769 169.585C94.3535 169.453 94.2982 169.328 94.2158 169.222C94.1727 169.174 94.1192 169.136 94.0592 169.112C93.9993 169.087 93.9346 169.076 93.8699 169.081C93.8066 169.076 93.7433 169.087 93.6849 169.112C93.6265 169.136 93.5746 169.174 93.5335 169.222C93.4496 169.326 93.3926 169.449 93.3677 169.58C93.3382 169.736 93.3239 169.894 93.325 170.052C93.3233 170.202 93.336 170.352 93.3629 170.5C93.3821 170.632 93.4378 170.756 93.524 170.859C93.5654 170.91 93.6181 170.952 93.678 170.98C93.7379 171.009 93.8035 171.024 93.8699 171.024V171ZM93.8699 168.26C93.9227 168.261 93.9751 168.251 94.0234 168.23C94.0717 168.208 94.1147 168.177 94.1494 168.137C94.2269 168.046 94.2777 167.935 94.2963 167.817C94.3267 167.661 94.341 167.503 94.339 167.345C94.3469 167.162 94.3111 166.979 94.2347 166.812C94.2006 166.746 94.1478 166.692 94.0829 166.656C94.0181 166.62 93.944 166.604 93.8699 166.609C93.7959 166.604 93.7221 166.621 93.6573 166.657C93.5926 166.693 93.5397 166.747 93.5051 166.812C93.4195 166.973 93.3786 167.154 93.3866 167.336C93.384 167.494 93.3999 167.652 93.434 167.807C93.4532 167.928 93.5057 168.04 93.5856 168.133C93.6212 168.173 93.665 168.205 93.714 168.227C93.763 168.249 93.8161 168.26 93.8699 168.26Z" fill="#263238"/>
<path d="M93.8699 181.696C93.5776 181.709 93.2878 181.637 93.036 181.489C92.8149 181.346 92.6416 181.141 92.5385 180.899C92.4219 180.626 92.3653 180.332 92.3727 180.036V177.494C92.3659 177.194 92.4207 176.895 92.5338 176.617C92.6255 176.376 92.7913 176.169 93.0076 176.027C93.2684 175.888 93.5598 175.815 93.8557 175.815C94.1516 175.815 94.443 175.888 94.7038 176.027C94.9186 176.171 95.084 176.377 95.1776 176.617C95.2885 176.896 95.3432 177.194 95.3387 177.494V180.036C95.3446 180.333 95.2865 180.627 95.1682 180.899C95.0651 181.141 94.8918 181.346 94.6707 181.489C94.4285 181.631 94.1511 181.703 93.8699 181.696ZM93.8699 180.857C93.9309 180.861 93.9921 180.851 94.0487 180.828C94.1053 180.805 94.156 180.77 94.1969 180.725C94.2704 180.628 94.3192 180.514 94.339 180.394C94.3633 180.272 94.376 180.147 94.3769 180.022V177.508C94.3751 177.377 94.364 177.246 94.3437 177.117C94.3255 176.997 94.2784 176.884 94.2063 176.787C94.1645 176.74 94.1123 176.704 94.0539 176.681C93.9954 176.658 93.9325 176.649 93.8699 176.655C93.8081 176.649 93.7458 176.658 93.6882 176.681C93.6305 176.704 93.5792 176.74 93.5383 176.787C93.4647 176.884 93.4159 176.997 93.3961 177.117C93.3774 177.246 93.3679 177.377 93.3677 177.508V180.022C93.3662 180.147 93.3789 180.272 93.4056 180.394C93.427 180.515 93.4774 180.628 93.5525 180.725C93.5917 180.769 93.6407 180.805 93.6957 180.827C93.7508 180.85 93.8104 180.86 93.8699 180.857Z" fill="#263238"/>
<path d="M120.057 171.74C119.774 171.751 119.493 171.693 119.237 171.571C119.027 171.464 118.86 171.289 118.763 171.075C118.658 170.825 118.608 170.555 118.617 170.283V170.208H119.564C119.554 170.403 119.587 170.597 119.659 170.778C119.701 170.847 119.761 170.901 119.834 170.936C119.906 170.97 119.987 170.982 120.066 170.972C120.121 170.975 120.176 170.967 120.228 170.947C120.279 170.928 120.326 170.897 120.365 170.859C120.45 170.749 120.505 170.619 120.521 170.481C120.559 170.255 120.577 170.026 120.573 169.797V169.109C120.502 169.222 120.398 169.311 120.275 169.364C120.125 169.428 119.964 169.462 119.801 169.463C119.539 169.48 119.279 169.405 119.067 169.25C118.879 169.091 118.744 168.879 118.678 168.642C118.595 168.362 118.555 168.071 118.56 167.779C118.553 167.443 118.602 167.108 118.707 166.789C118.791 166.521 118.957 166.285 119.18 166.114C119.439 165.942 119.746 165.856 120.057 165.869C120.365 165.854 120.669 165.938 120.924 166.109C121.145 166.273 121.311 166.5 121.398 166.76C121.502 167.064 121.553 167.383 121.549 167.703V169.731C121.554 170.074 121.51 170.415 121.417 170.745C121.34 171.029 121.174 171.28 120.943 171.462C120.689 171.653 120.376 171.752 120.057 171.74ZM120.057 168.722C120.171 168.728 120.284 168.693 120.374 168.623C120.449 168.563 120.513 168.491 120.564 168.411V167.52C120.565 167.369 120.551 167.219 120.521 167.072C120.5 166.952 120.448 166.84 120.37 166.746C120.329 166.703 120.28 166.669 120.225 166.647C120.17 166.625 120.111 166.616 120.052 166.619C119.995 166.615 119.937 166.625 119.883 166.647C119.83 166.669 119.782 166.703 119.744 166.746C119.661 166.848 119.607 166.97 119.588 167.1C119.557 167.276 119.543 167.454 119.545 167.633C119.544 167.817 119.554 168.001 119.574 168.185C119.579 168.324 119.623 168.46 119.702 168.576C119.745 168.628 119.8 168.669 119.863 168.695C119.926 168.72 119.994 168.73 120.062 168.722H120.057Z" fill="#263238"/>
<path d="M87.3788 125.014V119.284H89.7952V120.019H88.4306V121.665H89.5062V122.396H88.4306V124.283H89.8094V125.004L87.3788 125.014Z" fill="white"/>
<path d="M90.4207 125.014V119.284H91.155L92.5528 122.552V119.284H93.4388V125.014H92.7423L91.3209 121.59V125.014H90.4207Z" fill="white"/>
<path d="M94.8601 125.014V120.052H93.9457V119.284H96.8169V120.052H95.912V125.014H94.8601Z" fill="white"/>
<path d="M97.3523 125.014V119.284H99.7687V120.019H98.4041V121.665H99.4749V122.396H98.4041V124.283H99.7829V125.004L97.3523 125.014Z" fill="white"/>
<path d="M100.394 125.014V119.284H101.773C102.107 119.274 102.44 119.32 102.758 119.42C103.011 119.502 103.228 119.669 103.37 119.892C103.521 120.169 103.594 120.482 103.578 120.797C103.58 121.007 103.557 121.216 103.512 121.42C103.477 121.591 103.404 121.752 103.299 121.892C103.186 122.029 103.039 122.133 102.872 122.193L103.678 125.023H102.626L101.929 122.396H101.455V125.023L100.394 125.014ZM101.446 121.712H101.773C101.935 121.716 102.097 121.685 102.247 121.623C102.364 121.563 102.455 121.462 102.503 121.34C102.56 121.18 102.588 121.01 102.583 120.84C102.6 120.613 102.544 120.386 102.422 120.194C102.346 120.112 102.251 120.05 102.145 120.012C102.04 119.974 101.927 119.962 101.816 119.977H101.432L101.446 121.712Z" fill="white"/>
<path d="M73.1789 42.4069L72.1744 37.4409H72.9799L73.6385 40.9544L74.2544 37.4409H75.0789L74.0744 42.4069H73.1789Z" fill="#263238"/>
<path d="M75.5906 42.4069V37.4409H77.6848V38.0776H76.505V39.4924H77.4526V40.1243H76.505V41.8033H77.699V42.4258L75.5906 42.4069Z" fill="#263238"/>
<path d="M78.225 42.4069V37.4409H79.4237C79.7128 37.4345 80.001 37.476 80.2765 37.5635C80.4957 37.6326 80.6835 37.7762 80.8072 37.9691C80.9381 38.2087 81.0003 38.4795 80.9873 38.7519C80.9894 38.9343 80.9704 39.1163 80.9304 39.2943C80.899 39.4412 80.836 39.5796 80.7456 39.6999C80.6482 39.8191 80.5206 39.9103 80.376 39.964L81.0725 42.4069H80.1723L79.5658 40.1338H79.1489V42.4069H78.225ZM79.1394 39.5773H79.4237C79.5682 39.5845 79.7125 39.5587 79.8454 39.5018C79.9489 39.4521 80.0288 39.3641 80.0681 39.2566C80.1179 39.1175 80.1405 38.9702 80.1344 38.8227C80.1487 38.6259 80.1006 38.4296 79.997 38.2615C79.93 38.1918 79.8475 38.1389 79.7561 38.1069C79.6648 38.0749 79.5671 38.0649 79.4711 38.0775H79.1394V39.5773Z" fill="#263238"/>
<path d="M81.6931 42.4069V37.4409H82.5933V42.4069H81.6931Z" fill="#263238"/>
<path d="M83.3657 42.4069V37.4409H85.4173V38.0681H84.2754V39.516H85.223V40.1479H84.2754V42.4069H83.3657Z" fill="#263238"/>
<path d="M85.9148 42.4069V37.4409H86.8055V42.4069H85.9148Z" fill="#263238"/>
<path d="M88.9281 42.4776C88.6253 42.4934 88.3248 42.4177 88.0658 42.2607C87.8597 42.12 87.7077 41.9138 87.6346 41.6759C87.5466 41.4001 87.505 41.1117 87.5114 40.8223V39.0491C87.5041 38.7504 87.5457 38.4525 87.6346 38.1672C87.7042 37.93 87.8573 37.7258 88.0658 37.5918C88.3273 37.4421 88.627 37.3716 88.9281 37.389C89.209 37.3745 89.4886 37.4347 89.7383 37.5635C89.9306 37.6766 90.0766 37.8536 90.1505 38.0634C90.2381 38.3035 90.2799 38.5579 90.2737 38.8133V39.233H89.4019V38.8038C89.4097 38.6766 89.4097 38.549 89.4019 38.4218C89.3932 38.3203 89.3516 38.2243 89.2835 38.1483C89.2385 38.1107 89.1863 38.0826 89.1302 38.0656C89.074 38.0485 89.0149 38.043 88.9565 38.0493C88.833 38.0396 88.7105 38.0785 88.6154 38.1577C88.5397 38.237 88.4902 38.3374 88.4733 38.4454C88.4532 38.5797 88.4437 38.7153 88.4448 38.851V41.0109C88.4419 41.1599 88.4562 41.3086 88.4875 41.4543C88.5086 41.5572 88.5636 41.6501 88.6438 41.7184C88.7342 41.784 88.8449 41.8158 88.9565 41.808C89.0149 41.8137 89.0738 41.8071 89.1294 41.7884C89.185 41.7696 89.2359 41.7394 89.2787 41.6995C89.3488 41.6209 89.3905 41.5214 89.3972 41.4165C89.4171 41.2838 89.4266 41.1498 89.4256 41.0157V40.5441H90.2974V40.9449C90.3013 41.2102 90.263 41.4745 90.1837 41.7278C90.1086 41.9456 89.9638 42.1328 89.7715 42.2607C89.5184 42.4152 89.2247 42.4907 88.9281 42.4776Z" fill="#263238"/>
<path d="M90.6575 42.4069L91.6525 37.4409H92.6285L93.6235 42.4069H92.7801L92.5858 41.2609H91.7141L91.5151 42.4069H90.6575ZM91.8088 40.6855H92.4911L92.1499 38.601L91.8088 40.6855Z" fill="#263238"/>
<path d="M94.3863 42.4069V38.1106H93.5903V37.4409H96.0778V38.1106H95.296V42.4069H94.3863Z" fill="#263238"/>
<path d="M96.5612 42.4069V37.4409H97.4614V42.4069H96.5612Z" fill="#263238"/>
<path d="M99.5982 42.4776C99.3039 42.4925 99.0114 42.4239 98.7548 42.2796C98.545 42.1468 98.3864 41.9474 98.3047 41.7136C98.213 41.4386 98.1697 41.1498 98.1768 40.86V38.9736C98.1707 38.6801 98.2172 38.3878 98.3142 38.1106C98.3918 37.8838 98.5436 37.6895 98.7453 37.5588C99.0038 37.4201 99.2955 37.3549 99.5887 37.3701C99.8849 37.3544 100.18 37.4196 100.442 37.5588C100.648 37.6865 100.807 37.8789 100.892 38.1059C100.986 38.3852 101.029 38.6791 101.02 38.9736V40.86C101.025 41.1535 100.978 41.4456 100.882 41.7231C100.797 41.9538 100.639 42.1508 100.432 42.2843C100.177 42.424 99.8887 42.4909 99.5982 42.4776ZM99.5982 41.808C99.7189 41.819 99.8393 41.7836 99.9346 41.7089C100.01 41.6374 100.06 41.5429 100.077 41.4401C100.102 41.3175 100.115 41.1927 100.115 41.0675V38.7802C100.115 38.6535 100.102 38.5271 100.077 38.403C100.058 38.3036 100.009 38.2127 99.9346 38.1436C99.8398 38.0667 99.7203 38.0265 99.5982 38.0304C99.4814 38.0226 99.3657 38.056 99.2712 38.1247C99.1954 38.1931 99.1439 38.2841 99.1244 38.3841C99.0963 38.5078 99.0836 38.6346 99.0865 38.7614V41.0487C99.0849 41.1737 99.096 41.2985 99.1196 41.4212C99.1372 41.5246 99.1889 41.6192 99.2665 41.6901C99.3585 41.7686 99.4771 41.8091 99.5982 41.8032V41.808Z" fill="#263238"/>
<path d="M101.702 42.4069V37.4409H102.337L103.55 40.2705V37.4409H104.298V42.4069H103.697L102.479 39.4452V42.4116L101.702 42.4069Z" fill="#263238"/>
<path d="M107.895 42.4776C107.593 42.4927 107.294 42.4171 107.037 42.2607C106.831 42.12 106.679 41.9138 106.606 41.6759C106.516 41.4004 106.473 41.1119 106.478 40.8223V39.0491C106.472 38.7501 106.515 38.4522 106.606 38.1671C106.675 37.93 106.828 37.7258 107.037 37.5918C107.297 37.4425 107.595 37.372 107.895 37.389C108.175 37.3733 108.455 37.4336 108.705 37.5635C108.899 37.6757 109.047 37.8529 109.122 38.0634C109.209 38.3035 109.251 38.5578 109.245 38.8133V39.233H108.373V38.8038C108.373 38.6761 108.365 38.5486 108.349 38.4218C108.341 38.3203 108.299 38.2243 108.231 38.1483C108.186 38.1107 108.134 38.0826 108.078 38.0655C108.021 38.0485 107.962 38.043 107.904 38.0492C107.78 38.0396 107.658 38.0785 107.563 38.1577C107.485 38.2357 107.435 38.3367 107.421 38.4454C107.401 38.5796 107.391 38.7153 107.392 38.851V41.0109C107.389 41.1599 107.404 41.3086 107.435 41.4543C107.456 41.5572 107.511 41.6501 107.591 41.7184C107.682 41.784 107.792 41.8158 107.904 41.808C107.962 41.8137 108.021 41.807 108.077 41.7883C108.132 41.7696 108.183 41.7393 108.226 41.6995C108.293 41.6192 108.335 41.5206 108.345 41.4165C108.365 41.2838 108.374 41.1498 108.373 41.0157V40.544H109.245V40.9449C109.25 41.2107 109.21 41.4753 109.126 41.7278C109.055 41.9461 108.911 42.1338 108.719 42.2607C108.471 42.4113 108.185 42.4867 107.895 42.4776Z" fill="#263238"/>
<path d="M111.235 42.4776C110.941 42.492 110.648 42.4234 110.391 42.2796C110.182 42.1468 110.023 41.9473 109.941 41.7136C109.846 41.4343 109.802 41.1406 109.809 40.8459V38.9736C109.801 38.6804 109.846 38.3882 109.941 38.1106C110.025 37.8827 110.183 37.6898 110.391 37.5635C110.657 37.4394 110.946 37.3751 111.24 37.3751C111.533 37.3751 111.822 37.4394 112.088 37.5635C112.296 37.6898 112.454 37.8827 112.538 38.1106C112.637 38.3872 112.684 38.6799 112.675 38.9736V40.86C112.683 41.1537 112.636 41.4462 112.538 41.7231C112.455 41.9549 112.296 42.1524 112.088 42.2843C111.827 42.4274 111.532 42.4945 111.235 42.4776ZM111.235 41.808C111.356 41.819 111.476 41.7836 111.571 41.7089C111.646 41.6355 111.697 41.5421 111.718 41.4401C111.742 41.3173 111.753 41.1925 111.751 41.0675V38.7802C111.753 38.6537 111.742 38.5272 111.718 38.403C111.695 38.3042 111.644 38.2141 111.571 38.1436C111.472 38.0817 111.357 38.0488 111.24 38.0488C111.122 38.0488 111.007 38.0817 110.908 38.1436C110.832 38.212 110.781 38.303 110.761 38.403C110.735 38.5271 110.723 38.6535 110.723 38.7802V41.0675C110.724 41.1924 110.735 41.317 110.756 41.4401C110.774 41.5435 110.826 41.6381 110.903 41.7089C110.998 41.7807 111.116 41.8144 111.235 41.8032V41.808Z" fill="#263238"/>
<path d="M113.339 42.4069V37.4409H114.514C114.838 37.4271 115.161 37.4834 115.461 37.6059C115.675 37.7139 115.843 37.8946 115.935 38.1153C116.038 38.3943 116.087 38.6905 116.077 38.9877V40.8034C116.086 41.1083 116.038 41.4121 115.935 41.6995C115.849 41.9294 115.68 42.1193 115.461 42.2324C115.173 42.3626 114.858 42.4225 114.542 42.4069H113.339ZM114.248 41.7749H114.528C114.686 41.7902 114.844 41.752 114.978 41.6665C115.074 41.5857 115.133 41.4703 115.144 41.3458C115.164 41.1736 115.174 41.0004 115.172 40.827V38.9406C115.175 38.7823 115.16 38.6242 115.129 38.469C115.12 38.4147 115.1 38.3628 115.07 38.3166C115.039 38.2704 115 38.2308 114.954 38.2002C114.817 38.1341 114.665 38.1048 114.514 38.1153H114.248V41.7749Z" fill="#263238"/>
<path d="M116.778 42.4069V37.4409H118.873V38.0776H117.688V39.4924H118.636V40.1243H117.688V41.8033H118.887V42.4258L116.778 42.4069Z" fill="#263238"/>
<path d="M184.314 3.33426V26.5468" stroke="#263238" stroke-linecap="round" stroke-linejoin="round" stroke-dasharray="5 5"/>
<path d="M184.31 66.1712V85.724C184.313 87.262 184.011 88.7855 183.423 90.2074C182.834 91.6294 181.969 92.9219 180.879 94.0112C179.788 95.1004 178.492 95.965 177.065 96.5556C175.639 97.1461 174.109 97.451 172.564 97.4529H147.822" stroke="#263238" stroke-linecap="round" stroke-linejoin="round" stroke-dasharray="5 5"/>
<path d="M148.689 94.4912L143.577 97.4293L148.689 100.372V94.4912Z" fill="#263238"/>
<path d="M210.532 36.9463L168.487 28.3328L162.292 58.2932L204.337 66.9067L210.532 36.9463Z" fill="#263238"/>
<path d="M208.36 34.162L166.315 25.5485L160.12 55.5089L202.165 64.1224L208.36 34.162Z" fill="white" stroke="#263238" stroke-miterlimit="10"/>
<path d="M166.315 25.5422L184.239 44.831L208.36 34.1585" stroke="#263238" stroke-linecap="round" stroke-linejoin="round"/>
<path d="M177.695 194.208C177.695 194.208 169.479 183.285 159.226 175.74C148.973 168.194 140.179 165.081 137.763 165.803C135.347 166.524 133.229 168.845 133.229 168.845L104.578 197.481C104.578 197.481 95.1255 204.909 94.0831 205.559C93.0407 206.21 88.1605 209.238 85.1708 210.172C82.1811 211.105 77.2868 210.959 77.2631 211.865C77.2394 212.77 77.898 213.468 79.3573 214.081C82.0699 215.144 84.9368 215.765 87.8478 215.921C90.0683 215.958 92.2768 216.253 94.429 216.798C95.4476 217.052 98.371 218.387 99.0865 217.269C99.8019 216.152 100.792 209.724 101.039 209.049C101.285 208.375 110.368 201.843 116.726 198.745C123.085 195.646 130.869 190.548 133.11 188.119C135.351 185.691 138.649 181.937 138.649 181.937C138.649 181.937 148.841 191.534 152.351 196.061C155.862 200.589 161.501 206.196 171.725 210.922C181.95 215.647 185.712 211.794 186.413 207.955C187.114 204.116 177.695 194.208 177.695 194.208Z" fill="white" stroke="#263238" stroke-linecap="round" stroke-linejoin="round"/>
<path d="M159.226 175.74C148.969 168.194 140.179 165.081 137.763 165.803C135.347 166.524 133.229 168.845 133.229 168.845L104.914 197.141C105.53 198.853 106.928 201.06 110.126 202.508C112.262 201.137 114.468 199.877 116.736 198.735C123.094 195.632 130.879 190.534 133.12 188.105C135.361 185.676 138.659 181.922 138.659 181.922C138.659 181.922 148.85 191.52 152.361 196.047C155.872 200.575 165.386 213.247 176.288 216.1C196.354 221.358 195.671 211.176 196.354 207.337C197.036 203.498 177.705 194.194 177.705 194.194C177.705 194.194 169.48 183.285 159.226 175.74Z" fill="#263238" stroke="#263238" stroke-linecap="round" stroke-linejoin="round"/>
<path d="M77.2631 211.865C77.2347 212.77 77.898 213.468 79.3573 214.081C82.0699 215.144 84.9368 215.765 87.8479 215.921C90.0683 215.958 92.2768 216.253 94.429 216.798C95.4477 217.052 98.371 218.387 99.0865 217.269C99.7024 216.326 100.508 211.426 100.896 209.648C97.774 209.747 94.2252 208.394 94.2252 208.394C94.2252 208.394 94.4764 207.606 94.0831 205.564C93.036 206.215 88.1606 209.243 85.1709 210.176C82.1812 211.11 77.2868 210.959 77.2631 211.865Z" fill="white" stroke="#263238" stroke-linecap="round" stroke-linejoin="round"/>
<path d="M212.937 152.296C210.222 149.881 204.119 144.1 199.855 136.865C195.591 129.631 196.756 127.32 193.558 121.627C190.36 115.935 185.712 113.139 179.41 114.393C174.298 115.412 171.673 118.468 170.882 119.581C170.697 119.831 170.512 120.052 170.313 120.307C169.394 121.378 166.485 125.348 164.31 134.649C161.69 145.835 161.79 151.329 165.76 153.933C169.731 156.536 172.545 155.38 173.706 156.635C174.867 157.889 175.255 159.431 174.289 159.431C174.019 159.441 173.75 159.394 173.5 159.294C173.249 159.194 173.023 159.043 172.834 158.851C172.834 158.851 175.061 162.228 177.193 161.261C179.325 160.295 181.746 156.828 180.197 152.197C178.648 147.566 174.483 142.845 173.801 141.977C173.118 141.11 171.768 131.078 171.768 131.078C171.768 131.078 171.867 127.702 175.644 128.862C179.42 130.022 184.556 132.14 186.205 135.516C187.854 138.893 193.956 146.509 199.282 148.82C204.607 151.131 206.744 153.258 208.682 158.95C210.62 164.643 210.62 166.468 210.62 166.468C210.62 166.468 214.59 164.638 215.358 160.493C216.125 156.347 215.647 154.706 212.937 152.296ZM166.139 152.485C164.301 150.462 165.462 146.797 165.462 146.797C164.879 151.985 170.887 154.899 170.887 154.899C170.887 154.899 167.982 154.517 166.139 152.485Z" fill="#263238" stroke="#263238" stroke-linecap="round" stroke-linejoin="round"/>
<path d="M178.122 195.076C178.122 195.076 165.258 192.807 162.069 193.944C158.88 195.08 150.57 208.677 149.087 210.261C147.604 211.846 146.012 212.53 144.647 212.53C143.283 212.53 138.384 211.624 135.536 212.19C132.689 212.756 129.159 214.572 129.505 216.27C129.851 217.967 131.438 218.764 136.678 219.571C141.918 220.377 147.495 218.439 148.973 217.642C150.451 216.845 152.162 215.718 152.617 215.491C153.072 215.265 157.17 214.355 159.449 212.883C161.141 211.725 162.739 210.437 164.23 209.03C164.23 209.03 173.91 213.449 177.553 215.378C181.197 217.307 186.892 218.552 190.08 218.552C193.269 218.552 200.215 217.642 201.926 216.85C203.636 216.057 206.82 212.997 206.82 209.488C206.82 205.979 207.199 201.07 206.038 200.857C204.877 200.645 203.859 201.103 202.721 200.99C201.584 200.876 195.316 197.363 193.719 196.679C192.123 195.995 178.122 195.076 178.122 195.076Z" fill="#263238" stroke="#263238" stroke-linecap="round" stroke-linejoin="round"/>
<path d="M158.198 198C159.408 196.579 160.7 195.231 162.069 193.963C163.491 192.826 174.052 194.043 174.052 194.043" stroke="white" stroke-linecap="round" stroke-linejoin="round"/>
<path d="M156.18 200.306C156.18 200.306 156.654 199.735 157.374 198.933" stroke="white" stroke-linecap="round" stroke-linejoin="round"/>
<path d="M148.741 210.639C147.362 211.973 145.898 212.563 144.647 212.563C143.278 212.563 138.384 211.657 135.536 212.223C132.689 212.789 129.159 214.605 129.505 216.303C129.851 218 131.438 218.797 136.678 219.604C141.918 220.41 147.495 218.472 148.973 217.675C150.451 216.878 152.072 215.789 152.579 215.543C151.614 215.059 150.77 214.369 150.106 213.52C149.442 212.672 148.976 211.688 148.741 210.639Z" fill="white" stroke="#263238" stroke-linecap="round" stroke-linejoin="round"/>
<path d="M144.989 214.93C144.439 214.039 145.05 213.044 145.623 212.435C145.303 212.509 144.976 212.547 144.647 212.549C143.278 212.549 138.384 211.643 135.536 212.209C132.689 212.775 129.159 214.591 129.505 216.288C129.851 217.986 131.438 218.783 136.678 219.59C141.918 220.396 147.495 218.458 148.973 217.661C149.201 217.543 149.447 217.411 149.665 217.279C148.225 217.067 145.785 216.213 144.989 214.93Z" fill="white" stroke="#263238" stroke-linecap="round" stroke-linejoin="round"/>
<path d="M180.093 148.245C180.093 148.245 171.176 148.339 170.209 151.716C169.243 155.093 170.11 171.679 170.015 177.183C169.92 182.686 169.92 186.247 170.598 187.601C171.275 188.954 175.246 191.458 175.539 191.553C175.833 191.647 175.44 194.637 175.44 194.637C175.44 194.637 182.32 195.505 186.195 195.604C190.071 195.703 193.558 197.146 197.14 199.943C200.722 202.739 203.053 204.569 203.053 204.569L205.28 202.159C205.28 202.159 206.152 210.356 207.123 214.119C208.094 217.882 211.387 218.071 212.335 218.071C213.283 218.071 216.5 217.977 216.5 217.977C216.5 217.977 213.401 212.285 212.041 208.427C210.681 204.569 209.814 201.291 209.814 201.291C209.814 201.291 210.492 200.23 210.492 197.919C210.492 195.608 210.018 194.255 210.108 191.939C210.198 189.624 214.372 179.498 212.624 168.218C210.876 156.937 211.463 153.749 207.199 151.532C202.935 149.316 193.634 147.962 191.019 147.759C188.403 147.556 180.093 148.245 180.093 148.245Z" fill="white" stroke="#263238" stroke-linecap="round" stroke-linejoin="round"/>
<path d="M173.791 141.977C173.538 141.437 173.362 140.864 173.27 140.275C171.237 136.893 169.399 133.404 168.916 131.743C168.181 129.23 168.745 124.448 169.129 121.934C167.816 124.009 165.864 127.942 164.301 134.667C161.681 145.854 161.78 151.348 165.751 153.951C169.721 156.555 172.535 155.399 173.696 156.654C174.857 157.908 175.246 159.45 174.279 159.45C174.009 159.46 173.741 159.413 173.49 159.313C173.24 159.213 173.013 159.062 172.824 158.87C172.824 158.87 175.051 162.247 177.183 161.28C179.316 160.313 181.737 156.847 180.187 152.216C178.638 147.585 174.459 142.845 173.791 141.977ZM166.139 152.485C164.301 150.462 165.462 146.797 165.462 146.797C164.879 151.985 170.887 154.899 170.887 154.899C170.887 154.899 167.982 154.517 166.139 152.485Z" fill="#263238" stroke="#263238" stroke-linecap="round" stroke-linejoin="round"/>
<path d="M192.407 192.821L195.174 193.217" stroke="#263238" stroke-linecap="round" stroke-linejoin="round"/>
<path d="M176.686 177.989C176.686 177.989 174.739 189.629 175.563 190.1C176.122 190.416 184.779 191.713 190.403 192.529" stroke="#263238" stroke-linecap="round" stroke-linejoin="round"/>
<path d="M176.392 190.685L175.44 194.628" stroke="#263238" stroke-linecap="round" stroke-linejoin="round"/>
<path d="M197.301 198.037C197.301 198.037 203.148 200.037 206.038 200.867C208.928 201.697 209.355 201.395 209.355 201.395" stroke="#263238" stroke-linecap="round" stroke-linejoin="round"/>
<path d="M187.498 156.941L191.867 159.413L191.985 155.767" stroke="#263238" stroke-linecap="round" stroke-linejoin="round"/>
<path d="M181.533 156.475L180.704 157.121" stroke="#263238" stroke-linecap="round" stroke-linejoin="round"/>
<path d="M176.037 164.35L175.98 162.115" stroke="#263238" stroke-linecap="round" stroke-linejoin="round"/>
<path d="M173.985 126.164C173.985 126.164 168.93 130.555 168.93 131.743C168.93 132.932 170.583 138.148 171.228 140.256C172.015 142.502 173.268 144.559 174.904 146.293C176.373 147.849 179.226 149.679 179.87 149.679C180.387 149.623 180.887 149.463 181.339 149.207C181.339 149.207 181.708 156.71 182.992 159.365C184.276 162.021 184.925 161.926 185.2 161.285C185.475 160.644 188.877 149.575 188.877 149.575L190.531 141.704L187.039 132.743C187.039 132.743 182.168 128.442 178.856 127.343C175.544 126.245 173.985 126.164 173.985 126.164Z" fill="white" stroke="#263238" stroke-linecap="round" stroke-linejoin="round"/>
<path d="M176.828 141.991C176.828 141.991 176.828 143.642 177.108 143.732C177.387 143.821 178.576 144.203 178.946 143.26" stroke="#263238" stroke-linecap="round" stroke-linejoin="round"/>
<path d="M177.833 145.557C177.833 145.557 180.59 145.925 181.509 144.001" stroke="#263238" stroke-linecap="round" stroke-linejoin="round"/>
<path d="M181.325 149.221C181.325 149.221 184.357 146.863 186.015 144.647C186.015 144.647 184.177 148.948 183.623 150.046C183.307 150.668 183.032 151.309 182.798 151.966L181.325 149.221Z" fill="#263238" stroke="#263238" stroke-linecap="round" stroke-linejoin="round"/>
<path d="M179.671 137.785C179.671 137.785 182.154 138.516 183.163 136.959" stroke="#263238" stroke-linecap="round" stroke-linejoin="round"/>
<path d="M178.567 135.587C178.567 135.587 181.325 134.031 183.258 134.672" stroke="#263238" stroke-linecap="round" stroke-linejoin="round"/>
<path d="M172.038 138.884C172.465 139.146 172.967 139.261 173.466 139.21C173.966 139.16 174.434 138.947 174.8 138.605" stroke="#263238" stroke-linecap="round" stroke-linejoin="round"/>
<path d="M174.616 136.596C174.616 136.596 173.237 135.677 171.214 136.686" stroke="#263238" stroke-linecap="round" stroke-linejoin="round"/>
<path d="M200.438 159.913C200.438 159.913 199.372 163.577 199.76 166.086C200.149 168.595 199.571 176.683 199.571 177.079C199.571 177.475 197.439 178.428 197.533 179.102C197.655 179.753 197.814 180.397 198.007 181.031L194.904 179.777L190.739 185.276C193.445 187.715 196.437 189.82 199.651 191.543C205.271 194.628 209.127 193.665 209.127 193.665C209.127 193.665 211.354 180.069 211.648 173.99C211.942 167.911 213.292 159.913 211.174 154.225C209.511 149.778 202.172 149.207 200.518 156.828" fill="white"/>
<path d="M200.438 159.913C200.438 159.913 199.372 163.577 199.76 166.086C200.149 168.595 199.571 176.683 199.571 177.079C199.571 177.475 197.439 178.428 197.533 179.102C197.655 179.753 197.814 180.397 198.007 181.031L194.904 179.777L190.739 185.276C193.445 187.715 196.437 189.82 199.651 191.543C205.271 194.628 209.127 193.665 209.127 193.665C209.127 193.665 211.354 180.069 211.648 173.99C211.942 167.911 213.292 159.913 211.174 154.225C209.511 149.778 202.172 149.207 200.518 156.828" stroke="#263238" stroke-linecap="round" stroke-linejoin="round"/>
<path d="M205.598 175.155L206.54 174.763" stroke="#263238" stroke-linecap="round" stroke-linejoin="round"/>
<path d="M200.727 177.173L204.418 175.645" stroke="#263238" stroke-linecap="round" stroke-linejoin="round"/>
<path d="M198.694 181.224C198.694 181.224 206.829 179.201 206.749 179.876C206.668 180.55 203.939 180.819 203.939 180.819" stroke="#263238" stroke-linecap="round" stroke-linejoin="round"/>
<path d="M199.571 181.611C199.571 181.611 205.574 182.286 206.64 184.795" stroke="#263238" stroke-linecap="round" stroke-linejoin="round"/>
<path d="M205.616 187.28C205.962 187.502 206.339 187.672 206.735 187.785" stroke="#263238" stroke-linecap="round" stroke-linejoin="round"/>
<path d="M199.097 182.479C199.097 182.479 202.295 185.101 204.645 186.662" stroke="#263238" stroke-linecap="round" stroke-linejoin="round"/>
<path d="M161.567 164.704C161.567 164.704 159.383 169.349 160.207 170.113C161.032 170.877 165.997 175.636 166.471 175.872C166.945 176.108 168.3 180.225 169.01 181.809C169.721 183.394 170.133 187.101 171.488 187.629C172.844 188.157 175.753 185.398 175.8 183.988C175.847 182.578 175.8 182.045 174.502 180.215C173.204 178.385 170.238 172.514 170.238 172.514L162.14 163.761L161.567 164.704Z" fill="white" stroke="#263238" stroke-linecap="round" stroke-linejoin="round"/>
<path d="M157.791 158.941L166.945 173.754L173.971 174.697L167.12 161.233L157.791 158.941Z" fill="#263238" stroke="#263238" stroke-linecap="round" stroke-linejoin="round"/>
<path d="M194.913 179.777C194.913 179.777 184.452 172.438 181.737 170.618C180.384 169.736 179.09 168.768 177.861 167.722C177.861 167.722 177.572 165.893 176.913 165.119C176.255 164.346 175.558 164.176 174.298 164.251C173.038 164.327 171.972 164.544 171.195 164.251C170.418 163.959 168.968 161.554 168.773 162.615C168.579 163.676 168.679 164.445 169.645 165.218C170.612 165.992 171.972 166.279 172.36 166.468C172.749 166.657 171.744 166.822 171.744 166.822C170.185 167.368 168.519 167.549 166.878 167.35C165.257 167.14 163.671 166.715 162.164 166.086C161.486 165.893 161.581 166.855 162.358 167.435C163.135 168.015 163.614 168.302 163.614 168.302C163.614 168.302 161.193 167.916 161.486 168.689C161.78 169.463 162.841 170.137 163.519 170.618C164.197 171.099 164.874 171.967 165.457 172.254C166.04 172.542 166.134 173.896 167.106 174.476C168.077 175.056 167.788 174.99 170.261 175.216C172.855 175.423 175.461 175.401 178.051 175.15L190.744 185.276L194.913 179.777Z" fill="white" stroke="#263238" stroke-linecap="round" stroke-linejoin="round"/>
<path d="M163.619 168.302C163.619 168.302 166.044 169.458 166.428 169.458H171.664" stroke="#263238" stroke-linecap="round" stroke-linejoin="round"/>
<path d="M163.088 170.406C163.653 170.473 164.206 170.611 164.737 170.816C165.078 171.042 167.295 171.481 167.978 171.594C168.998 171.665 170.021 171.684 171.043 171.651" stroke="#263238" stroke-linecap="round" stroke-linejoin="round"/>
<path d="M165.457 172.254C165.457 172.254 168.162 173.575 168.674 173.669C169.773 173.698 170.873 173.66 171.967 173.556" stroke="#263238" stroke-linecap="round" stroke-linejoin="round"/>
<path d="M197.24 141.977C193.74 138.241 190.534 134.243 187.65 130.017C187.65 130.017 186.584 145.156 188.905 151.617C191.227 158.078 199.76 155.39 202.759 153.739C205.759 152.089 206.829 150.848 208.672 151.136C204.486 148.579 200.644 145.502 197.24 141.977Z" fill="#263238" stroke="#263238" stroke-linecap="round" stroke-linejoin="round"/>
<path d="M175.407 125.396C172.024 121.396 173.985 126.164 173.985 126.164C173.985 126.164 180.462 132.319 187.039 132.767C187.024 132.753 178.799 129.395 175.407 125.396Z" fill="#263238" stroke="#263238" stroke-linecap="round" stroke-linejoin="round"/>
</g>
<defs>
<clipPath id="clip0_211_792">
<rect width="222.797" height="220" fill="white"/>
</clipPath>
</defs>
</svg>
