<svg width="241" height="220" viewBox="0 0 241 220" fill="none" xmlns="http://www.w3.org/2000/svg">
<g clip-path="url(#clip0_211_419)">
<path d="M179.707 57.1567L173.416 83.36C173.416 83.36 175.585 86.3931 176.454 87.2546C177.323 88.1161 179.27 88.1221 179.923 88.1221C180.576 88.1221 205.087 88.5588 205.087 88.5588L209.91 56.5046" stroke="white" stroke-linecap="round" stroke-linejoin="round"/>
<path d="M184.956 52.2092L182.955 52.1733" stroke="white" stroke-linecap="round" stroke-linejoin="round"/>
<path d="M174.716 83.7907L201.175 83.701L206.813 52.604L187.406 52.251" stroke="white" stroke-linecap="round" stroke-linejoin="round"/>
<path d="M176.232 84.0061L178.401 86.3871L203.781 87.0392L208.37 59.2506L206.381 56.5046" stroke="white" stroke-linecap="round" stroke-linejoin="round"/>
<path d="M180.672 85.3821H184.345C184.345 85.3821 183.746 88.2896 183.428 91.0355C183.11 93.7815 182.967 97.3052 182.967 97.3052L180.828 93.3268L178.221 96.695L180.672 85.3821Z" fill="white"/>
<path d="M25.883 91.1253L41.5207 84.8317C41.5207 84.8317 42.2816 82.6301 42.4134 81.8763C42.5453 81.1225 41.8143 80.1294 41.5986 79.8004C41.3829 79.4714 32.7073 66.8483 32.7073 66.8483L14.6191 76.0075" stroke="white" stroke-linecap="round" stroke-linejoin="round"/>
<path d="M21.4553 90.2399L22.1623 91.2748" stroke="white" stroke-linecap="round" stroke-linejoin="round"/>
<path d="M41.2691 84.0121L31.6408 70.5934L13.7444 78.9868L20.5926 88.9776" stroke="white" stroke-linecap="round" stroke-linejoin="round"/>
<path d="M40.8317 83.1626L41.263 81.1943L32.4017 68.0628L16.5723 75.7862L15.8893 77.7963" stroke="white" stroke-linecap="round" stroke-linejoin="round"/>
<path d="M39.927 80.4106L38.5969 78.5441C38.5969 78.5441 40.2985 77.8023 41.8143 76.9587C43.3302 76.1152 45.1755 74.9247 45.1755 74.9247L43.9233 77.4553L46.5775 77.557L39.927 80.4106Z" fill="white"/>
<path d="M25.4996 115.653L24.2654 116.27L35.2237 137.214L53.5755 117.699L75.9775 110.802L64.7735 92.9499L63.7909 93.0277" stroke="white" stroke-linecap="round" stroke-linejoin="round"/>
<path d="M41.8982 97.9513L51.6703 115.558C51.6703 115.558 47.3804 114.607 46.4278 118.657C45.4751 122.707 41.1852 127.936 39.28 130.317C38.1148 131.761 36.8387 133.114 35.4634 134.361L24.9784 114.373C24.9784 114.373 29.9812 110.323 32.3658 104.616C34.7504 98.9085 38.561 97.2394 41.8982 97.9513Z" stroke="white" stroke-linecap="round" stroke-linejoin="round"/>
<path d="M51.6702 115.558C51.6702 115.558 52.8685 111.968 55.7204 111.753C58.5724 111.538 63.8209 112.465 68.3684 111.053C72.9159 109.641 73.6109 109.145 73.6109 109.145L62.6346 91.3107C62.6346 91.3107 60.0103 93.4525 53.3359 93.4525C46.6614 93.4525 42.6112 94.649 41.8982 97.9752L51.6702 115.558Z" stroke="white" stroke-linecap="round" stroke-linejoin="round"/>
<path d="M52.3832 117.466C51.1781 118.025 50.0553 118.745 49.0459 119.608C47.3803 121.032 45.9484 123.652 43.0905 127.218" stroke="white" stroke-linecap="round" stroke-linejoin="round"/>
<path d="M54.2885 116.036C55.3693 114.732 56.8994 113.879 58.5783 113.643C63.5658 113.442 68.4828 112.396 73.1195 110.55" stroke="white" stroke-linecap="round" stroke-linejoin="round"/>
<path d="M28.5552 116.988C30.6 114.64 32.5084 112.177 34.271 109.611C37.6082 104.825 39.9928 102.947 42.6111 102.947" stroke="white" stroke-linecap="round" stroke-linejoin="round"/>
<path d="M30.4604 120.081C32.5075 117.735 34.416 115.272 36.1763 112.704C39.5135 107.948 41.8981 106.04 44.5224 106.04" stroke="white" stroke-linecap="round" stroke-linejoin="round"/>
<path d="M32.3658 123.173C34.414 120.827 36.3245 118.364 38.0877 115.797C41.4249 111.011 43.8035 109.133 46.4278 109.133" stroke="white" stroke-linecap="round" stroke-linejoin="round"/>
<path d="M34.2711 126.266C36.3193 123.92 38.2297 121.457 39.9929 118.89C43.3302 114.134 45.7148 112.231 48.333 112.231" stroke="white" stroke-linecap="round" stroke-linejoin="round"/>
<path d="M45.9484 101.523C45.9484 101.523 46.901 98.9025 50.4779 98.9025C54.0548 98.9025 61.9455 98.5914 62.8682 95.8095" stroke="white" stroke-linecap="round" stroke-linejoin="round"/>
<path d="M48.0933 105.07C48.0933 105.07 49.7649 102.929 54.2884 102.929C58.812 102.929 62.8682 101.978 65.4924 99.3392" stroke="white" stroke-linecap="round" stroke-linejoin="round"/>
<path d="M49.5253 108.66C50.0616 107.687 50.8584 106.883 51.8266 106.336C52.7948 105.79 53.8962 105.524 55.0074 105.567C59.0577 105.567 64.0605 104.855 66.9244 102.713" stroke="white" stroke-linecap="round" stroke-linejoin="round"/>
<path d="M51.1909 111.274C51.1909 111.274 51.9099 108.881 55.9841 108.66C60.4014 108.418 64.7491 107.454 68.8537 105.806" stroke="white" stroke-linecap="round" stroke-linejoin="round"/>
<path d="M155.262 8.71051L154.639 7.9986L142.578 18.9047L158.761 27.7169L167.239 41.4048L177.191 30.8696L176.969 30.2295" stroke="white" stroke-linecap="round" stroke-linejoin="round"/>
<path d="M169.899 16.5296L159.858 26.1016C159.858 26.1016 159.75 23.1104 156.892 23.1522C154.034 23.1941 149.798 21.2737 147.905 20.4242C146.739 19.9027 145.617 19.2885 144.55 18.5876L156.029 8.15414C158.359 9.78234 161.017 10.881 163.818 11.3727C168.03 11.953 169.797 14.2024 169.899 16.5296Z" stroke="white" stroke-linecap="round" stroke-linejoin="round"/>
<path d="M159.858 26.1016C159.858 26.1016 162.446 26.2751 163.099 28.1297C163.752 29.9842 164.028 33.6395 165.759 36.3975C167.491 39.1554 167.94 39.5502 167.94 39.5502L177.934 29.1766C177.934 29.1766 176.053 27.8066 174.896 23.3736C173.74 18.9406 172.242 16.4399 169.899 16.5296L159.858 26.1016Z" stroke="white" stroke-linecap="round" stroke-linejoin="round"/>
<path d="M158.713 26.8853C158.134 26.1827 157.46 25.5628 156.712 25.0427C155.472 24.1812 153.477 23.6847 150.607 22.3984" stroke="white" stroke-linecap="round" stroke-linejoin="round"/>
<path d="M159.995 27.8964C161.05 28.3914 161.881 29.2619 162.326 30.3372C163.323 33.6156 164.871 36.7007 166.904 39.4605" stroke="white" stroke-linecap="round" stroke-linejoin="round"/>
<path d="M154.903 10.9719C156.821 11.9248 158.794 12.7658 160.81 13.4905C164.561 14.8844 166.239 16.1408 166.694 17.8817" stroke="white" stroke-linecap="round" stroke-linejoin="round"/>
<path d="M153.171 12.7726C155.09 13.7263 157.063 14.5692 159.079 15.2972C162.829 16.6852 164.507 17.9415 164.962 19.6824" stroke="white" stroke-linecap="round" stroke-linejoin="round"/>
<path d="M151.44 14.5734C153.358 15.5372 155.331 16.3901 157.347 17.1279C161.098 18.5218 162.781 19.7721 163.231 21.513" stroke="white" stroke-linecap="round" stroke-linejoin="round"/>
<path d="M149.708 16.3801C151.627 17.3397 153.6 18.1886 155.616 18.9226C159.366 20.3165 161.05 21.5729 161.499 23.3138" stroke="white" stroke-linecap="round" stroke-linejoin="round"/>
<path d="M168.222 19.8499C168.222 19.8499 170.133 20.0294 170.75 22.4044C171.367 24.7795 172.949 29.9723 174.944 30.1039" stroke="white" stroke-linecap="round" stroke-linejoin="round"/>
<path d="M166.215 21.9138C166.215 21.9138 167.934 22.6557 168.719 25.6649C169.504 28.6741 170.84 31.1987 173.039 32.4849" stroke="white" stroke-linecap="round" stroke-linejoin="round"/>
<path d="M164.088 23.4633C164.827 23.6518 165.498 24.0422 166.027 24.5906C166.557 25.1391 166.922 25.8239 167.083 26.5682C167.784 29.2604 169.126 32.461 171.05 33.9865" stroke="white" stroke-linecap="round" stroke-linejoin="round"/>
<path d="M162.632 25.0247C162.632 25.0247 164.339 25.0846 165.202 27.7348C166.126 30.6287 167.521 33.3512 169.33 35.7932" stroke="white" stroke-linecap="round" stroke-linejoin="round"/>
<path d="M68.0987 32.3892L58.087 48.0573L60.2499 48.6018L70.2676 33.7413L86.2288 42.9244L88.3977 40.7647L70.8069 31.5756" stroke="white" stroke-linecap="round" stroke-linejoin="round"/>
<path d="M70.2677 33.7412L74.5935 59.6753L87.8526 67.2432L85.9593 44.2764" stroke="white" stroke-linecap="round" stroke-linejoin="round"/>
<path d="M87.8525 67.2432L90.0214 63.193L88.3978 40.7647" stroke="white" stroke-linecap="round" stroke-linejoin="round"/>
<path d="M74.5935 59.6753L65.6662 71.8377L61.0648 50.7614" stroke="white" stroke-linecap="round" stroke-linejoin="round"/>
<path d="M58.087 48.0573L63.2277 71.5685L65.6662 71.8377" stroke="white" stroke-linecap="round" stroke-linejoin="round"/>
<path d="M70.8069 42.6552L63.7729 52.3827" stroke="white" stroke-linecap="round" stroke-linejoin="round"/>
<path d="M71.3461 47.2497L64.3121 56.9772" stroke="white" stroke-linecap="round" stroke-linejoin="round"/>
<path d="M71.8914 51.8442L64.8514 61.5658" stroke="white" stroke-linecap="round" stroke-linejoin="round"/>
<path d="M72.4306 56.4328L65.3966 66.1603" stroke="white" stroke-linecap="round" stroke-linejoin="round"/>
<path d="M73.7847 42.9244L83.2571 48.3266" stroke="white" stroke-linecap="round" stroke-linejoin="round"/>
<path d="M73.7847 47.2497L83.2571 52.6519" stroke="white" stroke-linecap="round" stroke-linejoin="round"/>
<path d="M75.1387 51.8442L84.6052 57.2464" stroke="white" stroke-linecap="round" stroke-linejoin="round"/>
<path d="M75.4083 56.4328L84.8808 61.841" stroke="white" stroke-linecap="round" stroke-linejoin="round"/>
<path d="M205.201 146.152L213.583 129.557L211.372 129.234L202.912 145.027L186.1 137.496L184.165 139.859L202.589 147.235" stroke="white" stroke-linecap="round" stroke-linejoin="round"/>
<path d="M202.912 145.027L195.986 119.656L182.032 113.464L186.232 136.12" stroke="white" stroke-linecap="round" stroke-linejoin="round"/>
<path d="M182.032 113.464L180.282 117.711L184.165 139.859" stroke="white" stroke-linecap="round" stroke-linejoin="round"/>
<path d="M195.986 119.656L203.643 106.662L210.348 127.17" stroke="white" stroke-linecap="round" stroke-linejoin="round"/>
<path d="M213.583 129.557L206.094 106.686L203.643 106.662" stroke="white" stroke-linecap="round" stroke-linejoin="round"/>
<path d="M201.474 136.209L207.49 125.824" stroke="white" stroke-linecap="round" stroke-linejoin="round"/>
<path d="M200.468 131.698L206.489 121.313" stroke="white" stroke-linecap="round" stroke-linejoin="round"/>
<path d="M199.467 127.182L205.489 116.796" stroke="white" stroke-linecap="round" stroke-linejoin="round"/>
<path d="M198.467 122.665L204.488 112.279" stroke="white" stroke-linecap="round" stroke-linejoin="round"/>
<path d="M198.485 136.239L188.515 131.818" stroke="white" stroke-linecap="round" stroke-linejoin="round"/>
<path d="M198.047 131.938L188.077 127.517" stroke="white" stroke-linecap="round" stroke-linejoin="round"/>
<path d="M196.238 127.505L186.268 123.084" stroke="white" stroke-linecap="round" stroke-linejoin="round"/>
<path d="M195.507 122.964L185.537 118.537" stroke="white" stroke-linecap="round" stroke-linejoin="round"/>
<path d="M168.851 154.779C167.173 158.925 165.448 155.593 165.723 138.225C165.849 130.083 166.424 113.452 175.441 117.113C184.099 120.631 172.685 145.231 172.685 145.231L168.851 154.779ZM181.235 157.244C181.235 157.244 200.03 137.687 192.984 131.549C185.645 125.166 179.695 140.708 176.921 148.366C171.014 164.704 171.565 168.413 174.525 165.045L181.235 157.244ZM185.201 174.796C185.201 174.796 202.409 162.562 197.909 156.849C193.224 150.908 186.418 161.928 183.188 167.384C176.304 179.02 176.184 181.939 178.916 179.786L185.201 174.796ZM189.857 192.295C189.857 192.295 207.064 180.061 202.565 174.348C197.885 168.401 191.079 179.427 187.85 184.877C180.959 196.513 180.84 199.432 183.578 197.279L189.857 192.295ZM159.804 157.118C159.804 157.118 135.724 144.603 131.812 153.08C127.732 161.91 144.346 163.25 152.482 163.747C169.857 164.812 173.26 163.244 169.192 161.354L159.804 157.118ZM163.195 170.878C163.195 170.878 137.108 163.388 134.957 172.475C132.716 181.945 149.253 179.959 157.341 178.835C174.573 176.442 177.604 174.222 173.248 173.199L163.195 170.878ZM169.186 185.894C169.186 185.894 146.946 180.169 145.34 187.904C143.669 195.95 157.617 193.886 164.417 192.75C178.934 190.327 181.445 188.383 177.736 187.617L169.186 185.894ZM172.667 198.296C172.667 198.296 151.164 190.243 148.743 197.763C146.221 205.594 160.313 205.02 167.197 204.607C181.888 203.734 184.572 202.07 180.977 200.916L172.667 198.296ZM158.288 135.479C158.288 135.479 148.474 105.017 137.318 110.55C125.718 116.312 139.115 130.047 145.82 136.622C160.121 150.657 164.549 151.638 162.668 146.738L158.288 135.479Z" fill="white"/>
<path opacity="0.65" d="M168.851 154.779C167.173 158.925 165.448 155.593 165.723 138.225C165.849 130.083 166.424 113.452 175.441 117.113C184.099 120.631 172.685 145.231 172.685 145.231L168.851 154.779ZM181.235 157.244C181.235 157.244 200.03 137.687 192.984 131.549C185.645 125.166 179.695 140.708 176.921 148.366C171.014 164.704 171.565 168.413 174.525 165.045L181.235 157.244ZM185.201 174.796C185.201 174.796 202.409 162.562 197.909 156.849C193.224 150.908 186.418 161.928 183.188 167.384C176.304 179.02 176.184 181.939 178.916 179.786L185.201 174.796ZM189.857 192.295C189.857 192.295 207.064 180.061 202.565 174.348C197.885 168.401 191.079 179.427 187.85 184.877C180.959 196.513 180.84 199.432 183.578 197.279L189.857 192.295ZM159.804 157.118C159.804 157.118 135.724 144.603 131.812 153.08C127.732 161.91 144.346 163.25 152.482 163.747C169.857 164.812 173.26 163.244 169.192 161.354L159.804 157.118ZM163.195 170.878C163.195 170.878 137.108 163.388 134.957 172.475C132.716 181.945 149.253 179.959 157.341 178.835C174.573 176.442 177.604 174.222 173.248 173.199L163.195 170.878ZM169.186 185.894C169.186 185.894 146.946 180.169 145.34 187.904C143.669 195.95 157.617 193.886 164.417 192.75C178.934 190.327 181.445 188.383 177.736 187.617L169.186 185.894ZM172.667 198.296C172.667 198.296 151.164 190.243 148.743 197.763C146.221 205.594 160.313 205.02 167.197 204.607C181.888 203.734 184.572 202.07 180.977 200.916L172.667 198.296ZM158.288 135.479C158.288 135.479 148.474 105.017 137.318 110.55C125.718 116.312 139.115 130.047 145.82 136.622C160.121 150.657 164.549 151.638 162.668 146.738L158.288 135.479Z" fill="white"/>
<path d="M141.955 121.415C141.955 121.415 166.61 151.453 172.512 166.487C179.288 183.758 183.895 203.219 184.824 219.336" stroke="#CCCCCC" stroke-width="1.25" stroke-linecap="round" stroke-linejoin="round"/>
<path d="M167.599 156.675L171.026 128.037" stroke="#CCCCCC" stroke-width="1.25" stroke-linecap="round" stroke-linejoin="round"/>
<path d="M172.506 166.487L184.908 142.413" stroke="#CCCCCC" stroke-width="1.25" stroke-linecap="round" stroke-linejoin="round"/>
<path d="M170.696 162.915L144.723 157.633" stroke="#CCCCCC" stroke-width="1.25" stroke-linecap="round" stroke-linejoin="round"/>
<path d="M177.389 180.145L192.661 162.772" stroke="#CCCCCC" stroke-width="1.25" stroke-linecap="round" stroke-linejoin="round"/>
<path d="M175.25 174.419L155.646 174.252" stroke="#CCCCCC" stroke-width="1.25" stroke-linecap="round" stroke-linejoin="round"/>
<path d="M179.024 188.634L163.992 189.232" stroke="#CCCCCC" stroke-width="1.25" stroke-linecap="round" stroke-linejoin="round"/>
<path d="M182.116 197.709L190.168 186.989" stroke="#CCCCCC" stroke-width="1.25" stroke-linecap="round" stroke-linejoin="round"/>
<path d="M182.703 201.694L165.118 200.82" stroke="#CCCCCC" stroke-width="1.25" stroke-linecap="round" stroke-linejoin="round"/>
<path d="M216.273 178.505C213.235 179.648 214.164 177.094 223.553 168.7C227.95 164.77 237.093 156.897 239.574 163.483C241.97 169.813 223.247 175.837 223.247 175.837L216.273 178.505ZM221.066 186.283C221.066 186.283 240.718 186.654 240.526 179.893C240.323 172.858 229.113 177.339 223.672 179.63C212.067 184.524 210.359 186.636 213.601 186.54L221.066 186.283ZM213.643 197.021C213.643 197.021 228.621 200.15 229.448 194.951C230.317 189.567 221.096 191.362 216.603 192.313C207.016 194.377 205.405 195.747 207.897 196.142L213.643 197.021ZM206.609 208.101C206.609 208.101 221.587 211.224 222.414 206.031C223.283 200.647 214.062 202.441 209.569 203.387C199.982 205.451 198.371 206.821 200.863 207.215L206.609 208.101ZM210.581 174.844C210.581 174.844 205.411 155.922 198.982 157.992C192.277 160.163 199.731 169.645 203.463 174.21C211.432 183.962 213.942 184.979 212.936 181.921L210.581 174.844ZM204.907 183.441C204.907 183.441 196.07 165.9 190.174 169.227C184.039 172.673 193.23 180.45 197.783 184.213C207.532 192.187 210.204 192.708 208.604 189.89L204.907 183.441ZM199.844 193.994C199.844 193.994 191.966 179.367 187.053 182.316C181.942 185.385 189.899 191.781 193.847 194.832C202.277 201.347 204.542 201.729 203.128 199.384L199.844 193.994ZM194.949 201.939C194.949 201.939 188.67 186.558 183.47 188.969C178.078 191.481 185.297 198.678 188.898 202.13C196.585 209.501 198.802 210.123 197.64 207.64L194.949 201.939ZM221.312 163.418C221.312 163.418 232.696 143.227 224.308 140.032C215.536 136.7 214.805 150.567 214.601 157.381C214.152 171.871 215.8 174.731 217.489 171.297L221.312 163.418Z" fill="white"/>
<path opacity="0.65" d="M216.273 178.505C213.235 179.648 214.164 177.094 223.553 168.7C227.95 164.77 237.093 156.897 239.574 163.483C241.97 169.813 223.247 175.837 223.247 175.837L216.273 178.505ZM221.066 186.283C221.066 186.283 240.718 186.654 240.526 179.893C240.323 172.858 229.113 177.339 223.672 179.63C212.067 184.524 210.359 186.636 213.601 186.54L221.066 186.283ZM213.643 197.021C213.643 197.021 228.621 200.15 229.448 194.951C230.317 189.567 221.096 191.362 216.603 192.313C207.016 194.377 205.405 195.747 207.897 196.142L213.643 197.021ZM206.609 208.101C206.609 208.101 221.587 211.224 222.414 206.031C223.283 200.647 214.062 202.441 209.569 203.387C199.982 205.451 198.371 206.821 200.863 207.215L206.609 208.101ZM210.581 174.844C210.581 174.844 205.411 155.922 198.982 157.992C192.277 160.163 199.731 169.645 203.463 174.21C211.432 183.962 213.942 184.979 212.936 181.921L210.581 174.844ZM204.907 183.441C204.907 183.441 196.07 165.9 190.174 169.227C184.039 172.673 193.23 180.45 197.783 184.213C207.532 192.187 210.204 192.708 208.604 189.89L204.907 183.441ZM199.844 193.994C199.844 193.994 191.966 179.367 187.053 182.316C181.942 185.385 189.899 191.781 193.847 194.832C202.277 201.347 204.542 201.729 203.128 199.384L199.844 193.994ZM194.949 201.939C194.949 201.939 188.67 186.558 183.47 188.969C178.078 191.481 185.297 198.678 188.898 202.13C196.585 209.501 198.802 210.123 197.64 207.64L194.949 201.939ZM221.312 163.418C221.312 163.418 232.696 143.227 224.308 140.032C215.536 136.7 214.805 150.567 214.601 157.381C214.152 171.871 215.8 174.731 217.489 171.297L221.312 163.418Z" fill="#E5E5E5"/>
<path d="M220.82 147.815C220.82 147.815 216.938 175.676 211.833 186.199C205.962 198.29 197.1 211.158 188.964 219.563" stroke="#CCCCCC" stroke-width="1.25" stroke-linecap="round" stroke-linejoin="round"/>
<path d="M214.643 178.769L231.587 166.511" stroke="#CCCCCC" stroke-width="1.25" stroke-linecap="round" stroke-linejoin="round"/>
<path d="M211.827 186.193L230.748 180.952" stroke="#CCCCCC" stroke-width="1.25" stroke-linecap="round" stroke-linejoin="round"/>
<path d="M212.84 183.483L202.888 167.085" stroke="#CCCCCC" stroke-width="1.25" stroke-linecap="round" stroke-linejoin="round"/>
<path d="M206.95 195.502L223.714 195.071" stroke="#CCCCCC" stroke-width="1.25" stroke-linecap="round" stroke-linejoin="round"/>
<path d="M208.951 191.553L199.401 181.054" stroke="#CCCCCC" stroke-width="1.25" stroke-linecap="round" stroke-linejoin="round"/>
<path d="M203.236 200.545L195.525 192.851" stroke="#CCCCCC" stroke-width="1.25" stroke-linecap="round" stroke-linejoin="round"/>
<path d="M199.922 206.647L209.587 205.654" stroke="#CCCCCC" stroke-width="1.25" stroke-linecap="round" stroke-linejoin="round"/>
<path d="M198.089 208.92L189.905 199.145" stroke="#CCCCCC" stroke-width="1.25" stroke-linecap="round" stroke-linejoin="round"/>
<path d="M71.6577 154.779C73.3353 158.925 75.0608 155.593 74.7912 138.225C74.6594 130.083 74.0842 113.452 65.0671 117.113C56.4094 120.631 67.8231 145.231 67.8231 145.231L71.6577 154.779ZM59.2733 157.244C59.2733 157.244 40.4782 137.687 47.5241 131.549C54.8636 125.166 60.8191 140.708 63.5872 148.366C69.4947 164.704 68.9435 168.413 65.9838 165.045L59.2733 157.244ZM55.307 174.796C55.307 174.796 38.0996 162.562 42.5992 156.849C47.2845 150.908 54.0907 161.928 57.3201 167.384C64.2043 179.02 64.3241 181.939 61.592 179.786L55.307 174.796ZM50.6517 192.295C50.6517 192.295 33.4442 180.061 37.9438 174.348C42.6231 168.401 49.4294 179.427 52.6588 184.877C59.549 196.513 59.6688 199.432 56.9307 197.279L50.6517 192.295ZM80.7047 157.118C80.7047 157.118 104.784 144.603 108.697 153.08C112.777 161.91 96.1627 163.25 88.0263 163.747C70.6511 164.812 67.248 163.244 71.3161 161.354L80.7047 157.118ZM77.3136 170.878C77.3136 170.878 103.406 163.388 105.551 172.475C107.792 181.933 91.2437 179.947 83.1672 178.823C65.9358 176.43 62.9042 174.21 67.2659 173.187L77.3136 170.878ZM71.3221 185.894C71.3221 185.894 93.5624 180.169 95.1681 187.904C96.8397 195.95 82.8916 193.886 76.0913 192.75C61.5741 190.327 59.0636 188.383 62.7724 187.617L71.3221 185.894ZM67.8411 198.296C67.8411 198.296 89.3384 190.255 91.7829 197.799C94.3053 205.63 80.2134 205.056 73.3293 204.643C58.6383 203.77 55.9541 202.106 59.549 200.952L67.8411 198.296ZM82.2206 135.479C82.2206 135.479 92.0405 105.017 103.191 110.55C114.79 116.312 101.393 130.047 94.6888 136.622C80.3872 150.657 75.9595 151.638 77.8468 146.738L82.2206 135.479Z" fill="white"/>
<path opacity="0.65" d="M71.6577 154.779C73.3353 158.925 75.0608 155.593 74.7912 138.225C74.6594 130.083 74.0842 113.452 65.0671 117.113C56.4094 120.631 67.8231 145.231 67.8231 145.231L71.6577 154.779ZM59.2733 157.244C59.2733 157.244 40.4782 137.687 47.5241 131.549C54.8636 125.166 60.8191 140.708 63.5872 148.366C69.4947 164.704 68.9435 168.413 65.9838 165.045L59.2733 157.244ZM55.307 174.796C55.307 174.796 38.0996 162.562 42.5992 156.849C47.2845 150.908 54.0907 161.928 57.3201 167.384C64.2043 179.02 64.3241 181.939 61.592 179.786L55.307 174.796ZM50.6517 192.295C50.6517 192.295 33.4442 180.061 37.9438 174.348C42.6231 168.401 49.4294 179.427 52.6588 184.877C59.549 196.513 59.6688 199.432 56.9307 197.279L50.6517 192.295ZM80.7047 157.118C80.7047 157.118 104.784 144.603 108.697 153.08C112.777 161.91 96.1627 163.25 88.0263 163.747C70.6511 164.812 67.248 163.244 71.3161 161.354L80.7047 157.118ZM77.3136 170.878C77.3136 170.878 103.406 163.388 105.551 172.475C107.792 181.933 91.2437 179.947 83.1672 178.823C65.9358 176.43 62.9042 174.21 67.2659 173.187L77.3136 170.878ZM71.3221 185.894C71.3221 185.894 93.5624 180.169 95.1681 187.904C96.8397 195.95 82.8916 193.886 76.0913 192.75C61.5741 190.327 59.0636 188.383 62.7724 187.617L71.3221 185.894ZM67.8411 198.296C67.8411 198.296 89.3384 190.255 91.7829 197.799C94.3053 205.63 80.2134 205.056 73.3293 204.643C58.6383 203.77 55.9541 202.106 59.549 200.952L67.8411 198.296ZM82.2206 135.479C82.2206 135.479 92.0405 105.017 103.191 110.55C114.79 116.312 101.393 130.047 94.6888 136.622C80.3872 150.657 75.9595 151.638 77.8468 146.738L82.2206 135.479Z" fill="white"/>
<path d="M98.5532 121.415C98.5532 121.415 73.8984 151.453 67.9969 166.487C61.2205 183.758 56.6131 203.219 55.6844 219.336" stroke="#CCCCCC" stroke-width="1.25" stroke-linecap="round" stroke-linejoin="round"/>
<path d="M72.9098 156.675L69.4827 128.037" stroke="#CCCCCC" stroke-width="1.25" stroke-linecap="round" stroke-linejoin="round"/>
<path d="M68.0029 166.487L55.6006 142.413" stroke="#CCCCCC" stroke-width="1.25" stroke-linecap="round" stroke-linejoin="round"/>
<path d="M69.8123 162.915L95.7852 157.633" stroke="#CCCCCC" stroke-width="1.25" stroke-linecap="round" stroke-linejoin="round"/>
<path d="M63.1198 180.145L47.8477 162.772" stroke="#CCCCCC" stroke-width="1.25" stroke-linecap="round" stroke-linejoin="round"/>
<path d="M65.2528 174.419L84.8628 174.252" stroke="#CCCCCC" stroke-width="1.25" stroke-linecap="round" stroke-linejoin="round"/>
<path d="M61.4781 188.634L76.5167 189.232" stroke="#CCCCCC" stroke-width="1.25" stroke-linecap="round" stroke-linejoin="round"/>
<path d="M58.3926 197.709L50.3341 186.989" stroke="#CCCCCC" stroke-width="1.25" stroke-linecap="round" stroke-linejoin="round"/>
<path d="M57.7994 201.694L75.3903 200.82" stroke="#CCCCCC" stroke-width="1.25" stroke-linecap="round" stroke-linejoin="round"/>
<path d="M24.2413 178.505C27.273 179.648 26.3443 177.094 16.9557 168.7C12.558 164.77 3.41508 156.897 0.934624 163.483C-1.46195 169.813 17.2613 175.837 17.2613 175.837L24.2413 178.505ZM19.4482 186.283C19.4482 186.283 -0.209742 186.654 -0.0180158 179.893C0.191685 172.858 11.3657 177.339 16.8359 179.63C28.4413 184.524 30.1489 186.636 26.9135 186.54L19.4482 186.283ZM26.8656 197.021C26.8656 197.021 11.887 200.15 11.0602 194.951C10.1974 189.567 19.4122 191.362 23.9058 192.313C33.4921 194.377 35.1038 195.747 32.6114 196.142L26.8656 197.021ZM33.8995 208.101C33.8995 208.101 18.9209 211.224 18.0941 206.031C17.2253 200.647 26.4462 202.441 30.9398 203.387C40.5261 205.451 42.1378 206.821 39.6453 207.215L33.8995 208.101ZM29.9272 174.844C29.9272 174.844 35.0978 155.904 41.5386 157.992C48.243 160.163 40.7897 169.645 37.057 174.21C29.0884 183.962 26.578 184.979 27.5846 181.921L29.9272 174.844ZM35.6011 183.441C35.6011 183.441 44.4385 165.9 50.3341 169.227C56.4753 172.69 47.2784 180.498 42.7129 184.237C32.9649 192.211 30.2927 192.732 31.8924 189.914L35.6011 183.441ZM40.6639 193.994C40.6639 193.994 48.5426 179.367 53.4556 182.316C58.5663 185.385 50.6097 191.781 46.6613 194.832C38.2313 201.347 35.9666 201.729 37.3806 199.384L40.6639 193.994ZM45.5589 201.939C45.5589 201.939 51.8379 186.558 57.0385 188.969C62.4308 191.481 55.2111 198.678 51.6102 202.13C43.9232 209.501 41.7064 210.123 42.8687 207.64L45.5589 201.939ZM19.1965 163.418C19.1965 163.418 7.8128 143.227 16.2008 140.032C24.9723 136.7 25.7032 150.567 25.9069 157.381C26.3563 171.871 24.7087 174.731 23.0191 171.297L19.1965 163.418Z" fill="white"/>
<path opacity="0.65" d="M24.2413 178.505C27.273 179.648 26.3443 177.094 16.9557 168.7C12.558 164.77 3.41508 156.897 0.934624 163.483C-1.46195 169.813 17.2613 175.837 17.2613 175.837L24.2413 178.505ZM19.4482 186.283C19.4482 186.283 -0.209742 186.654 -0.0180158 179.893C0.191685 172.858 11.3657 177.339 16.8359 179.63C28.4413 184.524 30.1489 186.636 26.9135 186.54L19.4482 186.283ZM26.8656 197.021C26.8656 197.021 11.887 200.15 11.0602 194.951C10.1974 189.567 19.4122 191.362 23.9058 192.313C33.4921 194.377 35.1038 195.747 32.6114 196.142L26.8656 197.021ZM33.8995 208.101C33.8995 208.101 18.9209 211.224 18.0941 206.031C17.2253 200.647 26.4462 202.441 30.9398 203.387C40.5261 205.451 42.1378 206.821 39.6453 207.215L33.8995 208.101ZM29.9272 174.844C29.9272 174.844 35.0978 155.904 41.5386 157.992C48.243 160.163 40.7897 169.645 37.057 174.21C29.0884 183.962 26.578 184.979 27.5846 181.921L29.9272 174.844ZM35.6011 183.441C35.6011 183.441 44.4385 165.9 50.3341 169.227C56.4753 172.69 47.2784 180.498 42.7129 184.237C32.9649 192.211 30.2927 192.732 31.8924 189.914L35.6011 183.441ZM40.6639 193.994C40.6639 193.994 48.5426 179.367 53.4556 182.316C58.5663 185.385 50.6097 191.781 46.6613 194.832C38.2313 201.347 35.9666 201.729 37.3806 199.384L40.6639 193.994ZM45.5589 201.939C45.5589 201.939 51.8379 186.558 57.0385 188.969C62.4308 191.481 55.2111 198.678 51.6102 202.13C43.9232 209.501 41.7064 210.123 42.8687 207.64L45.5589 201.939ZM19.1965 163.418C19.1965 163.418 7.8128 143.227 16.2008 140.032C24.9723 136.7 25.7032 150.567 25.9069 157.381C26.3563 171.871 24.7087 174.731 23.0191 171.297L19.1965 163.418Z" fill="#E5E5E5"/>
<path d="M19.6879 147.815C19.6879 147.815 23.5703 175.676 28.675 186.199C34.5406 198.29 43.402 211.158 51.5384 219.563" stroke="#CCCCCC" stroke-width="1.25" stroke-linecap="round" stroke-linejoin="round"/>
<path d="M25.8651 178.769L8.92126 166.511" stroke="#CCCCCC" stroke-width="1.25" stroke-linecap="round" stroke-linejoin="round"/>
<path d="M28.675 186.193L9.75403 180.952" stroke="#CCCCCC" stroke-width="1.25" stroke-linecap="round" stroke-linejoin="round"/>
<path d="M27.6685 183.483L37.6202 167.085" stroke="#CCCCCC" stroke-width="1.25" stroke-linecap="round" stroke-linejoin="round"/>
<path d="M33.558 195.502L16.7939 195.071" stroke="#CCCCCC" stroke-width="1.25" stroke-linecap="round" stroke-linejoin="round"/>
<path d="M31.5569 191.553L41.1013 181.054" stroke="#CCCCCC" stroke-width="1.25" stroke-linecap="round" stroke-linejoin="round"/>
<path d="M37.2727 200.545L44.9837 192.851" stroke="#CCCCCC" stroke-width="1.25" stroke-linecap="round" stroke-linejoin="round"/>
<path d="M40.586 206.647L30.9158 205.654" stroke="#CCCCCC" stroke-width="1.25" stroke-linecap="round" stroke-linejoin="round"/>
<path d="M42.4193 208.92L50.6036 199.145" stroke="#CCCCCC" stroke-width="1.25" stroke-linecap="round" stroke-linejoin="round"/>
<path d="M143.483 152.745H80.1415V165.691H143.483V152.745Z" fill="white" stroke="#263238" stroke-linecap="round" stroke-linejoin="round"/>
<path d="M80.7946 156.107H91.9147" stroke="#263238" stroke-linecap="round" stroke-linejoin="round"/>
<path d="M95.6234 159.637H97.1392" stroke="#263238" stroke-linecap="round" stroke-linejoin="round"/>
<path d="M80.6268 159.637H93.095" stroke="#263238" stroke-linecap="round" stroke-linejoin="round"/>
<path d="M80.8905 163.298H86.0192" stroke="#263238" stroke-linecap="round" stroke-linejoin="round"/>
<path d="M130.482 153.194C129.407 157.191 129.407 161.401 130.482 165.398H156.005C156.005 165.398 153.321 157.657 156.005 153.194H130.482Z" fill="white"/>
<path opacity="0.24" d="M130.482 153.194C129.407 157.191 129.407 161.401 130.482 165.398H156.005C156.005 165.398 153.321 157.657 156.005 153.194H130.482Z" fill="black" stroke="#263238" stroke-linecap="round" stroke-linejoin="round"/>
<path d="M130.482 153.194C129.407 157.191 129.407 161.401 130.482 165.398H156.005C156.005 165.398 153.321 157.657 156.005 153.194H130.482Z" stroke="#263238" stroke-linecap="round" stroke-linejoin="round"/>
<path d="M80.8905 163.298V154.462C80.8905 154.244 80.977 154.036 81.1309 153.882C81.2849 153.729 81.4936 153.642 81.7113 153.642H157.042C157.201 153.642 157.353 153.579 157.465 153.467C157.578 153.355 157.641 153.203 157.641 153.044C157.641 152.885 157.578 152.733 157.465 152.621C157.353 152.509 157.201 152.446 157.042 152.446H79.6742C79.4565 152.446 79.2478 152.532 79.0938 152.686C78.9399 152.84 78.8534 153.048 78.8534 153.265V164.536C78.8526 164.711 78.8863 164.883 78.9525 165.044C79.0187 165.205 79.1161 165.352 79.2391 165.475C79.3621 165.599 79.5084 165.696 79.6694 165.763C79.8305 165.83 80.0031 165.864 80.1775 165.864H157.042C157.201 165.864 157.353 165.801 157.465 165.689C157.578 165.577 157.641 165.425 157.641 165.266C157.641 165.108 157.578 164.955 157.465 164.843C157.353 164.731 157.201 164.668 157.042 164.668H82.2146C82.0369 164.667 81.861 164.631 81.6976 164.561C81.5341 164.492 81.3863 164.39 81.2628 164.262C81.1394 164.134 81.0429 163.983 80.9789 163.818C80.915 163.652 80.8849 163.475 80.8905 163.298Z" fill="#263238" stroke="#263238" stroke-linecap="round" stroke-linejoin="round"/>
<path d="M143.483 179.469H80.1415V192.415H143.483V179.469Z" fill="white" stroke="#263238" stroke-linecap="round" stroke-linejoin="round"/>
<path d="M81.202 181.963H92.3162" stroke="#263238" stroke-linecap="round" stroke-linejoin="round"/>
<path d="M96.0249 185.493H97.5407" stroke="#263238" stroke-linecap="round" stroke-linejoin="round"/>
<path d="M81.0283 185.493H93.4965" stroke="#263238" stroke-linecap="round" stroke-linejoin="round"/>
<path d="M81.2919 189.154H86.4206" stroke="#263238" stroke-linecap="round" stroke-linejoin="round"/>
<path d="M130.877 179.917C129.805 183.915 129.805 188.124 130.877 192.122H156.005C156.005 192.122 153.321 184.38 156.005 179.917H130.877Z" fill="white"/>
<path opacity="0.24" d="M130.877 179.917C129.805 183.915 129.805 188.124 130.877 192.122H156.005C156.005 192.122 153.321 184.38 156.005 179.917H130.877Z" fill="black" stroke="#263238" stroke-linecap="round" stroke-linejoin="round"/>
<path d="M130.877 179.917C129.805 183.915 129.805 188.124 130.877 192.122H156.005C156.005 192.122 153.321 184.38 156.005 179.917H130.877Z" stroke="#263238" stroke-linecap="round" stroke-linejoin="round"/>
<path d="M80.8905 190.022V181.18C80.8905 180.962 80.977 180.754 81.1309 180.6C81.2848 180.446 81.4936 180.36 81.7113 180.36H157.042C157.201 180.36 157.353 180.297 157.465 180.185C157.578 180.073 157.641 179.92 157.641 179.762C157.641 179.603 157.578 179.451 157.465 179.339C157.353 179.227 157.201 179.164 157.042 179.164H79.6742C79.4565 179.164 79.2477 179.25 79.0938 179.404C78.9399 179.557 78.8534 179.766 78.8534 179.983V191.302C78.8534 191.653 78.9929 191.989 79.2412 192.237C79.4895 192.485 79.8263 192.624 80.1775 192.624H157.042C157.201 192.624 157.353 192.561 157.465 192.449C157.578 192.337 157.641 192.185 157.641 192.026C157.641 191.867 157.578 191.715 157.465 191.603C157.353 191.491 157.201 191.428 157.042 191.428H82.2146C82.0334 191.428 81.8541 191.391 81.6877 191.32C81.5214 191.248 81.3715 191.143 81.2474 191.011C81.1232 190.88 81.0275 190.724 80.9661 190.554C80.9048 190.383 80.879 190.202 80.8905 190.022Z" fill="#263238" stroke="#263238" stroke-linecap="round" stroke-linejoin="round"/>
<path d="M80.9504 204.751C81.3938 203.261 83.0235 197.117 81.0104 193.181H153.902V204.751H80.9504Z" fill="white" stroke="#263238" stroke-linecap="round" stroke-linejoin="round"/>
<path d="M124.466 195.741H113.346" stroke="#263238" stroke-linecap="round" stroke-linejoin="round"/>
<path d="M109.643 199.271H108.128" stroke="#263238" stroke-linecap="round" stroke-linejoin="round"/>
<path d="M124.634 199.271H112.172" stroke="#263238" stroke-linecap="round" stroke-linejoin="round"/>
<path d="M124.376 202.932H119.248" stroke="#263238" stroke-linecap="round" stroke-linejoin="round"/>
<path d="M124.88 203.584V194.742C124.88 194.525 124.793 194.316 124.639 194.162C124.485 194.009 124.276 193.922 124.059 193.922H79.4765C79.3176 193.922 79.1652 193.859 79.0528 193.747C78.9404 193.635 78.8773 193.483 78.8773 193.324C78.8773 193.165 78.9404 193.013 79.0528 192.901C79.1652 192.789 79.3176 192.726 79.4765 192.726H156.82C157.038 192.726 157.246 192.812 157.4 192.966C157.554 193.12 157.641 193.328 157.641 193.545V204.864C157.641 205.215 157.501 205.551 157.253 205.799C157.005 206.047 156.668 206.186 156.317 206.186H79.4765C79.3176 206.186 79.1652 206.123 79.0528 206.011C78.9404 205.899 78.8773 205.747 78.8773 205.588C78.8773 205.43 78.9404 205.277 79.0528 205.165C79.1652 205.053 79.3176 204.99 79.4765 204.99H123.556C123.737 204.99 123.916 204.954 124.082 204.882C124.249 204.81 124.399 204.705 124.523 204.574C124.647 204.442 124.743 204.286 124.804 204.116C124.865 203.946 124.891 203.765 124.88 203.584Z" fill="#263238" stroke="#263238" stroke-linecap="round" stroke-linejoin="round"/>
<path d="M80.9504 218.307C81.3938 216.823 83.0235 210.679 81.0104 206.743H153.902V218.307H80.9504Z" fill="white" stroke="#263238" stroke-linecap="round" stroke-linejoin="round"/>
<path d="M124.436 209.381H113.316" stroke="#263238" stroke-linecap="round" stroke-linejoin="round"/>
<path d="M109.608 212.917H108.092" stroke="#263238" stroke-linecap="round" stroke-linejoin="round"/>
<path d="M124.604 212.917H112.136" stroke="#263238" stroke-linecap="round" stroke-linejoin="round"/>
<path d="M124.34 216.572H119.212" stroke="#263238" stroke-linecap="round" stroke-linejoin="round"/>
<path d="M124.88 217.14V208.304C124.88 208.087 124.793 207.878 124.639 207.725C124.485 207.571 124.276 207.485 124.059 207.485H79.4765C79.3176 207.485 79.1652 207.422 79.0528 207.309C78.9404 207.197 78.8773 207.045 78.8773 206.886C78.8773 206.728 78.9404 206.576 79.0528 206.463C79.1652 206.351 79.3176 206.288 79.4765 206.288H156.82C157.038 206.288 157.246 206.375 157.4 206.528C157.554 206.682 157.641 206.89 157.641 207.108V218.379C157.642 218.553 157.608 218.725 157.542 218.887C157.476 219.048 157.378 219.194 157.255 219.318C157.132 219.441 156.986 219.539 156.825 219.606C156.664 219.672 156.491 219.707 156.317 219.707H79.4765C79.3176 219.707 79.1652 219.644 79.0528 219.532C78.9404 219.419 78.8773 219.267 78.8773 219.109C78.8773 218.95 78.9404 218.798 79.0528 218.686C79.1652 218.573 79.3176 218.51 79.4765 218.51H123.555C123.733 218.51 123.909 218.473 124.073 218.404C124.236 218.334 124.384 218.232 124.507 218.105C124.631 217.977 124.727 217.826 124.791 217.66C124.855 217.495 124.885 217.318 124.88 217.14Z" fill="white" stroke="#263238" stroke-linecap="round" stroke-linejoin="round"/>
<path d="M80.9504 177.626C81.3938 176.142 83.0235 169.998 81.0104 166.062H153.902V177.626H80.9504Z" fill="white" stroke="#263238" stroke-linecap="round" stroke-linejoin="round"/>
<path d="M124.628 168.652H113.508" stroke="#263238" stroke-linecap="round" stroke-linejoin="round"/>
<path d="M109.799 172.182H108.283" stroke="#263238" stroke-linecap="round" stroke-linejoin="round"/>
<path d="M124.796 172.182H112.328" stroke="#263238" stroke-linecap="round" stroke-linejoin="round"/>
<path d="M124.538 175.843H119.403" stroke="#263238" stroke-linecap="round" stroke-linejoin="round"/>
<path d="M124.88 176.459V167.623C124.88 167.406 124.793 167.198 124.639 167.044C124.485 166.89 124.276 166.804 124.059 166.804H79.4765C79.3176 166.804 79.1652 166.741 79.0528 166.629C78.9404 166.516 78.8773 166.364 78.8773 166.205C78.8773 166.047 78.9404 165.895 79.0528 165.782C79.1652 165.67 79.3176 165.607 79.4765 165.607H156.82C157.038 165.607 157.246 165.694 157.4 165.847C157.554 166.001 157.641 166.209 157.641 166.427V177.698C157.642 177.872 157.608 178.045 157.542 178.206C157.476 178.367 157.378 178.513 157.255 178.637C157.132 178.76 156.986 178.858 156.825 178.925C156.664 178.992 156.491 179.026 156.317 179.026H79.4765C79.3176 179.026 79.1652 178.963 79.0528 178.851C78.9404 178.739 78.8773 178.586 78.8773 178.428C78.8773 178.269 78.9404 178.117 79.0528 178.005C79.1652 177.892 79.3176 177.829 79.4765 177.829H123.555C123.733 177.829 123.909 177.792 124.073 177.723C124.236 177.653 124.384 177.551 124.507 177.424C124.631 177.296 124.727 177.145 124.791 176.979C124.855 176.814 124.885 176.637 124.88 176.459Z" fill="white" stroke="#263238" stroke-linecap="round" stroke-linejoin="round"/>
<path d="M107.714 123.784C107.714 123.784 101.519 123.987 92.5318 121.792C83.5447 119.596 76.1572 121.193 74.7612 129.766C73.3652 138.339 96.3304 147.115 112.304 150.31C128.277 153.505 144.262 154.893 152.051 151.507C159.84 148.12 159.636 135.952 156.64 130.364C153.645 124.777 143.663 123.987 138.468 124.813C133.274 125.638 107.714 123.784 107.714 123.784Z" fill="#263238" stroke="#263238" stroke-linecap="round" stroke-linejoin="round"/>
<path d="M148.055 86.2974C147.2 80.5462 146.343 74.7991 145.484 69.0559C144.687 63.7195 144.352 58.0062 142.962 52.7955C141.164 45.0182 138.468 40.8305 130.38 39.3349C122.291 37.8392 113.304 46.5138 113.304 50.4025C113.304 54.2911 116.084 63.0674 111.806 76.875C110.344 81.5952 116 82.2592 122.837 80.1713L148.055 86.2974Z" fill="#263238" stroke="#263238" stroke-linecap="round" stroke-linejoin="round"/>
<path d="M126.336 74.3324C126.336 74.3324 116.45 75.6785 111.806 76.875C107.163 78.0715 105.515 79.7705 103.844 82.9352C102.172 86.1 99.6856 97.8556 97.289 102.791C94.8924 107.727 90.5367 109.031 89.7877 114.266C89.0388 119.5 93.2328 121.295 96.3783 121.893C98.7069 122.29 101.058 122.539 103.418 122.641C103.418 122.641 108.511 134.606 118.397 135.503C128.283 136.401 135.622 129.521 140.116 126.978C144.609 124.436 144.909 118.603 145.059 111.873C145.209 105.142 149.193 90.0065 148.144 85.8188C147.096 81.6311 145.526 80.9431 138.72 77.4433C135.808 75.9656 130.53 74.0333 126.336 74.3324Z" fill="white" stroke="#263238" stroke-linecap="round" stroke-linejoin="round"/>
<path d="M95.258 105.854C92.9752 108.582 90.351 110.311 89.7878 114.266C89.658 115.058 89.658 115.866 89.7878 116.659C90.3869 117.58 92.2802 119.763 95.935 118.722C100.512 117.412 100.021 111.047 97.2411 107.128C97.0231 106.785 96.7327 106.493 96.3902 106.273C96.0478 106.053 95.6614 105.91 95.258 105.854Z" fill="white" stroke="#263238" stroke-linecap="round" stroke-linejoin="round"/>
<path d="M125.635 94.5293C129.829 92.6149 132.093 89.3066 134.023 83.031C134.729 80.7677 135.299 78.4643 135.73 76.1332C132.884 75.0443 129.343 74.1171 126.348 74.3384C126.348 74.3384 122.082 74.9367 117.834 75.6546C117.48 77.8561 116.635 84.1258 117.624 88.816C118.834 94.5293 121.447 96.4437 125.635 94.5293Z" fill="white" stroke="#263238" stroke-linecap="round" stroke-linejoin="round"/>
<path d="M105.815 116.359C105.815 116.359 108.811 108.881 108.811 106.787C108.811 104.694 107.462 102.6 106.414 99.9076C105.365 97.2154 108.062 92.7286 108.062 92.7286C108.062 92.7286 109.763 79.7227 111.333 77.4613" stroke="#263238" stroke-linecap="round" stroke-linejoin="round"/>
<path d="M91.5852 101.702L93.832 99.3093C95.309 100.115 96.865 100.766 98.4754 101.254C104.545 103.27 107.313 104.544 107.612 108.133C107.612 108.133 111.657 105.591 115.701 106.04C119.745 106.488 123.34 108.133 124.538 108.283L125.736 108.433L126.036 110.526L123.789 122.342L106.264 120.547L94.2814 110.078L91.5852 101.702Z" fill="white" stroke="#263238" stroke-linecap="round" stroke-linejoin="round"/>
<path d="M90.8363 101.248L105.066 113.362L106.564 110.969L126.935 110.521L125.736 123.682L106.414 122.785L105.066 123.682L94.581 115.905L90.8363 101.248Z" fill="#263238" stroke="#263238" stroke-linecap="round" stroke-linejoin="round"/>
<path d="M140.415 97.2155L140.116 114.266C140.116 114.266 131.278 119.201 126.336 120.547C123.61 121.36 120.79 121.813 117.948 121.893C117.498 121.893 115.551 118.752 114.502 117.705C113.454 116.659 112.609 116.641 110.692 115.683C108.02 114.349 106.863 114.116 107.013 114.714C107.163 115.312 107.313 115.911 108.661 116.659C110.009 117.406 110.908 118.005 110.908 118.005L111.207 118.603C111.207 118.603 107.912 118.154 106.564 117.855C105.216 117.556 101.771 115.163 101.771 115.163C101.771 115.163 100.303 115.073 101.351 116.868C102.4 118.663 103.418 118.752 103.418 118.752C103.619 119.829 104.141 120.819 104.916 121.594C105.582 122.183 106.282 122.733 107.013 123.239C107.013 123.239 104.167 122.491 104.467 123.239C104.766 123.987 106.564 124.286 108.811 125.333C111.057 126.38 116.15 126.53 118.996 126.978C124.162 127.644 129.386 127.744 134.574 127.277C140.565 126.679 149.552 122.641 151.2 121.295C152.848 119.949 151.799 104.843 151.35 101.403C150.9 97.9633 150.002 91.5321 149.403 88.5409C148.803 85.5496 146.407 81.3619 144.909 80.4645C143.411 79.5671 140.715 82.4088 140.415 97.2155Z" fill="white" stroke="#263238" stroke-linecap="round" stroke-linejoin="round"/>
<path d="M103.418 118.752C103.418 118.752 106.983 120.864 109.655 121.456L103.418 118.752Z" fill="white"/>
<path d="M103.418 118.752C103.418 118.752 106.983 120.864 109.655 121.456" stroke="#263238" stroke-linecap="round" stroke-linejoin="round"/>
<path d="M107.013 123.239C108.145 123.663 109.335 123.909 110.542 123.969L107.013 123.239Z" fill="white"/>
<path d="M107.013 123.239C108.145 123.663 109.335 123.909 110.542 123.969" stroke="#263238" stroke-linecap="round" stroke-linejoin="round"/>
<path d="M103.874 120.272C105.753 121.592 107.865 122.546 110.099 123.084L103.874 120.272Z" fill="white"/>
<path d="M103.874 120.272C105.753 121.592 107.865 122.546 110.099 123.084" stroke="#263238" stroke-linecap="round" stroke-linejoin="round"/>
<path d="M136.359 127.014C142.213 125.931 149.708 122.509 151.2 121.295C152.848 119.949 151.799 104.843 151.35 101.403C150.901 97.9633 150.002 91.5321 149.403 88.5409C148.804 85.5496 146.407 81.3619 144.909 80.4645C143.411 79.5671 140.715 82.4088 140.415 97.2155L140.116 114.266C140.116 114.266 136.683 116.18 132.896 117.951C134.358 119.536 136.821 122.886 136.359 127.014Z" fill="white" stroke="#263238" stroke-linecap="round" stroke-linejoin="round"/>
<path d="M121.021 72.5556C121.021 72.5556 119.679 80.3328 119.547 85.1188C119.415 89.9048 123.028 94.7447 128.115 88.5947C133.202 82.4447 132.399 72.2804 132.399 72.2804C130.625 73.1109 128.698 73.5641 126.739 73.6115C124.78 73.6589 122.833 73.2993 121.021 72.5556Z" fill="white" stroke="#263238" stroke-linecap="round" stroke-linejoin="round"/>
<path d="M121.423 75.8998C121.423 75.8998 121.686 80.0457 121.285 82.319" stroke="#263238" stroke-linecap="round" stroke-linejoin="round"/>
<path d="M91.2377 112.674C91.1328 113.014 91.0988 113.371 91.138 113.724C91.1771 114.077 91.2886 114.418 91.4654 114.726C92.0645 115.713 95.2699 117.61 95.2699 116.85C95.2699 116.09 93.6702 115.055 93.5924 114.499C93.4853 114.043 93.3074 113.607 93.0651 113.207C93.0651 113.207 91.9207 111.765 91.2377 112.674Z" fill="white" stroke="#263238" stroke-linecap="round" stroke-linejoin="round"/>
<path d="M89.7039 108.241C89.7039 108.241 89.5601 110.461 89.9376 111.496C90.315 112.531 94.3233 115.295 95.3299 114.768C96.3364 114.242 93.1909 111.496 92.442 110.634C91.5872 109.773 90.6722 108.973 89.7039 108.241Z" fill="white" stroke="#263238" stroke-linecap="round" stroke-linejoin="round"/>
<path d="M89.7159 105.543C89.7159 105.543 89.4163 107.745 89.7159 108.804C90.0155 109.862 93.82 112.902 94.8865 112.447C95.953 111.992 92.9872 109.031 92.3042 108.122C91.5031 107.203 90.6382 106.341 89.7159 105.543Z" fill="white" stroke="#263238" stroke-linecap="round" stroke-linejoin="round"/>
<path d="M91.5432 103.036C91.5432 103.036 89.2605 101.84 88.883 103.342C88.5056 104.843 90.2491 106.452 91.8488 107.745C93.4485 109.037 94.1255 108.804 94.1255 107.589C94.1255 106.375 91.5432 103.036 91.5432 103.036Z" fill="white" stroke="#263238" stroke-linecap="round" stroke-linejoin="round"/>
<path d="M91.3335 150.537C91.3335 150.537 88.3378 152.135 82.7478 152.332C77.1577 152.53 72.5623 149.538 75.1566 147.145C76.518 145.903 78.1355 144.974 79.8952 144.423C81.6549 143.872 83.5141 143.713 85.3421 143.957C88.9369 144.555 94.3292 145.949 94.3292 145.949L91.3335 150.537Z" fill="white" stroke="#263238" stroke-linecap="round" stroke-linejoin="round"/>
<path d="M92.1365 145.524C92.4061 145.554 92.6937 145.572 92.9813 145.584C91.1479 145.129 87.8226 144.34 85.3422 143.927C83.5142 143.683 81.655 143.842 79.8953 144.393C78.1356 144.944 76.5182 145.873 75.1567 147.115C73.8386 148.312 74.3838 149.712 75.9716 150.741C75.8708 149.901 76.0512 149.051 76.4847 148.323C76.9182 147.596 77.5804 147.033 78.3681 146.721C81.7473 145.153 88.7393 145.153 92.1365 145.524Z" fill="white" stroke="#263238" stroke-linecap="round" stroke-linejoin="round"/>
<path d="M153.848 133.954C153.848 133.954 147.857 142.928 141.865 146.517C135.874 150.107 108.511 150.537 102.921 150.537H91.3335V146.35C91.3335 146.35 109.709 143.729 119.895 137.974C130.08 132.219 135.472 125.812 143.459 123.215C151.446 120.619 158.438 125.01 158.24 135.779" fill="#263238"/>
<path d="M153.848 133.954C153.848 133.954 147.857 142.928 141.865 146.517C135.874 150.107 108.511 150.537 102.921 150.537H91.3335V146.35C91.3335 146.35 109.709 143.729 119.895 137.974C130.08 132.219 135.472 125.812 143.459 123.215C151.446 120.619 158.438 125.01 158.24 135.779" stroke="#263238" stroke-linecap="round" stroke-linejoin="round"/>
<path d="M149.852 140.822C144.994 145.336 138.922 148.334 132.381 149.449" stroke="white" stroke-linecap="round" stroke-linejoin="round"/>
<path d="M153.746 135.952C153.267 136.824 152.703 137.648 152.063 138.411" stroke="white" stroke-linecap="round" stroke-linejoin="round"/>
<path d="M123.49 136.849C120.722 138.97 117.385 140.22 113.903 140.439" stroke="white" stroke-linecap="round" stroke-linejoin="round"/>
<path d="M87.7986 125.447L87.1395 125.381L87.7986 125.447Z" fill="#263238"/>
<path d="M87.7986 125.447L87.1395 125.381" stroke="#263238" stroke-linecap="round" stroke-linejoin="round"/>
<path d="M144.058 151.303C147.049 150.247 150.123 149.447 153.249 148.91C157.443 148.312 160.834 148.91 162.033 151.507C163.231 154.103 162.434 157.286 158.24 158.087C154.046 158.889 146.455 157.286 145.658 157.286C144.963 157.206 144.287 157.004 143.663 156.687L144.058 151.303Z" fill="white" stroke="#263238" stroke-linecap="round" stroke-linejoin="round"/>
<path d="M157.197 148.743C158.474 149.233 160.882 150.579 160.439 153.684C159.84 157.872 154.843 157.872 151.452 157.872C151.2 157.874 150.95 157.91 150.709 157.98C153.225 158.273 156.155 158.47 158.24 158.075C162.434 157.274 163.231 154.085 162.033 151.495C161.236 149.796 159.498 148.958 157.197 148.743Z" fill="white" stroke="#263238" stroke-linecap="round" stroke-linejoin="round"/>
<path d="M85.5458 120.996C85.5458 120.996 78.7515 119.799 74.3598 123.185C69.9681 126.572 70.5672 130.167 74.7612 135.354C78.9552 140.541 89.7398 149.712 113.106 153.9C136.473 158.087 143.663 156.687 143.663 156.687L144.058 151.303C134.024 151.337 124.237 148.196 116.102 142.329C103.023 132.757 97.1932 126.47 87.7986 125.447" fill="#263238"/>
<path d="M85.5458 120.996C85.5458 120.996 78.7515 119.799 74.3598 123.185C69.9681 126.572 70.5672 130.167 74.7612 135.354C78.9552 140.541 89.7398 149.712 113.106 153.9C136.473 158.087 143.663 156.687 143.663 156.687L144.058 151.303C134.024 151.337 124.237 148.196 116.102 142.329C103.023 132.757 97.1932 126.47 87.7986 125.447" stroke="#263238" stroke-linecap="round" stroke-linejoin="round"/>
<path d="M85.1923 125.525C84.4726 125.565 83.7562 125.651 83.0474 125.782" stroke="white" stroke-linecap="round" stroke-linejoin="round"/>
<path d="M141.164 151.207C141.164 151.207 127.384 150.908 111.806 138.943C100.794 130.484 94.2754 126.811 89.0748 125.782" stroke="white" stroke-linecap="round" stroke-linejoin="round"/>
<path d="M141.033 64.24C137.354 66.1783 136.838 62.2897 136.868 59.9446C136.905 59.9199 136.932 59.8842 136.946 59.8428C137.21 58.766 136.946 53.3937 133.849 51.24C131.117 49.3436 127.498 47.7104 124.119 47.7044C121.722 47.7044 119.625 49.2179 118.349 51.1443C116.833 53.4356 116.959 56.0918 116.839 58.7361C116.719 61.3803 116.462 64.2998 116.989 66.95C117.696 70.4797 120.997 77.892 125.005 77.892C128.642 77.892 135.101 72.4599 137.318 69.2593C137.82 69.0928 138.282 68.8262 138.678 68.4756C139.505 67.7696 141.152 66.5971 141.033 64.24Z" fill="white" stroke="#263238" stroke-linecap="round" stroke-linejoin="round"/>
<path d="M125.006 61.8889C125.006 61.8889 123.358 66.95 123.472 67.5363C123.586 68.1226 125.593 67.5363 125.593 67.5363" stroke="#263238" stroke-linecap="round" stroke-linejoin="round"/>
<path d="M123.49 69.6541C123.49 69.6541 125.671 71.2933 129.146 68.7149" stroke="#263238" stroke-linecap="round" stroke-linejoin="round"/>
<path d="M128.774 63.6537C128.774 63.6537 129.972 66.1244 133.729 64.7126" stroke="#263238" stroke-linecap="round" stroke-linejoin="round"/>
<path d="M118.049 60.7103C118.049 60.7103 118.756 63.1811 122.531 62.2418" stroke="#263238" stroke-linecap="round" stroke-linejoin="round"/>
<path d="M124.73 58.8318C124.73 58.8318 123.394 54.0458 118.996 56.4747" stroke="#263238" stroke-linecap="round" stroke-linejoin="round"/>
<path d="M134.524 66.466C135.513 64.0738 134.373 61.3335 131.977 60.3453C129.581 59.3572 126.837 60.4955 125.847 62.8878C124.858 65.28 125.998 68.0204 128.394 69.0085C130.79 69.9966 133.534 68.8583 134.524 66.466Z" stroke="#263238" stroke-width="0.995389" stroke-linecap="round" stroke-linejoin="round"/>
<path d="M119.937 66.5911C122.541 66.5911 124.652 64.4831 124.652 61.8829C124.652 59.2826 122.541 57.1747 119.937 57.1747C117.333 57.1747 115.221 59.2826 115.221 61.8829C115.221 64.4831 117.333 66.5911 119.937 66.5911Z" stroke="#263238" stroke-linecap="round" stroke-linejoin="round"/>
<path d="M135.257 64.9459L139.145 64.24" stroke="#263238" stroke-linecap="round" stroke-linejoin="round"/>
<path d="M115.341 60.7103L116.755 59.6514" stroke="#263238" stroke-linecap="round" stroke-linejoin="round"/>
<path d="M119.985 49.4932C119.985 49.4932 124.179 46.9446 125.641 49.3615C127.102 51.7785 133.819 67.8355 141.033 64.24C148.246 60.6445 140.979 48.8231 133.981 45.0601C126.983 41.2971 121.093 44.5217 119.985 49.4932Z" fill="#263238" stroke="#263238" stroke-linecap="round" stroke-linejoin="round"/>
<path d="M124.119 47.7044C124.119 47.7044 121.764 45.7242 120.392 46.6395C120.016 46.8479 119.696 47.1428 119.457 47.4997C119.219 47.8566 119.069 48.2651 119.02 48.6915" stroke="white" stroke-linecap="round" stroke-linejoin="round"/>
<path d="M141.29 60.0223C141.828 60.3634 142.414 60.6234 143.028 60.7941" stroke="white" stroke-linecap="round" stroke-linejoin="round"/>
<path d="M123.136 42.7568C123.136 42.7568 127.252 38.1922 131.824 45.2695C134.819 49.9119 136.545 54.5543 138.798 57.5874" stroke="white" stroke-linecap="round" stroke-linejoin="round"/>
<path d="M129.87 58.1737C130.865 57.6815 131.987 57.5075 133.084 57.6756C134.181 57.8437 135.199 58.3457 136 59.113" stroke="white" stroke-linecap="round" stroke-linejoin="round"/>
<path d="M123.729 103.874C123.729 103.874 128.247 109.515 135.712 109.515" stroke="#263238" stroke-linecap="round" stroke-linejoin="round"/>
<path d="M15.9912 219.701H222.762" stroke="#263238" stroke-linecap="round" stroke-linejoin="round"/>
</g>
<defs>
<clipPath id="clip0_211_419">
<rect width="240.508" height="220" fill="white"/>
</clipPath>
</defs>
</svg>
