<svg width="229" height="220" viewBox="0 0 229 220" fill="none" xmlns="http://www.w3.org/2000/svg">
<g clip-path="url(#clip0_211_997)">
<path d="M23.341 187.1H13.6444" stroke="#263238" stroke-linecap="round" stroke-linejoin="round"/>
<path d="M0.254395 187.095H212.42" stroke="#263238" stroke-linecap="round" stroke-linejoin="round"/>
<path d="M214.638 29.2679V187.095L228.664 201.121" stroke="#263238" stroke-linecap="round" stroke-linejoin="round"/>
<path d="M62.6464 123.894H52.4766V187.1H62.6464V123.894Z" stroke="#263238" stroke-linecap="round" stroke-linejoin="round"/>
<path d="M48.8391 128.584H7.74811V143.933H48.8391V128.584Z" stroke="#263238" stroke-linecap="round" stroke-linejoin="round"/>
<path d="M48.8391 145.607H7.74811V160.956H48.8391V145.607Z" stroke="#263238" stroke-linecap="round" stroke-linejoin="round"/>
<path d="M48.8391 162.634H7.74811V177.983H48.8391V162.634Z" stroke="#263238" stroke-linecap="round" stroke-linejoin="round"/>
<path d="M23.9719 129.693C23.9719 130.147 24.152 130.582 24.4725 130.902C24.7931 131.223 25.2279 131.403 25.6812 131.403H30.906C31.1309 131.403 31.3537 131.36 31.5617 131.274C31.7697 131.188 31.9587 131.063 32.118 130.904C32.2773 130.745 32.4036 130.556 32.4899 130.349C32.5761 130.141 32.6205 129.918 32.6205 129.693" stroke="#263238" stroke-linecap="round" stroke-linejoin="round"/>
<path d="M23.9719 146.716C23.9759 147.167 24.1576 147.598 24.4776 147.917C24.7976 148.235 25.23 148.414 25.6812 148.415H30.906C31.3607 148.415 31.7968 148.234 32.1183 147.913C32.4398 147.591 32.6205 147.155 32.6205 146.701" stroke="#263238" stroke-linecap="round" stroke-linejoin="round"/>
<path d="M23.9719 163.743C23.9719 164.197 24.1518 164.633 24.4722 164.954C24.7926 165.275 25.2274 165.457 25.6812 165.458H30.906C31.1311 165.458 31.3541 165.414 31.5621 165.327C31.7701 165.241 31.9591 165.115 32.1183 164.956C32.2775 164.797 32.4038 164.608 32.49 164.4C32.5761 164.191 32.6205 163.969 32.6205 163.743" stroke="#263238" stroke-linecap="round" stroke-linejoin="round"/>
<path d="M50.813 187.1H4.42603V123.894H50.813" stroke="#263238" stroke-linecap="round" stroke-linejoin="round"/>
<path d="M90.4389 156.412V180.323L102.959 184.734C103.115 184.789 103.25 184.891 103.346 185.026C103.442 185.16 103.493 185.322 103.493 185.487V186.23C103.493 186.353 103.465 186.475 103.41 186.586C103.355 186.696 103.275 186.792 103.176 186.866C103.077 186.94 102.962 186.99 102.841 187.012C102.719 187.034 102.594 187.028 102.476 186.993L89.6148 183.218L89.3807 186.306C89.3665 186.521 89.2705 186.723 89.1126 186.869C88.9546 187.016 88.7466 187.096 88.5311 187.095H87.8698C87.655 187.094 87.4483 187.013 87.2909 186.866C87.1334 186.72 87.0368 186.52 87.0202 186.306L86.7862 183.218L73.9303 186.993C73.8118 187.027 73.6872 187.033 73.5661 187.01C73.445 186.988 73.3308 186.938 73.2323 186.864C73.1337 186.79 73.0536 186.694 72.9982 186.584C72.9428 186.474 72.9136 186.353 72.9128 186.23V185.487C72.9129 185.322 72.9644 185.16 73.0601 185.026C73.1558 184.891 73.2909 184.789 73.447 184.734L85.9722 180.323V156.412" stroke="#263238" stroke-linecap="round" stroke-linejoin="round"/>
<path d="M84.7258 147.754V140.83" stroke="#263238" stroke-linecap="round" stroke-linejoin="round"/>
<path d="M81.7903 140.83V147.754" stroke="#263238" stroke-linecap="round" stroke-linejoin="round"/>
<path d="M72.0225 139.593C69.9367 139.512 68.4613 138.159 68.4613 135.819V123.685C68.4951 122.951 68.7415 122.242 69.1705 121.645C69.5995 121.048 70.1926 120.589 70.8778 120.322" stroke="#263238" stroke-linecap="round" stroke-linejoin="round"/>
<path d="M71.4476 122.149V135.768C71.4476 138.118 73.3249 139.415 75.6905 138.998C80.851 138.047 86.16 138.28 91.2173 139.68C93.5473 140.311 95.3788 139.171 95.3788 136.831V123.212C95.3492 122.617 95.1499 122.044 94.8047 121.559C94.4594 121.074 93.9825 120.698 93.4303 120.475C86.984 118.292 80.05 117.987 73.4368 119.595C72.8799 119.759 72.3885 120.094 72.0317 120.552C71.6749 121.01 71.4707 121.569 71.4476 122.149V122.149Z" stroke="#263238" stroke-linecap="round" stroke-linejoin="round"/>
<path d="M81.0527 148.761H74.2864C73.7161 148.76 73.1513 148.872 72.6242 149.09C72.0971 149.308 71.6181 149.627 71.2146 150.03C70.8111 150.433 70.491 150.912 70.2726 151.439C70.0542 151.966 69.9418 152.53 69.9418 153.101V153.101C69.9418 153.628 70.1513 154.134 70.5244 154.507C70.8974 154.88 71.4034 155.09 71.931 155.09H79.8012" stroke="#263238" stroke-linecap="round" stroke-linejoin="round"/>
<path d="M82.1159 155.09H104.46C104.987 155.09 105.493 154.88 105.866 154.507C106.239 154.134 106.449 153.628 106.449 153.101C106.449 152.53 106.337 151.966 106.118 151.439C105.9 150.912 105.58 150.433 105.176 150.03C104.773 149.627 104.294 149.308 103.767 149.09C103.239 148.872 102.675 148.76 102.104 148.761H84.4714C83.9011 148.76 83.3362 148.872 82.8091 149.09C82.282 149.308 81.803 149.627 81.3995 150.03C80.996 150.433 80.6759 150.912 80.4575 151.439C80.2391 151.966 80.1267 152.53 80.1267 153.101V153.101C80.1267 153.628 80.3363 154.134 80.7093 154.507C81.0824 154.88 81.5883 155.09 82.1159 155.09V155.09Z" stroke="#263238" stroke-linecap="round" stroke-linejoin="round"/>
<path d="M187.318 113.23C187.584 113.225 187.84 113.124 188.037 112.945C188.234 112.767 188.36 112.523 188.392 112.259L190.62 91.5174C190.637 91.3949 190.627 91.2702 190.591 91.1518C190.555 91.0335 190.494 90.9244 190.412 90.832C190.33 90.7396 190.229 90.6662 190.115 90.6167C190.002 90.5673 189.879 90.5431 189.755 90.5457" stroke="#263238" stroke-linecap="round" stroke-linejoin="round"/>
<path d="M132.207 132.318H203.909V125.664L132.207 125.664V132.318Z" stroke="#263238" stroke-linecap="round" stroke-linejoin="round"/>
<path d="M106.683 125.659V132.313H131.098" stroke="#263238" stroke-linecap="round" stroke-linejoin="round"/>
<path d="M206.213 124.952V120.79H136.297" stroke="#263238" stroke-linecap="round" stroke-linejoin="round"/>
<path d="M104.373 124.952H135.183V120.79H104.373V124.952Z" stroke="#263238" stroke-linecap="round" stroke-linejoin="round"/>
<path d="M200.017 133.428V187.095H201.568L202.128 133.428" stroke="#263238" stroke-linecap="round" stroke-linejoin="round"/>
<path d="M197.91 133.428L198.465 187.095H200.017V133.428" stroke="#263238" stroke-linecap="round" stroke-linejoin="round"/>
<path d="M179.514 133.428V187.095H181.066L181.621 133.428" stroke="#263238" stroke-linecap="round" stroke-linejoin="round"/>
<path d="M177.408 133.428L177.963 187.095H179.514V133.428" stroke="#263238" stroke-linecap="round" stroke-linejoin="round"/>
<path d="M131.072 133.428V187.095H132.629L133.183 133.428" stroke="#263238" stroke-linecap="round" stroke-linejoin="round"/>
<path d="M128.966 133.428L129.52 187.095H131.072V133.428" stroke="#263238" stroke-linecap="round" stroke-linejoin="round"/>
<path d="M110.57 133.428V187.095H112.121L112.676 133.428" stroke="#263238" stroke-linecap="round" stroke-linejoin="round"/>
<path d="M108.464 133.428L109.018 187.095H110.57V133.428" stroke="#263238" stroke-linecap="round" stroke-linejoin="round"/>
<path d="M163.067 119.493H147.983V120.785H163.067V119.493Z" stroke="#263238" stroke-linecap="round" stroke-linejoin="round"/>
<path d="M190.788 120.785H187.288C187.055 120.785 186.831 120.693 186.666 120.528C186.501 120.362 186.408 120.139 186.408 119.905V118.796H191.668V119.905C191.668 120.139 191.575 120.362 191.41 120.528C191.245 120.693 191.022 120.785 190.788 120.785Z" stroke="#263238" stroke-linecap="round" stroke-linejoin="round"/>
<path d="M191.668 118.806C191.668 118.053 190.488 117.438 189.033 117.438C187.578 117.438 186.403 118.053 186.403 118.806H191.668Z" stroke="#263238" stroke-linecap="round" stroke-linejoin="round"/>
<path d="M186.403 118.806C186.403 118.053 187.583 117.438 189.033 117.438V118.806H186.403Z" stroke="#263238" stroke-linecap="round" stroke-linejoin="round"/>
<path d="M186.225 113.23H156.819C156.696 113.233 156.573 113.209 156.46 113.159C156.346 113.11 156.245 113.037 156.163 112.944C156.081 112.852 156.019 112.743 155.983 112.624C155.947 112.506 155.938 112.381 155.955 112.259L158.183 91.5174C158.216 91.2537 158.342 91.0106 158.539 90.8322C158.736 90.6539 158.991 90.5522 159.256 90.5457H188.667C188.79 90.5439 188.912 90.5687 189.025 90.6184C189.138 90.6681 189.239 90.7416 189.321 90.8338C189.403 90.926 189.465 91.0347 189.501 91.1527C189.537 91.2707 189.548 91.395 189.532 91.5174L187.303 112.259C187.271 112.524 187.144 112.768 186.946 112.947C186.748 113.125 186.492 113.226 186.225 113.23Z" stroke="#263238" stroke-linecap="round" stroke-linejoin="round"/>
<path d="M175.775 113.785L176.279 118.455H177.388L176.884 113.785" stroke="#263238" stroke-linecap="round" stroke-linejoin="round"/>
<path d="M168.561 113.785L169.065 118.455H176.279L175.775 113.785" stroke="#263238" stroke-linecap="round" stroke-linejoin="round"/>
<path d="M184.999 111.73H158.371C158.264 111.732 158.157 111.711 158.058 111.668C157.959 111.626 157.871 111.562 157.799 111.481C157.728 111.401 157.675 111.306 157.643 111.203C157.612 111.1 157.603 110.992 157.618 110.885L159.551 92.891C159.58 92.6611 159.69 92.4491 159.862 92.294C160.034 92.1388 160.256 92.0509 160.487 92.0465H187.115C187.223 92.044 187.329 92.0649 187.428 92.1078C187.527 92.1507 187.615 92.2145 187.687 92.2948C187.758 92.3751 187.812 92.47 187.843 92.573C187.874 92.6759 187.883 92.7845 187.868 92.891L185.935 110.885C185.907 111.115 185.796 111.327 185.624 111.482C185.452 111.637 185.23 111.725 184.999 111.73V111.73Z" stroke="#263238" stroke-linecap="round" stroke-linejoin="round"/>
<path d="M178.502 118.455H163.876V120.79H178.502V118.455Z" stroke="#263238" stroke-linecap="round" stroke-linejoin="round"/>
<path d="M182.781 118.455H178.502V120.79H182.781V118.455Z" stroke="#263238" stroke-linecap="round" stroke-linejoin="round"/>
<path d="M196.664 96.4522H148.766V107.243H196.664V96.4522Z" fill="white" stroke="#263238" stroke-linecap="round" stroke-linejoin="round"/>
<path d="M154.556 102.974L153.782 102.384L153.909 103.33C153.921 103.393 153.918 103.457 153.902 103.518C153.885 103.579 153.856 103.636 153.815 103.685C153.774 103.733 153.723 103.772 153.666 103.799C153.608 103.826 153.546 103.839 153.482 103.839C153.419 103.839 153.356 103.826 153.299 103.799C153.241 103.772 153.19 103.733 153.149 103.685C153.109 103.636 153.079 103.579 153.063 103.518C153.046 103.457 153.044 103.393 153.055 103.33L153.182 102.384L152.404 102.974C152.355 103.011 152.299 103.036 152.24 103.049C152.181 103.063 152.119 103.063 152.06 103.051C152 103.039 151.944 103.015 151.895 102.98C151.845 102.945 151.804 102.899 151.773 102.847C151.742 102.795 151.723 102.736 151.716 102.675C151.71 102.615 151.717 102.553 151.736 102.496C151.755 102.438 151.787 102.385 151.828 102.34C151.869 102.295 151.92 102.26 151.976 102.237L152.867 101.865L151.976 101.494C151.92 101.47 151.869 101.434 151.828 101.389C151.786 101.344 151.755 101.29 151.736 101.232C151.716 101.174 151.71 101.112 151.716 101.051C151.723 100.99 151.742 100.931 151.773 100.878C151.803 100.825 151.844 100.78 151.894 100.744C151.943 100.708 152 100.683 152.059 100.671C152.119 100.659 152.181 100.66 152.24 100.674C152.299 100.688 152.355 100.714 152.404 100.751L153.177 101.341L153.05 100.395C153.038 100.333 153.041 100.268 153.058 100.207C153.074 100.146 153.103 100.089 153.144 100.041C153.185 99.992 153.236 99.953 153.293 99.9263C153.351 99.8997 153.414 99.886 153.477 99.8862C153.54 99.886 153.603 99.8997 153.661 99.9263C153.718 99.953 153.769 99.992 153.81 100.041C153.851 100.089 153.88 100.146 153.897 100.207C153.913 100.268 153.916 100.333 153.904 100.395L153.777 101.341L154.55 100.751C154.599 100.714 154.655 100.688 154.714 100.674C154.773 100.66 154.835 100.659 154.895 100.671C154.955 100.683 155.011 100.708 155.06 100.744C155.11 100.78 155.151 100.825 155.181 100.878C155.212 100.931 155.232 100.99 155.238 101.051C155.244 101.112 155.238 101.174 155.218 101.232C155.199 101.29 155.168 101.344 155.126 101.389C155.085 101.434 155.034 101.47 154.978 101.494L154.088 101.865L154.978 102.237C155.034 102.26 155.085 102.295 155.126 102.34C155.167 102.385 155.199 102.438 155.218 102.496C155.237 102.553 155.244 102.615 155.238 102.675C155.231 102.736 155.212 102.795 155.181 102.847C155.15 102.899 155.109 102.943 155.06 102.978C155.011 103.013 154.955 103.037 154.896 103.049C154.838 103.061 154.777 103.06 154.718 103.047C154.659 103.035 154.604 103.01 154.556 102.974Z" fill="#263238"/>
<path d="M161.459 102.974L160.686 102.384L160.813 103.33C160.824 103.393 160.822 103.457 160.805 103.518C160.789 103.579 160.759 103.636 160.719 103.685C160.678 103.733 160.627 103.772 160.569 103.799C160.512 103.826 160.449 103.839 160.386 103.839C160.322 103.84 160.26 103.826 160.203 103.799C160.145 103.772 160.095 103.733 160.054 103.685C160.014 103.636 159.985 103.579 159.969 103.518C159.953 103.456 159.951 103.392 159.963 103.33L160.091 102.384L159.317 102.974C159.268 103.011 159.212 103.036 159.152 103.05C159.093 103.063 159.031 103.064 158.971 103.052C158.911 103.04 158.855 103.015 158.805 102.98C158.755 102.945 158.713 102.9 158.681 102.847C158.652 102.794 158.633 102.735 158.628 102.675C158.622 102.614 158.629 102.553 158.649 102.495C158.669 102.438 158.7 102.385 158.742 102.34C158.783 102.296 158.834 102.26 158.89 102.237L159.775 101.865L158.89 101.494C158.834 101.47 158.783 101.434 158.742 101.389C158.7 101.344 158.668 101.29 158.649 101.232C158.629 101.174 158.622 101.113 158.628 101.052C158.633 100.991 158.652 100.932 158.681 100.878C158.712 100.825 158.754 100.779 158.804 100.744C158.854 100.708 158.911 100.683 158.971 100.671C159.031 100.659 159.093 100.66 159.153 100.674C159.212 100.688 159.269 100.714 159.317 100.751L160.091 101.341L159.963 100.395C159.951 100.333 159.953 100.269 159.969 100.208C159.985 100.146 160.014 100.089 160.054 100.041C160.095 99.9919 160.145 99.9528 160.203 99.9261C160.26 99.8994 160.322 99.8858 160.386 99.8862C160.449 99.886 160.512 99.8996 160.569 99.9263C160.627 99.953 160.678 99.992 160.719 100.041C160.759 100.089 160.789 100.146 160.805 100.207C160.822 100.268 160.824 100.333 160.813 100.395L160.686 101.341L161.459 100.751C161.508 100.714 161.563 100.688 161.623 100.674C161.682 100.66 161.744 100.659 161.803 100.671C161.863 100.683 161.92 100.708 161.969 100.744C162.019 100.78 162.06 100.825 162.09 100.878C162.121 100.931 162.14 100.99 162.147 101.051C162.153 101.112 162.146 101.174 162.127 101.232C162.108 101.29 162.076 101.344 162.035 101.389C161.994 101.434 161.943 101.47 161.887 101.494L161.001 101.865L161.887 102.237C161.943 102.26 161.993 102.295 162.035 102.34C162.076 102.385 162.108 102.438 162.127 102.496C162.146 102.553 162.153 102.615 162.146 102.675C162.14 102.736 162.121 102.795 162.09 102.847C162.059 102.899 162.018 102.945 161.968 102.98C161.919 103.015 161.862 103.039 161.803 103.051C161.743 103.063 161.682 103.063 161.623 103.049C161.564 103.036 161.508 103.011 161.459 102.974Z" fill="#263238"/>
<path d="M168.363 102.974L167.59 102.384L167.717 103.33C167.729 103.392 167.727 103.456 167.711 103.518C167.696 103.579 167.666 103.636 167.626 103.685C167.586 103.733 167.535 103.772 167.478 103.799C167.42 103.826 167.358 103.84 167.294 103.839C167.231 103.84 167.168 103.827 167.11 103.801C167.052 103.774 167 103.735 166.959 103.687C166.918 103.638 166.889 103.581 166.873 103.519C166.857 103.457 166.855 103.393 166.867 103.33L166.994 102.384L166.221 102.974C166.172 103.011 166.117 103.036 166.057 103.049C165.998 103.063 165.937 103.063 165.877 103.051C165.818 103.039 165.761 103.015 165.712 102.98C165.663 102.945 165.621 102.899 165.59 102.847C165.559 102.795 165.54 102.736 165.534 102.675C165.527 102.615 165.534 102.553 165.553 102.496C165.573 102.438 165.604 102.385 165.645 102.34C165.687 102.295 165.737 102.26 165.794 102.237L166.679 101.865L165.794 101.494C165.737 101.47 165.687 101.434 165.645 101.389C165.604 101.344 165.572 101.29 165.553 101.232C165.534 101.174 165.527 101.112 165.534 101.051C165.54 100.99 165.559 100.931 165.59 100.878C165.62 100.825 165.662 100.78 165.711 100.744C165.761 100.708 165.817 100.683 165.877 100.671C165.936 100.659 165.998 100.66 166.058 100.674C166.117 100.688 166.173 100.714 166.221 100.751L166.994 101.341L166.867 100.395C166.855 100.332 166.857 100.268 166.873 100.206C166.889 100.145 166.918 100.087 166.959 100.039C167 99.9899 167.052 99.9509 167.11 99.9245C167.168 99.8981 167.231 99.885 167.294 99.8862C167.358 99.8858 167.42 99.8994 167.478 99.9261C167.535 99.9528 167.586 99.9919 167.626 100.041C167.666 100.089 167.696 100.146 167.711 100.208C167.727 100.269 167.729 100.333 167.717 100.395L167.59 101.341L168.363 100.751C168.411 100.714 168.467 100.688 168.526 100.674C168.586 100.66 168.647 100.659 168.707 100.671C168.767 100.683 168.823 100.708 168.873 100.744C168.922 100.78 168.963 100.825 168.994 100.878C169.024 100.932 169.042 100.991 169.048 101.052C169.053 101.113 169.046 101.174 169.026 101.232C169.007 101.29 168.975 101.344 168.933 101.389C168.892 101.434 168.841 101.47 168.785 101.494L167.9 101.865L168.785 102.237C168.841 102.26 168.892 102.295 168.933 102.34C168.975 102.385 169.006 102.438 169.025 102.496C169.045 102.553 169.051 102.615 169.045 102.675C169.039 102.736 169.019 102.795 168.989 102.847C168.958 102.899 168.916 102.943 168.867 102.978C168.818 103.013 168.763 103.037 168.704 103.049C168.645 103.061 168.584 103.06 168.525 103.047C168.467 103.035 168.411 103.01 168.363 102.974Z" fill="#263238"/>
<path d="M175.297 102.974L174.519 102.384L174.646 103.33C174.658 103.392 174.656 103.456 174.64 103.518C174.625 103.579 174.595 103.636 174.555 103.685C174.515 103.733 174.464 103.772 174.407 103.799C174.349 103.826 174.287 103.84 174.224 103.839C174.16 103.839 174.097 103.826 174.04 103.799C173.982 103.772 173.931 103.733 173.891 103.685C173.85 103.636 173.82 103.579 173.804 103.518C173.788 103.457 173.785 103.393 173.796 103.33L173.923 102.384L173.15 102.974C173.101 103.011 173.046 103.036 172.986 103.049C172.927 103.063 172.866 103.063 172.806 103.051C172.747 103.039 172.69 103.015 172.641 102.98C172.592 102.945 172.55 102.899 172.519 102.847C172.488 102.795 172.469 102.736 172.463 102.675C172.456 102.615 172.463 102.553 172.482 102.496C172.502 102.438 172.533 102.385 172.575 102.34C172.616 102.295 172.666 102.26 172.723 102.237L173.613 101.865L172.723 101.494C172.666 101.47 172.616 101.434 172.574 101.389C172.533 101.344 172.501 101.29 172.482 101.232C172.463 101.174 172.456 101.112 172.463 101.051C172.469 100.99 172.488 100.931 172.519 100.878C172.549 100.825 172.591 100.78 172.64 100.744C172.69 100.708 172.746 100.683 172.806 100.671C172.866 100.659 172.927 100.66 172.987 100.674C173.046 100.688 173.102 100.714 173.15 100.751L173.923 101.341L173.796 100.395C173.785 100.333 173.788 100.268 173.804 100.207C173.82 100.146 173.85 100.089 173.891 100.041C173.931 99.992 173.982 99.953 174.04 99.9263C174.097 99.8996 174.16 99.886 174.224 99.8862C174.287 99.8858 174.349 99.8994 174.407 99.9261C174.464 99.9528 174.515 99.9919 174.555 100.041C174.595 100.089 174.625 100.146 174.64 100.208C174.656 100.269 174.658 100.333 174.646 100.395L174.519 101.341L175.297 100.751C175.345 100.714 175.401 100.688 175.46 100.674C175.52 100.66 175.581 100.659 175.641 100.671C175.701 100.683 175.757 100.708 175.807 100.744C175.856 100.78 175.898 100.825 175.928 100.878C175.958 100.931 175.976 100.99 175.982 101.051C175.988 101.112 175.982 101.173 175.962 101.231C175.943 101.289 175.912 101.342 175.871 101.388C175.83 101.433 175.78 101.469 175.724 101.494L174.834 101.865L175.719 102.237C175.775 102.26 175.826 102.296 175.867 102.34C175.909 102.385 175.94 102.438 175.96 102.495C175.98 102.553 175.987 102.614 175.982 102.675C175.976 102.735 175.958 102.794 175.928 102.847C175.897 102.899 175.855 102.945 175.806 102.98C175.757 103.015 175.7 103.039 175.641 103.051C175.581 103.063 175.52 103.063 175.461 103.049C175.401 103.036 175.346 103.011 175.297 102.974Z" fill="#263238"/>
<path d="M182.175 102.974L181.402 102.384L181.529 103.33C181.54 103.393 181.538 103.457 181.521 103.518C181.505 103.579 181.475 103.636 181.434 103.685C181.394 103.733 181.343 103.772 181.285 103.799C181.228 103.826 181.165 103.839 181.102 103.839C181.038 103.839 180.976 103.826 180.918 103.799C180.861 103.772 180.81 103.733 180.769 103.685C180.728 103.636 180.698 103.579 180.682 103.518C180.666 103.457 180.663 103.393 180.674 103.33L180.802 102.384L180.028 102.974C179.98 103.011 179.924 103.036 179.865 103.049C179.805 103.063 179.744 103.063 179.684 103.051C179.625 103.039 179.569 103.015 179.519 102.98C179.47 102.945 179.428 102.899 179.397 102.847C179.367 102.795 179.347 102.736 179.341 102.675C179.335 102.615 179.341 102.553 179.361 102.496C179.38 102.438 179.411 102.385 179.453 102.34C179.494 102.295 179.545 102.26 179.601 102.237L180.491 101.865L179.601 101.494C179.545 101.47 179.494 101.434 179.452 101.389C179.411 101.344 179.38 101.29 179.36 101.232C179.341 101.174 179.334 101.112 179.341 101.051C179.347 100.99 179.366 100.931 179.397 100.878C179.428 100.825 179.469 100.78 179.518 100.744C179.568 100.708 179.624 100.683 179.684 100.671C179.744 100.659 179.805 100.66 179.865 100.674C179.924 100.688 179.98 100.714 180.028 100.751L180.802 101.341L180.674 100.395C180.663 100.333 180.666 100.268 180.682 100.207C180.698 100.146 180.728 100.089 180.769 100.041C180.81 99.992 180.861 99.953 180.918 99.9263C180.976 99.8997 181.038 99.886 181.102 99.8862C181.165 99.886 181.228 99.8997 181.285 99.9263C181.343 99.953 181.394 99.992 181.434 100.041C181.475 100.089 181.505 100.146 181.521 100.207C181.538 100.268 181.54 100.333 181.529 100.395L181.402 101.306L182.175 100.715C182.224 100.678 182.279 100.652 182.339 100.638C182.398 100.625 182.46 100.624 182.519 100.636C182.579 100.648 182.636 100.673 182.685 100.708C182.734 100.744 182.776 100.79 182.806 100.843C182.837 100.896 182.856 100.955 182.863 101.016C182.869 101.077 182.862 101.138 182.843 101.196C182.824 101.255 182.792 101.308 182.751 101.353C182.709 101.398 182.659 101.434 182.602 101.458L181.712 101.83L182.602 102.201C182.659 102.225 182.709 102.26 182.751 102.305C182.792 102.349 182.824 102.402 182.843 102.46C182.862 102.518 182.869 102.579 182.862 102.64C182.856 102.7 182.837 102.759 182.806 102.811C182.778 102.867 182.739 102.915 182.691 102.954C182.643 102.993 182.587 103.021 182.528 103.036C182.468 103.052 182.405 103.054 182.345 103.043C182.284 103.033 182.226 103.009 182.175 102.974Z" fill="#263238"/>
<path d="M193.718 101.845C193.718 101.845 192.309 103.6 190.574 103.6C188.84 103.6 187.435 101.845 187.435 101.845C187.435 101.845 188.84 100.085 190.559 100.085C192.279 100.085 193.718 101.845 193.718 101.845Z" fill="white" stroke="#263238" stroke-linecap="round" stroke-linejoin="round"/>
<path d="M191.658 101.845C191.659 102.059 191.596 102.269 191.478 102.448C191.359 102.627 191.191 102.767 190.993 102.85C190.795 102.932 190.577 102.955 190.366 102.913C190.156 102.872 189.962 102.769 189.81 102.618C189.658 102.467 189.554 102.274 189.512 102.063C189.47 101.853 189.491 101.635 189.573 101.436C189.655 101.238 189.794 101.069 189.972 100.949C190.15 100.83 190.36 100.766 190.574 100.766C190.717 100.766 190.857 100.793 190.989 100.847C191.12 100.901 191.24 100.98 191.34 101.08C191.441 101.181 191.521 101.3 191.575 101.431C191.63 101.562 191.658 101.703 191.658 101.845Z" fill="#999999" stroke="#263238" stroke-linecap="round" stroke-linejoin="round"/>
<path d="M181.595 148.853C181.595 148.853 175.77 160.884 170.652 154.779C165.534 148.674 174.183 146.385 174.183 146.385C174.183 146.385 163.764 147.616 163.764 141.969C163.764 136.322 171.181 139.853 171.181 139.853C171.181 139.853 161.546 132.339 166.236 129.169C169.502 126.961 177.357 134.933 177.357 134.933C177.357 134.933 174.356 127.139 177.866 126.961C181.376 126.783 183.696 138.088 183.696 138.088C183.696 138.088 185.635 129.76 189.165 132.156C192.696 134.552 186.393 143.801 186.393 143.801C186.393 143.801 190.931 139.319 192.167 142.498C193.403 145.678 186.393 147.794 186.393 147.794C186.393 147.794 186.342 159.45 182.46 158.035C178.578 156.621 181.595 148.853 181.595 148.853Z" fill="white"/>
<path d="M194.014 174.982C194.014 174.982 194.014 148.151 178.049 140.026" stroke="#263238" stroke-linecap="round" stroke-linejoin="round"/>
<path d="M183.757 144.309C183.757 144.309 179.301 145.103 174.269 150.577" stroke="#263238" stroke-linecap="round" stroke-linejoin="round"/>
<path d="M180.639 141.603C180.639 141.603 175.724 143.104 170.973 142.559" stroke="#263238" stroke-linecap="round" stroke-linejoin="round"/>
<path d="M182.023 142.676C184.318 141.139 186.13 138.981 187.247 136.455" stroke="#263238" stroke-linecap="round" stroke-linejoin="round"/>
<path d="M211.881 156.763C211.881 156.763 216.795 166.913 221.114 161.764C225.433 156.616 218.133 154.678 218.133 154.678C218.133 154.678 226.924 155.721 226.924 150.954C226.924 146.187 220.666 149.163 220.666 149.163C220.666 149.163 228.806 142.824 224.838 140.148C222.081 138.291 215.452 145.012 215.452 145.012C215.452 145.012 217.996 138.439 215.009 138.291C212.023 138.144 210.09 147.677 210.09 147.677C210.09 147.677 208.452 140.647 205.475 142.671C202.499 144.696 207.816 152.5 207.816 152.5C207.816 152.5 203.985 148.715 202.942 151.401C201.899 154.088 207.816 155.868 207.816 155.868C207.816 155.868 207.856 165.697 211.133 164.517C214.409 163.336 211.881 156.763 211.881 156.763Z" fill="white"/>
<path opacity="0.1" d="M211.881 156.763C211.881 156.763 216.795 166.913 221.114 161.764C225.433 156.616 218.133 154.678 218.133 154.678C218.133 154.678 226.924 155.721 226.924 150.954C226.924 146.187 220.666 149.163 220.666 149.163C220.666 149.163 228.806 142.824 224.838 140.148C222.081 138.291 215.452 145.012 215.452 145.012C215.452 145.012 217.996 138.439 215.009 138.291C212.023 138.144 210.09 147.677 210.09 147.677C210.09 147.677 208.452 140.647 205.475 142.671C202.499 144.696 207.816 152.5 207.816 152.5C207.816 152.5 203.985 148.715 202.942 151.401C201.899 154.088 207.816 155.868 207.816 155.868C207.816 155.868 207.856 165.697 211.133 164.517C214.409 163.336 211.881 156.763 211.881 156.763Z" fill="black"/>
<path d="M211.285 151.172C204.341 156.184 203.349 173.557 203.349 173.557" stroke="#263238" stroke-linecap="round" stroke-linejoin="round"/>
<path d="M209.235 153.187C212.037 154.267 214.561 155.964 216.617 158.152" stroke="#263238" stroke-linecap="round" stroke-linejoin="round"/>
<path d="M213.529 142.676C213.529 146.472 211.28 151.172 211.28 151.172L212.929 151.681" stroke="#263238" stroke-linecap="round" stroke-linejoin="round"/>
<path d="M214.287 152.088C214.287 152.088 218.474 153.024 221.648 152.088" stroke="#263238" stroke-linecap="round" stroke-linejoin="round"/>
<path d="M196.944 130.609C196.944 130.609 185.187 131.118 185.925 124.82C186.54 119.559 194.863 123.075 194.863 123.075C194.863 123.075 188.036 115.113 192.726 111.969C197.417 108.825 200.225 117.982 200.225 117.982C200.225 117.982 203.217 104.755 208.462 106.866C212.115 108.352 206.167 119.315 206.167 119.315C206.167 119.315 213.081 114.599 215.198 117.433C217.314 120.266 207.088 126.351 207.088 126.351C207.088 126.351 215.086 123.324 215.06 127.592C215.035 131.861 203.842 131.774 203.842 131.774C203.842 131.774 210.095 133.051 208.141 135.844C206.188 138.637 200.51 133.997 200.51 133.997C200.51 133.997 192.854 139.538 191.862 135.524C190.87 131.51 196.944 130.609 196.944 130.609Z" fill="white"/>
<path opacity="0.2" d="M196.944 130.609C196.944 130.609 185.187 131.118 185.925 124.82C186.54 119.559 194.863 123.075 194.863 123.075C194.863 123.075 188.036 115.113 192.726 111.969C197.417 108.825 200.225 117.982 200.225 117.982C200.225 117.982 203.217 104.755 208.462 106.866C212.115 108.352 206.167 119.315 206.167 119.315C206.167 119.315 213.081 114.599 215.198 117.433C217.314 120.266 207.088 126.351 207.088 126.351C207.088 126.351 215.086 123.324 215.06 127.592C215.035 131.861 203.842 131.774 203.842 131.774C203.842 131.774 210.095 133.051 208.141 135.844C206.188 138.637 200.51 133.997 200.51 133.997C200.51 133.997 192.854 139.538 191.862 135.524C190.87 131.51 196.944 130.609 196.944 130.609Z" fill="white"/>
<path d="M198.567 174.981C198.567 174.981 196.69 141.771 203.344 119.529" stroke="#263238" stroke-linecap="round" stroke-linejoin="round"/>
<path d="M190.401 125.593C190.401 125.593 195.357 125.176 201.212 128.391" stroke="#263238" stroke-linecap="round" stroke-linejoin="round"/>
<path d="M194.522 115.133C194.522 115.133 199.477 119.987 201.497 126.961" stroke="#263238" stroke-linecap="round" stroke-linejoin="round"/>
<path d="M201.94 124.906C201.94 124.906 205.16 121.345 209.235 120.429" stroke="#263238" stroke-linecap="round" stroke-linejoin="round"/>
<path d="M211.179 171.695H185.858L187.893 194.655C187.915 194.896 188.026 195.121 188.205 195.285C188.384 195.448 188.618 195.539 188.86 195.54L189.369 201.212C189.392 201.454 189.504 201.679 189.683 201.843C189.863 202.006 190.097 202.097 190.34 202.097H206.696C206.939 202.097 207.173 202.006 207.352 201.842C207.53 201.679 207.642 201.454 207.663 201.212L208.172 195.54C208.415 195.54 208.649 195.449 208.829 195.285C209.009 195.121 209.121 194.897 209.144 194.655L211.179 171.695Z" fill="white" stroke="#263238" stroke-linecap="round" stroke-linejoin="round"/>
<path d="M211.341 173.572H185.696C185.216 173.571 184.756 173.38 184.416 173.04C184.077 172.701 183.886 172.241 183.885 171.761C183.886 171.281 184.077 170.821 184.416 170.482C184.756 170.143 185.216 169.951 185.696 169.95H211.341C211.821 169.951 212.28 170.143 212.619 170.482C212.957 170.822 213.147 171.282 213.147 171.761C213.147 172.241 212.957 172.701 212.619 173.04C212.28 173.38 211.821 173.571 211.341 173.572Z" fill="#263238" stroke="#263238" stroke-linecap="round" stroke-linejoin="round"/>
<path d="M203.502 195.611H205.18" stroke="#263238" stroke-linecap="round" stroke-linejoin="round"/>
<path d="M191.851 195.611H201.818" stroke="#263238" stroke-linecap="round" stroke-linejoin="round"/>
<path d="M142.361 6.84766H135.427V139.466H142.361C143.465 139.465 144.524 139.025 145.304 138.244C146.084 137.463 146.523 136.404 146.523 135.3V11.0142C146.523 9.91008 146.084 8.85106 145.304 8.06982C144.524 7.28858 143.465 6.849 142.361 6.84766Z" fill="#999999" stroke="#263238" stroke-linecap="round" stroke-linejoin="round"/>
<path d="M140.489 6.84766H80.1471C78.0398 6.84766 76.3315 8.55594 76.3315 10.6632V135.651C76.3315 137.758 78.0398 139.466 80.1471 139.466H140.489C142.596 139.466 144.304 137.758 144.304 135.651V10.6632C144.304 8.55594 142.596 6.84766 140.489 6.84766Z" fill="#263238" stroke="#263238" stroke-linecap="round" stroke-linejoin="round"/>
<path d="M122.088 12.6829C121.99 13.4955 121.598 14.2441 120.986 14.7876C120.374 15.3312 119.584 15.6321 118.766 15.6336H101.295C100.476 15.6344 99.6843 15.3345 99.0711 14.7906C98.4578 14.2468 98.0654 13.4968 97.9683 12.6829C97.8655 11.8745 97.4713 11.1314 96.8597 10.5928C96.2481 10.0543 95.4611 9.75735 94.6462 9.75767H82.3601C81.4749 9.75766 80.6258 10.1082 79.9984 10.7327C79.3711 11.3572 79.0166 12.2048 79.0126 13.0899V133.209C79.0139 134.096 79.367 134.947 79.9945 135.574C80.622 136.202 81.4727 136.555 82.3601 136.556H138.276C139.164 136.556 140.015 136.204 140.643 135.576C141.271 134.948 141.623 134.097 141.623 133.209V13.0899C141.624 12.6501 141.538 12.2145 141.37 11.8081C141.202 11.4016 140.955 11.0324 140.644 10.7214C140.333 10.4104 139.964 10.1638 139.558 9.99586C139.151 9.82786 138.716 9.74174 138.276 9.74241H125.41C124.593 9.74255 123.804 10.0416 123.192 10.5833C122.58 11.125 122.187 11.8718 122.088 12.6829Z" fill="white"/>
<path d="M122.088 12.6829C121.99 13.4955 121.598 14.2441 120.986 14.7876C120.374 15.3312 119.584 15.6321 118.766 15.6336H101.295C100.476 15.6344 99.6843 15.3345 99.0711 14.7906C98.4578 14.2468 98.0654 13.4968 97.9683 12.6829V12.6829C97.8655 11.8745 97.4713 11.1314 96.8597 10.5928C96.2481 10.0543 95.4611 9.75735 94.6462 9.75767H82.3601C81.4749 9.75766 80.6258 10.1082 79.9984 10.7327C79.3711 11.3572 79.0166 12.2048 79.0126 13.0899V133.209C79.0139 134.096 79.367 134.947 79.9945 135.574C80.622 136.202 81.4727 136.555 82.3601 136.556H138.276C139.164 136.556 140.015 136.204 140.643 135.576C141.271 134.948 141.623 134.097 141.623 133.209V13.0899C141.624 12.6501 141.538 12.2145 141.37 11.8081C141.202 11.4016 140.955 11.0324 140.644 10.7214C140.333 10.4104 139.964 10.1638 139.558 9.99586C139.151 9.82786 138.716 9.74174 138.276 9.74241H125.41C124.593 9.74255 123.804 10.0416 123.192 10.5833C122.58 11.125 122.187 11.8718 122.088 12.6829V12.6829Z" stroke="#263238" stroke-linecap="round" stroke-linejoin="round"/>
<path d="M104.307 11.4772C104.307 11.7791 104.218 12.0741 104.05 12.3251C103.882 12.5761 103.644 12.7717 103.365 12.8873C103.086 13.0028 102.779 13.033 102.483 12.9741C102.187 12.9152 101.915 12.7699 101.702 12.5564C101.488 12.343 101.343 12.071 101.284 11.775C101.225 11.4789 101.255 11.172 101.371 10.8932C101.486 10.6143 101.682 10.3759 101.933 10.2082C102.184 10.0405 102.479 9.95099 102.781 9.95099C103.186 9.95099 103.574 10.1118 103.86 10.398C104.146 10.6842 104.307 11.0724 104.307 11.4772Z" fill="white" stroke="#263238" stroke-linecap="round" stroke-linejoin="round"/>
<path d="M116.375 9.99677H108.652C108.259 9.99677 107.883 10.1527 107.605 10.4304C107.327 10.708 107.171 11.0846 107.171 11.4772C107.171 11.8698 107.327 12.2464 107.605 12.524C107.883 12.8017 108.259 12.9576 108.652 12.9576H116.375C116.767 12.9576 117.144 12.8017 117.421 12.524C117.699 12.2464 117.855 11.8698 117.855 11.4772C117.855 11.0846 117.699 10.708 117.421 10.4304C117.144 10.1527 116.767 9.99677 116.375 9.99677Z" fill="#999999" stroke="#263238" stroke-linecap="round" stroke-linejoin="round"/>
<path d="M117.3 130.034H102.455C102.051 130.034 101.662 130.195 101.376 130.481C101.09 130.767 100.929 131.156 100.929 131.56C100.929 131.965 101.09 132.353 101.376 132.64C101.662 132.926 102.051 133.087 102.455 133.087H117.3C117.705 133.087 118.093 132.926 118.38 132.64C118.666 132.353 118.827 131.965 118.827 131.56C118.827 131.156 118.666 130.767 118.38 130.481C118.093 130.195 117.705 130.034 117.3 130.034Z" fill="#999999" stroke="#263238" stroke-linecap="round" stroke-linejoin="round"/>
<path d="M147.281 40.5975V30.6771C147.281 30.4572 147.193 30.2462 147.038 30.0907C146.882 29.9352 146.671 29.8478 146.451 29.8478C146.231 29.8478 146.02 29.9352 145.865 30.0907C145.709 30.2462 145.622 30.4572 145.622 30.6771V40.5975C145.622 40.8175 145.709 41.0284 145.865 41.1839C146.02 41.3394 146.231 41.4268 146.451 41.4268C146.671 41.4268 146.882 41.3394 147.038 41.1839C147.193 41.0284 147.281 40.8175 147.281 40.5975Z" fill="#263238"/>
<path d="M147.281 47.9641V44.6624C147.281 44.4424 147.193 44.2315 147.038 44.076C146.882 43.9205 146.671 43.8331 146.451 43.8331C146.231 43.8331 146.02 43.9205 145.865 44.076C145.709 44.2315 145.622 44.4424 145.622 44.6624V47.9641C145.622 48.184 145.709 48.395 145.865 48.5505C146.02 48.706 146.231 48.7934 146.451 48.7934C146.671 48.7934 146.882 48.706 147.038 48.5505C147.193 48.395 147.281 48.184 147.281 47.9641Z" fill="#263238"/>
<path d="M148.822 55.2798H73.9811V72.1395H148.822V55.2798Z" fill="white" stroke="#263238" stroke-linecap="round" stroke-linejoin="round"/>
<path d="M83.0266 65.4902L81.8158 64.5694L82.0142 66.0499C82.0272 66.1446 82.0199 66.241 81.9927 66.3326C81.9655 66.4242 81.919 66.509 81.8564 66.5813C81.7938 66.6535 81.7165 66.7115 81.6296 66.7515C81.5428 66.7915 81.4484 66.8124 81.3528 66.813C81.2568 66.8131 81.1619 66.7927 81.0744 66.7531C80.987 66.7134 80.909 66.6555 80.8458 66.5832C80.7827 66.5108 80.7358 66.4258 80.7083 66.3338C80.6807 66.2418 80.6733 66.145 80.6864 66.0499L80.8848 64.5694L79.6536 65.4902C79.5781 65.548 79.4912 65.5891 79.3986 65.6107C79.306 65.6323 79.2099 65.6341 79.1166 65.6158C79.0233 65.5975 78.935 65.5597 78.8574 65.5047C78.7798 65.4497 78.7148 65.3789 78.6667 65.2969V65.2664C78.6187 65.1839 78.5889 65.0921 78.5793 64.9971C78.5696 64.9021 78.5803 64.8062 78.6106 64.7157C78.6409 64.6252 78.6902 64.5422 78.7551 64.4722C78.8201 64.4023 78.8992 64.3469 78.9872 64.31L80.376 63.73L78.9872 63.1449C78.8992 63.108 78.8201 63.0527 78.7551 62.9827C78.6902 62.9127 78.6409 62.8297 78.6106 62.7392C78.5803 62.6487 78.5696 62.5528 78.5793 62.4578C78.5889 62.3629 78.6187 62.271 78.6667 62.1885V62.1631C78.7113 62.0779 78.7736 62.0032 78.8496 61.9442C78.9255 61.8852 79.0132 61.8431 79.1068 61.8209C79.2004 61.7988 79.2976 61.7969 79.392 61.8156C79.4863 61.8342 79.5755 61.8729 79.6536 61.9291L80.8644 62.8499L80.666 61.3694C80.6529 61.2746 80.6603 61.178 80.6878 61.0862C80.7154 60.9945 80.7624 60.9097 80.8256 60.8378C80.8889 60.7658 80.9669 60.7084 81.0544 60.6693C81.1418 60.6303 81.2367 60.6105 81.3325 60.6114C81.4278 60.6112 81.5221 60.6315 81.609 60.6709C81.6958 60.7103 81.7732 60.7679 81.8359 60.8397C81.8986 60.9116 81.9451 60.996 81.9724 61.0874C81.9996 61.1788 82.007 61.275 81.9938 61.3694L81.7954 62.8499L83.0062 61.9291C83.0821 61.8715 83.1693 61.8308 83.2621 61.8095C83.3549 61.7882 83.4511 61.7869 83.5445 61.8057C83.6378 61.8245 83.7261 61.8629 83.8034 61.9183C83.8808 61.9738 83.9455 62.0451 83.9932 62.1275V62.1529C84.0411 62.2354 84.071 62.3272 84.0806 62.4222C84.0903 62.5172 84.0796 62.6131 84.0493 62.7036C84.0189 62.7941 83.9697 62.8771 83.9047 62.9471C83.8398 63.017 83.7607 63.0724 83.6727 63.1093L82.2838 63.6944L83.6727 64.2744C83.7607 64.3113 83.8398 64.3666 83.9047 64.4366C83.9697 64.5066 84.0189 64.5896 84.0493 64.6801C84.0796 64.7706 84.0903 64.8665 84.0806 64.9615C84.071 65.0564 84.0411 65.1483 83.9932 65.2308V65.2613C83.9479 65.3431 83.886 65.4146 83.8115 65.4711C83.737 65.5276 83.6515 65.5679 83.5605 65.5894C83.4695 65.611 83.375 65.6133 83.2831 65.5962C83.1911 65.5791 83.1038 65.543 83.0266 65.4902Z" fill="#263238"/>
<path d="M93.817 65.4903L92.6062 64.5694L92.8046 66.0499C92.8168 66.1449 92.8088 66.2414 92.7809 66.333C92.7531 66.4246 92.7061 66.5093 92.6431 66.5814C92.5801 66.6536 92.5025 66.7115 92.4155 66.7514C92.3284 66.7913 92.2339 66.8123 92.1381 66.813C92.0425 66.8124 91.9482 66.7915 91.8613 66.7515C91.7745 66.7115 91.6972 66.6535 91.6345 66.5813C91.5719 66.509 91.5255 66.4242 91.4983 66.3326C91.4711 66.241 91.4637 66.1446 91.4768 66.0499L91.6701 64.5694L90.4644 65.4903C90.3888 65.548 90.3019 65.5891 90.2093 65.6107C90.1168 65.6324 90.0207 65.6341 89.9274 65.6158C89.8341 65.5975 89.7457 65.5597 89.6681 65.5047C89.5906 65.4497 89.5256 65.3789 89.4774 65.2969V65.2664C89.4295 65.1839 89.3997 65.0921 89.39 64.9971C89.3803 64.9021 89.391 64.8062 89.4213 64.7157C89.4517 64.6252 89.5009 64.5422 89.5659 64.4722C89.6308 64.4023 89.7099 64.3469 89.7979 64.31L91.1817 63.73L89.7979 63.145C89.7099 63.108 89.6308 63.0527 89.5659 62.9827C89.5009 62.9127 89.4517 62.8297 89.4213 62.7392C89.391 62.6487 89.3803 62.5528 89.39 62.4578C89.3997 62.3629 89.4295 62.2711 89.4774 62.1885V62.1631C89.5251 62.0807 89.5898 62.0094 89.6672 61.9539C89.7445 61.8985 89.8328 61.8601 89.9261 61.8413C90.0195 61.8226 90.1157 61.8239 90.2085 61.8451C90.3013 61.8664 90.3885 61.9071 90.4644 61.9647L91.6701 62.8855L91.4768 61.4051C91.4637 61.3106 91.471 61.2144 91.4982 61.1231C91.5255 61.0317 91.572 60.9472 91.6347 60.8753C91.6974 60.8035 91.7748 60.7459 91.8616 60.7065C91.9485 60.6672 92.0428 60.6469 92.1381 60.647C92.2337 60.647 92.3281 60.6673 92.4152 60.7066C92.5022 60.746 92.5799 60.8034 92.643 60.8752C92.706 60.9469 92.7531 61.0313 92.781 61.1227C92.8088 61.2141 92.8169 61.3103 92.8046 61.4051L92.6062 62.8855L93.817 61.9647C93.8924 61.9072 93.9792 61.8665 94.0716 61.8453C94.164 61.8241 94.2599 61.8228 94.3528 61.8416C94.4458 61.8604 94.5336 61.8988 94.6105 61.9542C94.6874 62.0096 94.7516 62.0809 94.7988 62.1631V62.1885C94.8468 62.2711 94.8766 62.3629 94.8863 62.4578C94.8959 62.5528 94.8852 62.6487 94.8549 62.7392C94.8246 62.8297 94.7753 62.9127 94.7104 62.9827C94.6454 63.0527 94.5663 63.108 94.4783 63.145L93.0895 63.73L94.4783 64.31C94.5663 64.3469 94.6454 64.4023 94.7104 64.4722C94.7753 64.5422 94.8246 64.6252 94.8549 64.7157C94.8852 64.8062 94.8959 64.9021 94.8863 64.9971C94.8766 65.0921 94.8468 65.1839 94.7988 65.2664V65.2969C94.7512 65.3788 94.6867 65.4495 94.6096 65.5044C94.5324 65.5594 94.4445 65.5973 94.3516 65.6156C94.2587 65.6339 94.163 65.6321 94.0708 65.6105C93.9786 65.5889 93.8921 65.5479 93.817 65.4903Z" fill="#263238"/>
<path d="M104.582 65.4903L103.376 64.5694L103.575 66.0499C103.587 66.1449 103.579 66.2414 103.551 66.333C103.523 66.4246 103.476 66.5093 103.413 66.5814C103.35 66.6536 103.273 66.7115 103.186 66.7514C103.098 66.7913 103.004 66.8123 102.908 66.813C102.812 66.8123 102.718 66.7913 102.631 66.7514C102.544 66.7115 102.466 66.6536 102.403 66.5814C102.34 66.5093 102.293 66.4246 102.265 66.333C102.238 66.2414 102.229 66.1449 102.242 66.0499L102.44 64.5694L101.255 65.4903C101.179 65.548 101.092 65.5891 101 65.6107C100.907 65.6324 100.811 65.6341 100.718 65.6158C100.624 65.5975 100.536 65.5597 100.459 65.5047C100.381 65.4497 100.316 65.3789 100.268 65.2969V65.2664C100.22 65.1839 100.19 65.0921 100.18 64.9971C100.171 64.9021 100.181 64.8062 100.212 64.7157C100.242 64.6252 100.291 64.5422 100.356 64.4722C100.421 64.4023 100.5 64.3469 100.588 64.31L101.977 63.73L100.588 63.145C100.5 63.108 100.421 63.0527 100.356 62.9827C100.291 62.9127 100.242 62.8297 100.212 62.7392C100.181 62.6487 100.171 62.5528 100.18 62.4578C100.19 62.3629 100.22 62.2711 100.268 62.1885V62.1631C100.316 62.0807 100.38 62.0094 100.458 61.9539C100.535 61.8985 100.623 61.8601 100.717 61.8413C100.81 61.8226 100.906 61.8238 100.999 61.8451C101.092 61.8664 101.179 61.9071 101.255 61.9647L102.46 62.8855L102.262 61.4051C102.25 61.3103 102.258 61.2141 102.286 61.1227C102.314 61.0313 102.361 60.9469 102.424 60.8752C102.487 60.8034 102.564 60.746 102.651 60.7066C102.739 60.6673 102.833 60.647 102.929 60.647C103.024 60.647 103.119 60.6673 103.206 60.7066C103.293 60.746 103.37 60.8034 103.433 60.8752C103.496 60.9469 103.543 61.0313 103.571 61.1227C103.599 61.2141 103.607 61.3103 103.595 61.4051L103.397 62.8855L104.582 61.9291C104.658 61.8715 104.745 61.8308 104.838 61.8095C104.931 61.7882 105.027 61.7869 105.12 61.8057C105.213 61.8245 105.302 61.8629 105.379 61.9183C105.456 61.9738 105.521 62.0451 105.569 62.1275V62.1529C105.618 62.2349 105.649 62.3265 105.659 62.4214C105.669 62.5164 105.659 62.6124 105.63 62.7031C105.6 62.7938 105.551 62.877 105.486 62.9471C105.421 63.0172 105.342 63.0725 105.253 63.1093L103.865 63.6944L105.248 64.2744C105.336 64.3113 105.415 64.3667 105.48 64.4366C105.545 64.5066 105.595 64.5896 105.625 64.6801C105.655 64.7706 105.666 64.8665 105.656 64.9615C105.647 65.0564 105.617 65.1483 105.569 65.2308V65.2613C105.524 65.3461 105.461 65.4203 105.385 65.4788C105.309 65.5373 105.221 65.5788 105.128 65.6005C105.034 65.6222 104.937 65.6236 104.843 65.6046C104.749 65.5856 104.66 65.5466 104.582 65.4903Z" fill="#263238"/>
<path d="M115.393 65.4903L114.182 64.5694L114.38 66.0499C114.393 66.1446 114.386 66.241 114.359 66.3326C114.332 66.4242 114.285 66.509 114.222 66.5813C114.16 66.6535 114.083 66.7115 113.996 66.7515C113.909 66.7915 113.814 66.8124 113.719 66.813C113.623 66.8131 113.528 66.7927 113.44 66.7531C113.353 66.7134 113.275 66.6555 113.212 66.5832C113.149 66.5108 113.102 66.4258 113.074 66.3338C113.047 66.2418 113.039 66.145 113.052 66.0499L113.251 64.5694L112.04 65.4903C111.965 65.548 111.878 65.5891 111.785 65.6107C111.692 65.6324 111.596 65.6341 111.503 65.6158C111.41 65.5975 111.321 65.5597 111.244 65.5047C111.166 65.4497 111.101 65.3789 111.053 65.2969V65.2664C111.005 65.1839 110.975 65.0921 110.966 64.9971C110.956 64.9021 110.967 64.8062 110.997 64.7157C111.027 64.6252 111.077 64.5422 111.142 64.4722C111.206 64.4023 111.286 64.3469 111.374 64.31L112.762 63.73L111.374 63.145C111.286 63.108 111.206 63.0527 111.142 62.9827C111.077 62.9127 111.027 62.8297 110.997 62.7392C110.967 62.6487 110.956 62.5528 110.966 62.4578C110.975 62.3629 111.005 62.2711 111.053 62.1885V62.1631C111.101 62.0807 111.166 62.0094 111.243 61.9539C111.32 61.8985 111.409 61.8601 111.502 61.8413C111.595 61.8226 111.691 61.8238 111.784 61.8451C111.877 61.8664 111.964 61.9071 112.04 61.9647L113.251 62.8855L113.052 61.4051C113.039 61.3102 113.047 61.2136 113.074 61.1218C113.102 61.0301 113.149 60.9454 113.212 60.8734C113.275 60.8015 113.353 60.744 113.441 60.7049C113.528 60.6659 113.623 60.6461 113.719 60.647C113.814 60.6469 113.909 60.6671 113.995 60.7065C114.082 60.7459 114.16 60.8035 114.222 60.8753C114.285 60.9472 114.332 61.0317 114.359 61.1231C114.386 61.2144 114.393 61.3106 114.38 61.4051L114.182 62.8855L115.393 61.9647C115.469 61.9071 115.556 61.8664 115.649 61.8451C115.741 61.8238 115.838 61.8226 115.931 61.8413C116.024 61.8601 116.112 61.8985 116.19 61.9539C116.267 62.0094 116.332 62.0807 116.38 62.1631V62.1885C116.428 62.2711 116.457 62.3629 116.467 62.4578C116.477 62.5528 116.466 62.6487 116.436 62.7392C116.405 62.8297 116.356 62.9127 116.291 62.9827C116.226 63.0527 116.147 63.108 116.059 63.145L114.675 63.73L116.059 64.31C116.147 64.3469 116.226 64.4023 116.291 64.4722C116.356 64.5422 116.405 64.6252 116.436 64.7157C116.466 64.8062 116.477 64.9021 116.467 64.9971C116.457 65.0921 116.428 65.1839 116.38 65.2664V65.2969C116.331 65.3789 116.266 65.4497 116.189 65.5047C116.111 65.5597 116.023 65.5975 115.93 65.6158C115.836 65.6341 115.74 65.6324 115.648 65.6107C115.555 65.5891 115.468 65.548 115.393 65.4903Z" fill="#263238"/>
<path d="M126.183 65.4903L124.972 64.5694L125.171 66.0499C125.183 66.1449 125.175 66.2414 125.147 66.333C125.119 66.4246 125.072 66.5093 125.009 66.5814C124.946 66.6536 124.869 66.7115 124.782 66.7514C124.695 66.7913 124.6 66.8123 124.504 66.813C124.409 66.8124 124.314 66.7915 124.227 66.7515C124.141 66.7115 124.063 66.6535 124.001 66.5813C123.938 66.509 123.892 66.4242 123.864 66.3326C123.837 66.241 123.83 66.1446 123.843 66.0499L124.036 64.5694L122.83 65.4903C122.755 65.548 122.668 65.5891 122.575 65.6107C122.483 65.6324 122.387 65.6341 122.293 65.6158C122.2 65.5975 122.112 65.5597 122.034 65.5047C121.957 65.4497 121.892 65.3789 121.844 65.2969V65.2664C121.796 65.1839 121.766 65.0921 121.756 64.9971C121.746 64.9021 121.757 64.8062 121.787 64.7157C121.818 64.6252 121.867 64.5422 121.932 64.4722C121.997 64.4023 122.076 64.3469 122.164 64.31L123.548 63.73L122.164 63.145C122.076 63.108 121.997 63.0527 121.932 62.9827C121.867 62.9127 121.818 62.8297 121.787 62.7392C121.757 62.6487 121.746 62.5528 121.756 62.4578C121.766 62.3629 121.796 62.2711 121.844 62.1885V62.1631C121.891 62.0807 121.956 62.0094 122.033 61.9539C122.111 61.8985 122.199 61.8601 122.292 61.8413C122.386 61.8226 122.482 61.8239 122.575 61.8451C122.667 61.8664 122.755 61.9071 122.83 61.9647L124.036 62.8855L123.843 61.4051C123.83 61.3106 123.837 61.2144 123.864 61.1231C123.892 61.0317 123.938 60.9472 124.001 60.8753C124.064 60.8035 124.141 60.7459 124.228 60.7065C124.315 60.6672 124.409 60.6469 124.504 60.647C124.6 60.647 124.694 60.6673 124.781 60.7066C124.868 60.746 124.946 60.8034 125.009 60.8752C125.072 60.9469 125.119 61.0313 125.147 61.1227C125.175 61.2141 125.183 61.3103 125.171 61.4051L124.972 62.8855L126.183 61.9647C126.258 61.9072 126.345 61.8665 126.438 61.8453C126.53 61.8241 126.626 61.8228 126.719 61.8416C126.812 61.8604 126.9 61.8988 126.977 61.9542C127.054 62.0096 127.118 62.0809 127.165 62.1631V62.1885C127.213 62.2711 127.243 62.3629 127.252 62.4578C127.262 62.5528 127.251 62.6487 127.221 62.7392C127.191 62.8297 127.141 62.9127 127.076 62.9827C127.012 63.0527 126.932 63.108 126.844 63.145L125.456 63.73L126.844 64.31C126.932 64.3469 127.012 64.4023 127.076 64.4722C127.141 64.5422 127.191 64.6252 127.221 64.7157C127.251 64.8062 127.262 64.9021 127.252 64.9971C127.243 65.0921 127.213 65.1839 127.165 65.2664V65.2969C127.117 65.3788 127.053 65.4495 126.976 65.5044C126.899 65.5594 126.811 65.5973 126.718 65.6156C126.625 65.6339 126.529 65.6321 126.437 65.6105C126.345 65.5889 126.258 65.5479 126.183 65.4903Z" fill="#263238"/>
<path d="M144.218 63.7097C144.218 63.7097 142.02 66.4518 139.309 66.4518C136.597 66.4518 134.404 63.7097 134.404 63.7097C134.404 63.7097 136.597 60.9625 139.309 60.9625C142.02 60.9625 144.218 63.7097 144.218 63.7097Z" fill="white" stroke="#263238" stroke-linecap="round" stroke-linejoin="round"/>
<path d="M140.998 63.7097C140.998 64.0437 140.899 64.3703 140.713 64.648C140.527 64.9258 140.264 65.1423 139.955 65.2701C139.646 65.3979 139.307 65.4314 138.979 65.3662C138.651 65.3011 138.35 65.1402 138.114 64.904C137.878 64.6678 137.717 64.3668 137.652 64.0392C137.587 63.7115 137.62 63.3719 137.748 63.0633C137.876 62.7547 138.092 62.4909 138.37 62.3053C138.648 62.1197 138.975 62.0206 139.309 62.0206C139.757 62.0206 140.186 62.1986 140.503 62.5153C140.82 62.8321 140.998 63.2617 140.998 63.7097Z" fill="#999999" stroke="#263238" stroke-linecap="round" stroke-linejoin="round"/>
<path d="M88.5515 80.5591H84.0898C82.9744 80.5591 82.0701 81.4634 82.0701 82.5788V88.3276C82.0701 89.4431 82.9744 90.3473 84.0898 90.3473H88.5515C89.6669 90.3473 90.5712 89.4431 90.5712 88.3276V82.5788C90.5712 81.4634 89.6669 80.5591 88.5515 80.5591Z" fill="white" stroke="#263238" stroke-linecap="round" stroke-linejoin="round"/>
<path d="M98.0293 80.5591H93.5677C92.4522 80.5591 91.548 81.4634 91.548 82.5788V88.3276C91.548 89.4431 92.4522 90.3473 93.5677 90.3473H98.0293C99.1448 90.3473 100.049 89.4431 100.049 88.3276V82.5788C100.049 81.4634 99.1448 80.5591 98.0293 80.5591Z" fill="white" stroke="#263238" stroke-linecap="round" stroke-linejoin="round"/>
<path d="M107.507 80.5591H103.046C101.93 80.5591 101.026 81.4634 101.026 82.5788V88.3276C101.026 89.4431 101.93 90.3473 103.046 90.3473H107.507C108.623 90.3473 109.527 89.4431 109.527 88.3276V82.5788C109.527 81.4634 108.623 80.5591 107.507 80.5591Z" fill="white" stroke="#263238" stroke-linecap="round" stroke-linejoin="round"/>
<path d="M116.985 80.5591H112.523C111.408 80.5591 110.504 81.4634 110.504 82.5788V88.3276C110.504 89.4431 111.408 90.3473 112.523 90.3473H116.985C118.1 90.3473 119.005 89.4431 119.005 88.3276V82.5788C119.005 81.4634 118.1 80.5591 116.985 80.5591Z" fill="white" stroke="#263238" stroke-linecap="round" stroke-linejoin="round"/>
<path d="M126.468 80.5591H122.006C120.891 80.5591 119.987 81.4634 119.987 82.5788V88.3276C119.987 89.4431 120.891 90.3473 122.006 90.3473H126.468C127.583 90.3473 128.488 89.4431 128.488 88.3276V82.5788C128.488 81.4634 127.583 80.5591 126.468 80.5591Z" fill="white" stroke="#263238" stroke-linecap="round" stroke-linejoin="round"/>
<path d="M135.946 80.5591H131.484C130.369 80.5591 129.464 81.4634 129.464 82.5788V88.3276C129.464 89.4431 130.369 90.3473 131.484 90.3473H135.946C137.061 90.3473 137.966 89.4431 137.966 88.3276V82.5788C137.966 81.4634 137.061 80.5591 135.946 80.5591Z" fill="white" stroke="#263238" stroke-linecap="round" stroke-linejoin="round"/>
<path d="M93.2879 91.9041H88.8262C87.7108 91.9041 86.8065 92.8083 86.8065 93.9238V99.6726C86.8065 100.788 87.7108 101.692 88.8262 101.692H93.2879C94.4033 101.692 95.3076 100.788 95.3076 99.6726V93.9238C95.3076 92.8083 94.4033 91.9041 93.2879 91.9041Z" fill="white" stroke="#263238" stroke-linecap="round" stroke-linejoin="round"/>
<path d="M102.766 91.9041H98.3041C97.1886 91.9041 96.2844 92.8083 96.2844 93.9238V99.6726C96.2844 100.788 97.1886 101.692 98.3041 101.692H102.766C103.881 101.692 104.785 100.788 104.785 99.6726V93.9238C104.785 92.8083 103.881 91.9041 102.766 91.9041Z" fill="white" stroke="#263238" stroke-linecap="round" stroke-linejoin="round"/>
<path d="M112.249 91.9041H107.787C106.672 91.9041 105.767 92.8083 105.767 93.9238V99.6726C105.767 100.788 106.672 101.692 107.787 101.692H112.249C113.364 101.692 114.268 100.788 114.268 99.6726V93.9238C114.268 92.8083 113.364 91.9041 112.249 91.9041Z" fill="white" stroke="#263238" stroke-linecap="round" stroke-linejoin="round"/>
<path d="M121.726 91.9041H117.265C116.149 91.9041 115.245 92.8083 115.245 93.9238V99.6726C115.245 100.788 116.149 101.692 117.265 101.692H121.726C122.842 101.692 123.746 100.788 123.746 99.6726V93.9238C123.746 92.8083 122.842 91.9041 121.726 91.9041Z" fill="white" stroke="#263238" stroke-linecap="round" stroke-linejoin="round"/>
<path d="M131.204 91.9041H126.743C125.627 91.9041 124.723 92.8083 124.723 93.9238V99.6726C124.723 100.788 125.627 101.692 126.743 101.692H131.204C132.32 101.692 133.224 100.788 133.224 99.6726V93.9238C133.224 92.8083 132.32 91.9041 131.204 91.9041Z" fill="white" stroke="#263238" stroke-linecap="round" stroke-linejoin="round"/>
<path d="M88.5515 103.249H84.0898C82.9744 103.249 82.0701 104.153 82.0701 105.269V111.018C82.0701 112.133 82.9744 113.037 84.0898 113.037H88.5515C89.6669 113.037 90.5712 112.133 90.5712 111.018V105.269C90.5712 104.153 89.6669 103.249 88.5515 103.249Z" fill="white" stroke="#263238" stroke-linecap="round" stroke-linejoin="round"/>
<path d="M98.0293 103.249H93.5677C92.4522 103.249 91.548 104.153 91.548 105.269V111.018C91.548 112.133 92.4522 113.037 93.5677 113.037H98.0293C99.1448 113.037 100.049 112.133 100.049 111.018V105.269C100.049 104.153 99.1448 103.249 98.0293 103.249Z" fill="white" stroke="#263238" stroke-linecap="round" stroke-linejoin="round"/>
<path d="M107.507 103.249H103.046C101.93 103.249 101.026 104.153 101.026 105.269V111.018C101.026 112.133 101.93 113.037 103.046 113.037H107.507C108.623 113.037 109.527 112.133 109.527 111.018V105.269C109.527 104.153 108.623 103.249 107.507 103.249Z" fill="white" stroke="#263238" stroke-linecap="round" stroke-linejoin="round"/>
<path d="M116.985 103.249H112.523C111.408 103.249 110.504 104.153 110.504 105.269V111.018C110.504 112.133 111.408 113.037 112.523 113.037H116.985C118.1 113.037 119.005 112.133 119.005 111.018V105.269C119.005 104.153 118.1 103.249 116.985 103.249Z" fill="white" stroke="#263238" stroke-linecap="round" stroke-linejoin="round"/>
<path d="M126.468 103.249H122.006C120.891 103.249 119.987 104.153 119.987 105.269V111.018C119.987 112.133 120.891 113.037 122.006 113.037H126.468C127.583 113.037 128.488 112.133 128.488 111.018V105.269C128.488 104.153 127.583 103.249 126.468 103.249Z" fill="white" stroke="#263238" stroke-linecap="round" stroke-linejoin="round"/>
<path d="M135.946 103.249H131.484C130.369 103.249 129.464 104.153 129.464 105.269V111.018C129.464 112.133 130.369 113.037 131.484 113.037H135.946C137.061 113.037 137.966 112.133 137.966 111.018V105.269C137.966 104.153 137.061 103.249 135.946 103.249Z" fill="white" stroke="#263238" stroke-linecap="round" stroke-linejoin="round"/>
<path d="M93.2879 114.594H88.8262C87.7108 114.594 86.8065 115.498 86.8065 116.614V122.362C86.8065 123.478 87.7108 124.382 88.8262 124.382H93.2879C94.4033 124.382 95.3076 123.478 95.3076 122.362V116.614C95.3076 115.498 94.4033 114.594 93.2879 114.594Z" fill="white" stroke="#263238" stroke-linecap="round" stroke-linejoin="round"/>
<path d="M102.766 114.594H98.3041C97.1886 114.594 96.2844 115.498 96.2844 116.614V122.362C96.2844 123.478 97.1886 124.382 98.3041 124.382H102.766C103.881 124.382 104.785 123.478 104.785 122.362V116.614C104.785 115.498 103.881 114.594 102.766 114.594Z" fill="white" stroke="#263238" stroke-linecap="round" stroke-linejoin="round"/>
<path d="M112.249 114.594H107.787C106.672 114.594 105.767 115.498 105.767 116.614V122.362C105.767 123.478 106.672 124.382 107.787 124.382H112.249C113.364 124.382 114.268 123.478 114.268 122.362V116.614C114.268 115.498 113.364 114.594 112.249 114.594Z" fill="white" stroke="#263238" stroke-linecap="round" stroke-linejoin="round"/>
<path d="M121.726 114.594H117.265C116.149 114.594 115.245 115.498 115.245 116.614V122.362C115.245 123.478 116.149 124.382 117.265 124.382H121.726C122.842 124.382 123.746 123.478 123.746 122.362V116.614C123.746 115.498 122.842 114.594 121.726 114.594Z" fill="white" stroke="#263238" stroke-linecap="round" stroke-linejoin="round"/>
<path d="M131.204 114.594H126.743C125.627 114.594 124.723 115.498 124.723 116.614V122.362C124.723 123.478 125.627 124.382 126.743 124.382H131.204C132.32 124.382 133.224 123.478 133.224 122.362V116.614C133.224 115.498 132.32 114.594 131.204 114.594Z" fill="white" stroke="#263238" stroke-linecap="round" stroke-linejoin="round"/>
<path d="M122.407 41.731C126.078 34.8175 123.45 26.2368 116.536 22.5655C109.623 18.8942 101.042 21.5225 97.3707 28.436C93.6994 35.3494 96.3277 43.9301 103.241 47.6014C110.155 51.2728 118.735 48.6445 122.407 41.731Z" fill="white" stroke="#263238" stroke-linecap="round" stroke-linejoin="round"/>
<path d="M109.888 49.2512C112.986 49.2578 115.999 48.242 118.46 46.3616C115.138 45.1284 111.626 44.4879 108.082 44.4691C105.544 44.4886 103.028 44.9446 100.644 45.8172C103.213 48.035 106.494 49.254 109.888 49.2512Z" fill="white" stroke="#263238" stroke-linecap="round" stroke-linejoin="round"/>
<path d="M106.073 41.4013C106.073 41.4013 105.95 36.782 104.653 33.4039C103.356 30.0259 102.618 25.0351 107.568 24.3433C112.518 23.6514 114.477 24.4704 117.311 24.2466C122.754 23.8243 116.756 30.0768 116.756 30.0768L109.466 32.9308C109.466 32.9308 106.937 41.6252 106.073 41.4013Z" fill="#263238" stroke="#263238" stroke-linecap="round" stroke-linejoin="round"/>
<path d="M105.742 42.7444L107.029 37.5095L110.59 38.588L111.664 42.8513C111.764 43.2592 111.953 43.6402 112.216 43.9672C112.48 44.2942 112.812 44.5593 113.19 44.7438C113.727 44.9932 114.238 45.2948 114.716 45.6443C114.716 45.6443 110.473 51.0827 102.328 45.6443C102.867 45.2518 103.451 44.9256 104.068 44.6726C104.48 44.5063 104.846 44.2449 105.137 43.9097C105.428 43.5746 105.635 43.1752 105.742 42.7444Z" fill="white"/>
<path d="M116.868 30.2396L117.336 33.3582C117.383 33.6874 117.355 34.023 117.255 34.34L116.985 35.1896L117.143 37.2246C117.15 37.3296 117.15 37.435 117.143 37.54C117.072 38.5575 116.568 43.5533 113.582 43.7823C110.921 43.9858 108.265 41.2386 107.324 39.9362C107.089 39.6115 106.916 39.2457 106.815 38.8577L106.413 37.2755C106.034 37.2729 105.666 37.1504 105.361 36.9256C105.055 36.7008 104.829 36.3852 104.714 36.024C104.312 34.747 103.646 33.9229 104.938 33.2869C106.23 32.651 106.678 34.457 106.678 34.457C106.678 34.457 107.014 32.3559 107.37 31.7556C107.726 31.1553 108.825 30.5855 109.161 30.0717C109.35 29.6638 109.504 29.2399 109.618 28.8049C109.618 28.8049 113.551 29.563 116.537 28.9576L116.868 30.2396Z" fill="#263238" stroke="#263238" stroke-linecap="round" stroke-linejoin="round"/>
<path d="M105.742 42.7444L107.029 37.5095L110.59 38.588L111.664 42.8513C111.764 43.2592 111.953 43.6402 112.216 43.9672C112.48 44.2942 112.812 44.5593 113.19 44.7438C113.727 44.9932 114.238 45.2948 114.716 45.6443C114.716 45.6443 110.473 51.0827 102.328 45.6443C102.867 45.2518 103.451 44.9256 104.068 44.6726C104.48 44.5063 104.846 44.2449 105.137 43.9097C105.428 43.5746 105.635 43.1752 105.742 42.7444V42.7444Z" stroke="#263238" stroke-linecap="round" stroke-linejoin="round"/>
<path d="M116.868 29.685L117.336 32.8036C117.383 33.1329 117.355 33.4684 117.255 33.7855L116.985 34.6351L117.143 36.6701C117.15 36.7768 117.15 36.8839 117.143 36.9906C117.072 38.008 116.568 43.0039 113.582 43.2328C110.921 43.4363 108.265 40.6891 107.324 39.3867C107.09 39.0614 106.917 38.6958 106.815 38.3082L106.413 36.726C106.033 36.7256 105.662 36.6041 105.354 36.3792C105.047 36.1542 104.819 35.8374 104.704 35.4745C104.302 34.1976 103.636 33.3734 104.928 32.7375C106.22 32.1016 106.678 33.8974 106.678 33.8974C106.678 33.8974 107.014 31.7963 107.37 31.196C107.726 30.5957 108.825 30.0259 109.161 29.5121C109.35 29.1042 109.504 28.6803 109.618 28.2453C109.618 28.2453 113.551 29.0033 116.537 28.3979L116.868 29.685Z" fill="white" stroke="#263238" stroke-linecap="round" stroke-linejoin="round"/>
<path d="M114.757 34.8895L115.734 37.25C115.769 37.3269 115.785 37.4114 115.78 37.4959C115.774 37.5804 115.748 37.6622 115.703 37.734C115.658 37.8057 115.596 37.8651 115.522 37.9067C115.448 37.9484 115.365 37.971 115.281 37.9724L114.065 38.0538" stroke="#263238" stroke-width="0.75" stroke-linecap="round" stroke-linejoin="round"/>
<path d="M111.73 38.934C111.827 39.135 111.968 39.3121 112.142 39.4528C112.315 39.5935 112.518 39.6944 112.735 39.7482C112.952 39.8021 113.178 39.8077 113.397 39.7645C113.616 39.7214 113.823 39.6306 114.004 39.4987" stroke="#263238" stroke-width="0.75" stroke-linecap="round" stroke-linejoin="round"/>
<path d="M111.704 25.9611C106.434 25.3608 105.462 27.4415 105.462 27.4415" stroke="#7F7F7F" stroke-width="0.75" stroke-linecap="round" stroke-linejoin="round"/>
<path d="M117.489 25.3862C115.976 25.7644 114.424 25.9642 112.864 25.9814" stroke="#7F7F7F" stroke-width="0.75" stroke-linecap="round" stroke-linejoin="round"/>
<path d="M112.722 27.4771C114.223 27.4771 117.255 27.1973 118.465 25.8135" stroke="#7F7F7F" stroke-width="0.75" stroke-linecap="round" stroke-linejoin="round"/>
<path d="M110.504 27.2227C110.893 27.3117 111.287 27.3763 111.684 27.4161" stroke="#7F7F7F" stroke-width="0.75" stroke-linecap="round" stroke-linejoin="round"/>
<path d="M112.64 34.5486C112.64 34.9556 112.478 35.2812 112.274 35.2812C112.071 35.2812 111.908 34.9556 111.908 34.5486C111.908 34.1416 112.076 33.816 112.274 33.816C112.472 33.816 112.64 34.1467 112.64 34.5486Z" fill="#263238"/>
<path d="M116.09 34.457C116.09 34.8081 115.947 35.093 115.774 35.093C115.601 35.093 115.454 34.8081 115.454 34.457C115.454 34.106 115.596 33.8211 115.774 33.8211C115.952 33.8211 116.09 34.1009 116.09 34.457Z" fill="#263238"/>
<path d="M111.079 33.4701C111.079 33.4701 111.516 32.1626 112.274 32.1982C112.508 32.2204 112.732 32.3022 112.926 32.4358C113.119 32.5694 113.275 32.7503 113.378 32.9613" stroke="#263238" stroke-width="0.75" stroke-linecap="round" stroke-linejoin="round"/>
<path d="M116.329 32.9308C116.186 32.5798 115.968 32.1829 115.678 32.2033C115.169 32.2338 114.92 32.9664 114.92 32.9664" stroke="#263238" stroke-width="0.75" stroke-linecap="round" stroke-linejoin="round"/>
<path d="M37.4738 94.7021C38.4913 92.2297 36.0036 84.7512 34.8894 81.6835C34.8247 81.506 34.7174 81.3471 34.577 81.2208C34.4365 81.0945 34.2672 81.0045 34.0839 80.9588C33.9007 80.9131 33.709 80.9131 33.5256 80.9587C33.3423 81.0043 33.173 81.0942 33.0325 81.2205C32.0151 82.121 30.7992 83.871 30.5957 87.1168C30.5957 87.1168 22.8323 100.787 22.8323 107.024C22.8323 112.869 34.3909 125.043 34.3909 125.043C35.6941 124.639 36.7957 123.755 37.4738 122.571C37.4738 122.571 33.1546 111.887 29.802 107.309C29.7969 107.314 36.3292 97.4392 37.4738 94.7021Z" fill="#263238"/>
<path opacity="0.2" d="M36.1765 98.7008C36.1765 98.7008 32.478 90.8204 31.0891 91.5276C29.7003 92.2347 26.0984 105.523 27.4771 107.639C28.8558 109.756 36.3749 124.698 38.2573 124.397C40.1396 124.097 36.1765 98.7008 36.1765 98.7008Z" fill="black"/>
<path d="M37.4738 94.7021C38.4913 92.2297 36.0036 84.7512 34.8894 81.6835C34.8247 81.506 34.7174 81.3471 34.577 81.2208C34.4365 81.0945 34.2672 81.0045 34.0839 80.9588C33.9007 80.9131 33.709 80.9131 33.5256 80.9587C33.3423 81.0043 33.173 81.0942 33.0325 81.2205C32.0151 82.121 30.7992 83.871 30.5957 87.1168C30.5957 87.1168 22.8323 100.787 22.8323 107.024C22.8323 112.869 34.3909 125.043 34.3909 125.043C35.6941 124.639 36.7957 123.755 37.4738 122.571C37.4738 122.571 33.1546 111.887 29.802 107.309C29.7969 107.314 36.3292 97.4392 37.4738 94.7021Z" stroke="#263238" stroke-linecap="round" stroke-linejoin="round"/>
<path d="M36.492 121.604L38.2369 124.397C38.2369 124.397 43.6703 126.097 44.235 127.892C44.7997 129.688 42.0169 132.191 40.3635 131.688C38.7101 131.184 36.0137 126.198 36.0137 126.198L33.816 123.655L36.492 121.604Z" fill="white" stroke="#263238" stroke-linecap="round" stroke-linejoin="round"/>
<path d="M33.0682 124.336L34.2434 125.69C35.896 125.227 37.3088 124.15 38.1912 122.678L37.479 120.984C37.479 120.984 36.4767 123.334 33.0682 124.336Z" fill="white" stroke="#263238" stroke-linecap="round" stroke-linejoin="round"/>
<path d="M40.0328 199.213L38.5066 205.547C38.4559 205.759 38.4539 205.98 38.5008 206.193C38.5477 206.406 38.6422 206.606 38.7773 206.777C38.9125 206.948 39.0846 207.087 39.2809 207.182C39.4772 207.277 39.6925 207.327 39.9107 207.327H48.8239C49.035 207.327 49.2435 207.281 49.435 207.192C49.6265 207.103 49.7962 206.974 49.9323 206.812C50.0685 206.651 50.1677 206.462 50.2232 206.258C50.2787 206.055 50.289 205.841 50.2534 205.633C50.1845 205.157 50.0167 204.701 49.7609 204.293C49.505 203.886 49.1668 203.536 48.7679 203.267C46.7329 201.945 45.7663 197.804 45.7663 197.804L40.0328 199.213Z" fill="#263238" stroke="#263238" stroke-linecap="round" stroke-linejoin="round"/>
<path d="M61.9952 200.271C61.9952 200.271 60.5554 202.342 60.3214 206.035C60.3138 206.202 60.3402 206.369 60.3989 206.525C60.4577 206.682 60.5475 206.825 60.6631 206.946C60.7786 207.066 60.9175 207.163 61.0713 207.228C61.225 207.294 61.3905 207.327 61.5576 207.327H77.3642C77.6727 207.329 77.9741 207.234 78.2265 207.057C78.4789 206.88 78.6698 206.628 78.7727 206.337C78.8756 206.046 78.8854 205.731 78.8008 205.434C78.7161 205.137 78.5412 204.875 78.3003 204.682C77.6276 204.181 76.8305 203.875 75.9957 203.797C72.1191 203.288 68.6851 201.507 68.0644 199.218L61.9952 200.271Z" fill="#263238" stroke="#263238" stroke-linecap="round" stroke-linejoin="round"/>
<path d="M37.4739 122.571C37.4739 122.571 35.6831 129.978 36.3902 145.973L36.8481 164.084C36.8481 164.084 34.2739 176.803 39.2138 199.828C39.2138 199.828 40.74 203.237 46.8907 198.974L47.6029 163.845L54.0385 125.043L37.4739 122.571Z" fill="#999999"/>
<path opacity="0.2" d="M50.2738 138.917C50.2738 138.917 47.6487 149.382 46.5905 155.497C45.5323 161.612 39.2392 161.144 38.4812 165.163C37.7231 169.182 45.0948 164.456 44.3775 178.899C43.6602 193.342 41.0808 201.238 45.1304 201.121C49.18 201.004 49.297 189.623 49.297 189.623L51.7644 154.937V150.114L52.3545 140.957L50.2738 138.917Z" fill="black"/>
<path d="M37.4739 122.571C37.4739 122.571 35.6831 129.978 36.3902 145.973L36.8481 164.084C36.8481 164.084 34.2739 176.803 39.2138 199.828C39.2138 199.828 40.74 203.237 46.8907 198.974L47.6029 163.845L54.0385 125.043L37.4739 122.571Z" stroke="#263238" stroke-linecap="round" stroke-linejoin="round"/>
<path d="M38.4812 168.012C38.2075 168.374 37.9544 168.751 37.7231 169.141" stroke="#263238" stroke-linecap="round" stroke-linejoin="round"/>
<path d="M38.8016 164.023C38.8016 164.023 44.703 162.614 45.1049 164.023C45.4509 165.249 42.2611 163.81 39.112 167.249" stroke="#263238" stroke-linecap="round" stroke-linejoin="round"/>
<path d="M49.0325 141.461C53.6111 148.853 60.0569 163.397 60.0569 163.397C60.0569 163.397 59.0852 165.081 60.0569 167.905C60.0569 167.905 57.5132 177.729 61.2015 201.217C61.2015 201.217 64.3761 203.252 68.9649 199.691C68.9649 199.691 71.2543 164.384 70.3742 159.623C69.494 154.861 61.2168 123.41 61.2168 123.41H43.0242" fill="#999999"/>
<path opacity="0.2" d="M47.9997 141.974C47.9997 141.974 50.7723 143.384 56.0887 141.974C61.405 140.565 56.9993 146.553 58.7596 153.085C60.5198 159.618 65.4648 162.614 64.6711 165.432C63.8775 168.251 61.5271 168.963 61.0235 176.548C60.5198 184.134 67.1742 198.144 64.5541 201.014C61.9341 203.883 55.585 197.096 55.585 197.096L50.2738 161.134L47.9997 141.974Z" fill="black"/>
<path d="M49.0325 141.461C53.6111 148.853 60.0569 163.397 60.0569 163.397C60.0569 163.397 59.0852 165.081 60.0569 167.905C60.0569 167.905 57.5132 177.729 61.2015 201.217C61.2015 201.217 64.3761 203.252 68.9649 199.691C68.9649 199.691 71.2543 164.384 70.3742 159.623C69.494 154.861 61.2168 123.41 61.2168 123.41H43.0242" stroke="#263238" stroke-linecap="round" stroke-linejoin="round"/>
<path d="M63.4247 164.644C65.5157 164.328 68.1866 164.135 68.0797 165.081C67.9068 166.669 64.1777 165.056 61.9087 167.727" stroke="#263238" stroke-linecap="round" stroke-linejoin="round"/>
<path d="M61.0235 165.081C61.0235 165.081 61.3898 165 61.9545 164.893" stroke="#263238" stroke-linecap="round" stroke-linejoin="round"/>
<path d="M75.5836 73.4876L75.9143 70.13C75.9143 70.13 75.2529 66.6349 75.5836 65.4495C75.9143 64.2642 78.8141 56.7501 79.7349 57.0808C80.6558 57.4114 78.3512 61.4966 78.4173 62.6769C78.4173 62.6769 79.6434 62.743 79.9435 63.5316C79.9435 63.5316 81.1086 63.73 81.1747 64.7831C81.4591 64.9646 81.6889 65.22 81.8394 65.522C81.99 65.8239 82.0556 66.1612 82.0294 66.4975C81.9022 67.6168 79.6586 70.6489 79.6586 70.6489L79.7909 74.9986L75.5836 73.4876Z" fill="white" stroke="#263238" stroke-linecap="round" stroke-linejoin="round"/>
<path d="M56.0785 67.8152C56.0785 67.8152 54.7812 65.2715 54.593 64.3151C54.4556 63.6486 54.7304 62.2801 54.593 61.6086C54.2776 60.0569 52.1052 55.7886 52.1052 55.7886C52.0181 55.6051 51.8849 55.4473 51.7186 55.3307L50.4468 56.8976H46.9975L41.7269 63.8572L44.3215 70.1045L43.5635 71.005C44.0264 71.4629 44.3215 71.7274 44.3215 71.7274L43.5635 76.2603L50.9911 77.0132L51.1641 74.1388H53.4229C53.7278 74.1388 54.0203 74.0177 54.2359 73.8021C54.4515 73.5865 54.5726 73.294 54.5726 72.9891V69.0514L55.5901 68.7564C55.6883 68.7336 55.7804 68.6898 55.86 68.628C55.9397 68.5662 56.005 68.4879 56.0514 68.3984C56.0978 68.3089 56.1243 68.2105 56.129 68.1098C56.1336 68.0091 56.1164 67.9086 56.0785 67.8152Z" fill="white" stroke="#263238" stroke-linecap="round" stroke-linejoin="round"/>
<path d="M38.1148 65.5513C41.1062 69.957 44.3215 71.7274 44.3215 71.7274L45.5882 68.5783C45.5882 68.5783 43.0445 68.3087 43.4261 65.8362C44.0213 62.1885 46.9873 65.4699 46.9873 65.4699L47.6283 62.6515C47.6283 62.6515 49.2105 60.9523 49.0986 60.357C49.0138 59.9247 48.9017 59.4982 48.7628 59.0801C48.7628 59.0801 54.4861 53.6315 53.8807 50.5943C53.8807 50.5943 49.1138 51.5609 43.4261 52.6293C36.5021 53.8808 34.7368 60.586 38.1148 65.5513Z" fill="#263238" stroke="#263238" stroke-linecap="round" stroke-linejoin="round"/>
<path d="M53.4432 74.1388C53.4432 74.1388 49.4598 73.4622 47.9386 71.5951C46.4175 69.7281 47.6283 71.7274 48.3405 72.8721C49.8668 75.3191 51.1641 74.1388 53.4432 74.1388Z" fill="#263238"/>
<path d="M50.9911 68.4104C51.2658 68.7215 51.6125 68.9606 52.0009 69.1069C52.3893 69.2533 52.8077 69.3023 53.2194 69.2498" stroke="#263238" stroke-width="0.75" stroke-linecap="round" stroke-linejoin="round"/>
<path d="M53.8909 63.5418C53.8909 63.8979 53.7587 64.1828 53.5908 64.1828C53.4229 64.1828 53.2957 63.8979 53.2957 63.5418C53.2957 63.1856 53.428 62.9008 53.5908 62.9008C53.7536 62.9008 53.8909 63.1907 53.8909 63.5418Z" fill="#263238"/>
<path d="M53.835 61.6696C53.423 61.5792 52.9923 61.638 52.6196 61.8355C52.247 62.0331 51.9565 62.3565 51.8 62.7481" stroke="#263238" stroke-width="0.75" stroke-linecap="round" stroke-linejoin="round"/>
<path d="M39.6818 78.2393C39.6818 78.2393 39.6818 74.7595 45.6798 75.2987C52.9701 75.9601 55.9106 79.6943 55.9106 79.6943L39.6818 78.2393Z" fill="white" stroke="#263238" stroke-linecap="round" stroke-linejoin="round"/>
<path d="M51.4439 77.6135C55.987 78.1223 63.9081 79.2161 63.4349 91.4309C62.9618 103.646 61.2016 123.4 61.2016 123.4C61.2016 123.4 38.4812 133.107 35.9019 124.102C35.9019 124.102 37.0821 113.927 33.3175 98.0904C29.5528 82.2532 31.2571 75.4107 51.4439 77.6135Z" fill="#263238"/>
<path opacity="0.2" d="M64.5847 111.872C64.5847 111.872 61.6187 112.584 52.5326 107.639C38.2878 99.871 36.6904 88.4701 32.6917 90.3422C28.693 92.2144 36.6446 128.981 36.6446 128.981L51.3981 129.907H65.0731L64.5847 111.872Z" fill="black"/>
<path d="M51.4439 77.6135C55.987 78.1223 63.9081 79.2161 63.4349 91.4309C62.9618 103.646 61.2016 123.4 61.2016 123.4C61.2016 123.4 38.4812 133.107 35.9019 124.102C35.9019 124.102 37.0821 113.927 33.3175 98.0904C29.5528 82.2532 31.2571 75.4107 51.4439 77.6135Z" stroke="#263238" stroke-linecap="round" stroke-linejoin="round"/>
<path d="M25.2183 106.8C24.9639 106.861 24.6943 106.937 24.4094 107.029" stroke="#7F7F7F" stroke-width="0.75" stroke-linecap="round" stroke-linejoin="round"/>
<path d="M28.9728 107.029C28.9728 107.029 28.0164 106.347 25.9203 106.663" stroke="#7F7F7F" stroke-width="0.75" stroke-linecap="round" stroke-linejoin="round"/>
<path d="M53.199 77.8374C53.199 77.8374 61.0693 77.8883 64.5948 80.0046C64.5948 80.0046 70.8269 78.9464 73.2994 80.0046L75.5328 71.6562C75.5328 71.6562 78.4733 70.2419 79.8825 72.3582C79.8825 72.3582 80.9407 85.0768 79.1804 86.1197C77.4202 87.1626 63.44 90.3524 63.44 90.3524C63.44 90.3524 54.5116 87.6663 53.199 77.8374Z" fill="#263238"/>
<path opacity="0.2" d="M63.3739 88.1902C63.3739 88.1902 62.9618 84.9241 68.97 85.3464C74.9782 85.7686 79.6536 85.8857 80.2488 83.0621C80.844 80.2386 87.4322 75.3547 85.3362 84.4968L83.2148 93.6541L70.5776 94.4885L63.3739 88.1902Z" fill="black"/>
<path d="M53.199 77.8374C53.199 77.8374 61.0693 77.8883 64.5948 80.0046C64.5948 80.0046 70.8269 78.9464 73.2994 80.0046L75.5328 71.6562C75.5328 71.6562 78.4733 70.2419 79.8825 72.3582C79.8825 72.3582 80.9407 85.0768 79.1804 86.1197C77.4202 87.1626 63.44 90.3524 63.44 90.3524C63.44 90.3524 54.5116 87.6663 53.199 77.8374Z" stroke="#263238" stroke-linecap="round" stroke-linejoin="round"/>
<path d="M74.7595 80.6304C75.439 81.1846 76.0233 81.8462 76.4892 82.589" stroke="#7F7F7F" stroke-width="0.75" stroke-linecap="round" stroke-linejoin="round"/>
<path d="M73.4876 80.086C73.6792 80.0853 73.8686 80.127 74.0421 80.2081" stroke="#7F7F7F" stroke-width="0.75" stroke-linecap="round" stroke-linejoin="round"/>
<path d="M33.1495 94.4885C32.8748 91.8532 32.1321 87.0151 32.422 83.6675" stroke="#7F7F7F" stroke-width="0.75" stroke-linecap="round" stroke-linejoin="round"/>
<path d="M31.0688 88.1902C31.0688 88.1902 32.4424 96.3301 33.1038 96.3301" stroke="#7F7F7F" stroke-width="0.75" stroke-linecap="round" stroke-linejoin="round"/>
<path d="M36.0087 118.43V122.998" stroke="#7F7F7F" stroke-width="0.75" stroke-linecap="round" stroke-linejoin="round"/>
<path d="M43.7619 129.917C43.7619 129.917 44.4996 135.081 46.7686 138.271L43.7619 129.917Z" fill="#999999"/>
<path d="M43.7619 129.917C43.7619 129.917 44.4996 135.081 46.7686 138.271" stroke="#263238" stroke-linecap="round" stroke-linejoin="round"/>
<path d="M74.8917 70.6947L74.383 72.5872C74.383 72.5872 77.8221 71.7732 80.8644 73.4062L80.554 71.1932C80.554 71.1932 78.5852 69.723 74.8917 70.6947Z" fill="white" stroke="#263238" stroke-linecap="round" stroke-linejoin="round"/>
<path d="M56.1039 119.483C53.6264 120.582 48.7119 121.548 39.0611 120.597" stroke="#7F7F7F" stroke-width="0.75" stroke-linecap="round" stroke-linejoin="round"/>
<path d="M58.5866 117.458C58.3756 117.926 58.037 118.324 57.6098 118.608" stroke="#7F7F7F" stroke-width="0.75" stroke-linecap="round" stroke-linejoin="round"/>
<path d="M65.4088 80.2437L69.4228 82.7264" stroke="#7F7F7F" stroke-width="0.75" stroke-linecap="round" stroke-linejoin="round"/>
<path d="M59.1411 101.138C61.7069 98.118 63.3026 94.3947 63.7198 90.4542" stroke="#7F7F7F" stroke-width="0.75" stroke-linecap="round" stroke-linejoin="round"/>
<path d="M56.8009 100.4C53.5392 104.167 49.4654 107.145 44.8862 109.11" stroke="#7F7F7F" stroke-width="0.75" stroke-linecap="round" stroke-linejoin="round"/>
<path d="M58.7952 97.8156C58.4136 98.3651 58.0117 98.8993 57.5895 99.4233" stroke="#7F7F7F" stroke-width="0.75" stroke-linecap="round" stroke-linejoin="round"/>
<path d="M60.0213 95.974C59.828 96.2996 59.6245 96.615 59.421 96.9304" stroke="#7F7F7F" stroke-width="0.75" stroke-linecap="round" stroke-linejoin="round"/>
<path d="M38.0284 115.347C43.1771 117.7 48.9048 118.484 54.4963 117.601" stroke="#7F7F7F" stroke-width="0.75" stroke-linecap="round" stroke-linejoin="round"/>
<path d="M51.8 52.1714C52.3255 51.9426 52.8266 51.6613 53.2957 51.332" stroke="#7F7F7F" stroke-width="0.75" stroke-linecap="round" stroke-linejoin="round"/>
<path d="M39.4071 64.1828C39.4071 64.1828 36.5835 59.0038 39.8446 56.1803C42.3323 54.0334 46.7685 53.8299 50.3195 52.7208" stroke="#7F7F7F" stroke-width="0.75" stroke-linecap="round" stroke-linejoin="round"/>
<path d="M41.7829 60.5046C41.6242 60.0338 41.5982 59.5285 41.7077 59.0439C41.8172 58.5593 42.0579 58.1142 42.4035 57.7574C44.3418 55.9157 49.999 55.7224 52.8175 52.9193" stroke="#7F7F7F" stroke-width="0.75" stroke-linecap="round" stroke-linejoin="round"/>
<path d="M42.9326 62.9008C42.6989 62.5787 42.4914 62.2384 42.312 61.8833" stroke="#7F7F7F" stroke-width="0.75" stroke-linecap="round" stroke-linejoin="round"/>
</g>
<defs>
<clipPath id="clip0_211_997">
<rect width="228.918" height="220" fill="white"/>
</clipPath>
</defs>
</svg>
