<svg width="109" height="109" viewBox="0 0 109 109" fill="none" xmlns="http://www.w3.org/2000/svg">
<circle cx="54.5403" cy="54.5403" r="32" transform="rotate(-75 54.5403 54.5403)" stroke="white" stroke-width="12"/>
<mask id="path-2-inside-1_311_911" fill="white">
<path d="M77.2457 31.8349C79.5458 29.5348 79.5677 25.7615 76.9401 23.844C72.0537 20.2782 66.3835 17.9295 60.4068 16.9957C57.193 16.4935 54.5403 19.1772 54.5403 22.43C54.5403 25.6828 57.2098 28.2538 60.3808 28.9784C63.2514 29.6344 65.9918 30.7695 68.4854 32.3354C71.2401 34.0653 74.9456 34.135 77.2457 31.8349Z"/>
</mask>
<path d="M77.2457 31.8349C79.5458 29.5348 79.5677 25.7615 76.9401 23.844C72.0537 20.2782 66.3835 17.9295 60.4068 16.9957C57.193 16.4935 54.5403 19.1772 54.5403 22.43C54.5403 25.6828 57.2098 28.2538 60.3808 28.9784C63.2514 29.6344 65.9918 30.7695 68.4854 32.3354C71.2401 34.0653 74.9456 34.135 77.2457 31.8349Z" stroke="#E94444" stroke-width="20" mask="url(#path-2-inside-1_311_911)"/>
<path d="M45.29 49.4999V59.9999H43.34V51.1349H41.12V49.4999H45.29ZM51.3449 60.1499C50.5049 60.1499 49.7549 59.9399 49.0949 59.5199C48.4349 59.0899 47.9149 58.4699 47.5349 57.6599C47.1549 56.8399 46.9649 55.8699 46.9649 54.7499C46.9649 53.6299 47.1549 52.6649 47.5349 51.8549C47.9149 51.0349 48.4349 50.4149 49.0949 49.9949C49.7549 49.5649 50.5049 49.3499 51.3449 49.3499C52.1849 49.3499 52.9349 49.5649 53.5949 49.9949C54.2649 50.4149 54.7899 51.0349 55.1699 51.8549C55.5499 52.6649 55.7399 53.6299 55.7399 54.7499C55.7399 55.8699 55.5499 56.8399 55.1699 57.6599C54.7899 58.4699 54.2649 59.0899 53.5949 59.5199C52.9349 59.9399 52.1849 60.1499 51.3449 60.1499ZM51.3449 58.4549C52.0949 58.4549 52.6849 58.1449 53.1149 57.5249C53.5549 56.9049 53.7749 55.9799 53.7749 54.7499C53.7749 53.5199 53.5549 52.5949 53.1149 51.9749C52.6849 51.3549 52.0949 51.0449 51.3449 51.0449C50.6049 51.0449 50.0149 51.3549 49.5749 51.9749C49.1449 52.5949 48.9299 53.5199 48.9299 54.7499C48.9299 55.9799 49.1449 56.9049 49.5749 57.5249C50.0149 58.1449 50.6049 58.4549 51.3449 58.4549ZM58.9897 55.1549C58.2397 55.1549 57.6347 54.8899 57.1747 54.3599C56.7147 53.8299 56.4847 53.1349 56.4847 52.2749C56.4847 51.4149 56.7147 50.7199 57.1747 50.1899C57.6347 49.6599 58.2397 49.3949 58.9897 49.3949C59.7397 49.3949 60.3447 49.6599 60.8047 50.1899C61.2747 50.7099 61.5097 51.4049 61.5097 52.2749C61.5097 53.1449 61.2747 53.8449 60.8047 54.3749C60.3447 54.8949 59.7397 55.1549 58.9897 55.1549ZM65.2897 49.4999H66.7597L59.5897 59.9999H58.1197L65.2897 49.4999ZM58.9897 54.1049C59.3997 54.1049 59.7147 53.9449 59.9347 53.6249C60.1647 53.3049 60.2797 52.8549 60.2797 52.2749C60.2797 51.6949 60.1647 51.2449 59.9347 50.9249C59.7147 50.6049 59.3997 50.4449 58.9897 50.4449C58.5997 50.4449 58.2847 50.6099 58.0447 50.9399C57.8147 51.2599 57.6997 51.7049 57.6997 52.2749C57.6997 52.8449 57.8147 53.2949 58.0447 53.6249C58.2847 53.9449 58.5997 54.1049 58.9897 54.1049ZM65.8747 60.1049C65.1247 60.1049 64.5197 59.8399 64.0597 59.3099C63.5997 58.7799 63.3697 58.0849 63.3697 57.2249C63.3697 56.3649 63.5997 55.6699 64.0597 55.1399C64.5197 54.6099 65.1247 54.3449 65.8747 54.3449C66.6247 54.3449 67.2297 54.6099 67.6897 55.1399C68.1597 55.6699 68.3947 56.3649 68.3947 57.2249C68.3947 58.0849 68.1597 58.7799 67.6897 59.3099C67.2297 59.8399 66.6247 60.1049 65.8747 60.1049ZM65.8747 59.0549C66.2747 59.0549 66.5897 58.8949 66.8197 58.5749C67.0497 58.2449 67.1647 57.7949 67.1647 57.2249C67.1647 56.6549 67.0497 56.2099 66.8197 55.8899C66.5897 55.5599 66.2747 55.3949 65.8747 55.3949C65.4747 55.3949 65.1597 55.5549 64.9297 55.8749C64.6997 56.1949 64.5847 56.6449 64.5847 57.2249C64.5847 57.8049 64.6997 58.2549 64.9297 58.5749C65.1597 58.8949 65.4747 59.0549 65.8747 59.0549Z" fill="#E94444"/>
</svg>
