<svg width="94" height="94" viewBox="0 0 94 94" fill="none" xmlns="http://www.w3.org/2000/svg">
<circle cx="46.5403" cy="46.6657" r="32" transform="rotate(-75 46.5403 46.6657)" stroke="white" stroke-width="12"/>
<mask id="path-2-inside-1_311_918" fill="white">
<path d="M14.43 46.6657C11.1772 46.6657 8.49364 49.3182 8.99581 52.532C9.89357 58.2776 12.1028 63.7679 15.484 68.5633C20.0022 74.9713 26.392 79.8248 33.7773 82.4583C41.1626 85.0917 49.1817 85.3762 56.735 83.2727C64.2883 81.1692 71.006 76.7807 75.9669 70.7089C80.9279 64.6371 83.8892 57.1794 84.4448 49.3584C85.0004 41.5374 83.1231 33.7359 79.0702 27.0239C75.0174 20.3118 68.9876 15.0177 61.8075 11.8676C56.4343 9.51014 50.6138 8.43976 44.8046 8.70536C41.5552 8.85393 39.4909 12.0124 40.1393 15.1999C40.7877 18.3875 43.916 20.3748 47.1679 20.4527C50.5636 20.534 53.9302 21.2748 57.0749 22.6545C62.0292 24.8282 66.1899 28.4811 68.9864 33.1126C71.7829 37.744 73.0783 43.1271 72.6949 48.5237C72.3116 53.9203 70.2682 59.0663 66.8451 63.2559C63.422 67.4454 58.7867 70.4736 53.5748 71.925C48.3629 73.3765 42.8296 73.1802 37.7337 71.3631C32.6377 69.546 28.2286 66.197 25.111 61.7754C23.1322 58.9689 21.7351 55.8174 20.9785 52.5062C20.2539 49.3351 17.6829 46.6657 14.43 46.6657Z"/>
</mask>
<path d="M14.43 46.6657C11.1772 46.6657 8.49364 49.3182 8.99581 52.532C9.89357 58.2776 12.1028 63.7679 15.484 68.5633C20.0022 74.9713 26.392 79.8248 33.7773 82.4583C41.1626 85.0917 49.1817 85.3762 56.735 83.2727C64.2883 81.1692 71.006 76.7807 75.9669 70.7089C80.9279 64.6371 83.8892 57.1794 84.4448 49.3584C85.0004 41.5374 83.1231 33.7359 79.0702 27.0239C75.0174 20.3118 68.9876 15.0177 61.8075 11.8676C56.4343 9.51014 50.6138 8.43976 44.8046 8.70536C41.5552 8.85393 39.4909 12.0124 40.1393 15.1999C40.7877 18.3875 43.916 20.3748 47.1679 20.4527C50.5636 20.534 53.9302 21.2748 57.0749 22.6545C62.0292 24.8282 66.1899 28.4811 68.9864 33.1126C71.7829 37.744 73.0783 43.1271 72.6949 48.5237C72.3116 53.9203 70.2682 59.0663 66.8451 63.2559C63.422 67.4454 58.7867 70.4736 53.5748 71.925C48.3629 73.3765 42.8296 73.1802 37.7337 71.3631C32.6377 69.546 28.2286 66.197 25.111 61.7754C23.1322 58.9689 21.7351 55.8174 20.9785 52.5062C20.2539 49.3351 17.6829 46.6657 14.43 46.6657Z" stroke="#0182FC" stroke-width="24" mask="url(#path-2-inside-1_311_918)"/>
<path d="M39.58 41.0358V42.3408L35.5 51.5358H33.415L37.36 42.6858H33.235V44.4708H31.42V41.0358H39.58ZM43.3993 45.1008C44.8793 45.1008 45.9743 45.3908 46.6843 45.9708C47.3943 46.5408 47.7493 47.3208 47.7493 48.3108C47.7493 48.9408 47.5943 49.5108 47.2843 50.0208C46.9743 50.5308 46.5093 50.9358 45.8893 51.2358C45.2693 51.5358 44.5043 51.6858 43.5943 51.6858C42.8443 51.6858 42.1193 51.5808 41.4193 51.3708C40.7193 51.1508 40.1293 50.8508 39.6493 50.4708L40.4743 48.9558C40.8643 49.2758 41.3293 49.5308 41.8693 49.7208C42.4193 49.9008 42.9843 49.9908 43.5643 49.9908C44.2543 49.9908 44.7943 49.8508 45.1843 49.5708C45.5843 49.2808 45.7843 48.8858 45.7843 48.3858C45.7843 47.8458 45.5693 47.4408 45.1393 47.1708C44.7193 46.8908 43.9943 46.7508 42.9643 46.7508H40.4293L40.9693 41.0358H47.1343V42.6708H42.6193L42.3943 45.1008H43.3993ZM50.6596 46.6908C49.9096 46.6908 49.3046 46.4258 48.8446 45.8958C48.3846 45.3658 48.1546 44.6708 48.1546 43.8108C48.1546 42.9508 48.3846 42.2558 48.8446 41.7258C49.3046 41.1958 49.9096 40.9308 50.6596 40.9308C51.4096 40.9308 52.0146 41.1958 52.4746 41.7258C52.9446 42.2458 53.1796 42.9408 53.1796 43.8108C53.1796 44.6808 52.9446 45.3808 52.4746 45.9108C52.0146 46.4308 51.4096 46.6908 50.6596 46.6908ZM56.9596 41.0358H58.4296L51.2596 51.5358H49.7896L56.9596 41.0358ZM50.6596 45.6408C51.0696 45.6408 51.3846 45.4808 51.6046 45.1608C51.8346 44.8408 51.9496 44.3908 51.9496 43.8108C51.9496 43.2308 51.8346 42.7808 51.6046 42.4608C51.3846 42.1408 51.0696 41.9808 50.6596 41.9808C50.2696 41.9808 49.9546 42.1458 49.7146 42.4758C49.4846 42.7958 49.3696 43.2408 49.3696 43.8108C49.3696 44.3808 49.4846 44.8308 49.7146 45.1608C49.9546 45.4808 50.2696 45.6408 50.6596 45.6408ZM57.5446 51.6408C56.7946 51.6408 56.1896 51.3758 55.7296 50.8458C55.2696 50.3158 55.0396 49.6208 55.0396 48.7608C55.0396 47.9008 55.2696 47.2058 55.7296 46.6758C56.1896 46.1458 56.7946 45.8808 57.5446 45.8808C58.2946 45.8808 58.8996 46.1458 59.3596 46.6758C59.8296 47.2058 60.0646 47.9008 60.0646 48.7608C60.0646 49.6208 59.8296 50.3158 59.3596 50.8458C58.8996 51.3758 58.2946 51.6408 57.5446 51.6408ZM57.5446 50.5908C57.9446 50.5908 58.2596 50.4308 58.4896 50.1108C58.7196 49.7808 58.8346 49.3308 58.8346 48.7608C58.8346 48.1908 58.7196 47.7458 58.4896 47.4258C58.2596 47.0958 57.9446 46.9308 57.5446 46.9308C57.1446 46.9308 56.8296 47.0908 56.5996 47.4108C56.3696 47.7308 56.2546 48.1808 56.2546 48.7608C56.2546 49.3408 56.3696 49.7908 56.5996 50.1108C56.8296 50.4308 57.1446 50.5908 57.5446 50.5908Z" fill="#0182FC"/>
</svg>
