<svg width="105" height="105" viewBox="0 0 105 105" fill="none" xmlns="http://www.w3.org/2000/svg">
<circle cx="52.5403" cy="52.5403" r="32" transform="rotate(-75 52.5403 52.5403)" stroke="white" stroke-width="12"/>
<mask id="path-2-inside-1_311_890" fill="white">
<path d="M24.732 36.4852C21.915 34.8588 18.2646 35.8141 17.0926 38.8485C14.7629 44.88 13.9989 51.4391 14.9208 57.9043C16.1213 66.324 20.1117 74.0975 26.2532 79.9809C32.3947 85.8642 40.3323 89.5173 48.7957 90.3553C57.2591 91.1934 65.759 89.1681 72.9351 84.6035C80.1112 80.0389 85.5486 73.199 88.3772 65.1783C91.2057 57.1576 91.2618 48.4199 88.5365 40.3636C85.8112 32.3072 80.4621 25.398 73.3452 20.7416C67.8804 17.1661 61.6158 15.0777 55.1655 14.631C51.9204 14.4063 49.5078 17.3075 49.7867 20.5483C50.0657 23.7891 52.9457 26.1218 56.1672 26.5718C59.9731 27.1034 63.6402 28.4686 66.896 30.5988C71.8067 33.8117 75.4977 38.5792 77.3782 44.1382C79.2587 49.6972 79.22 55.7263 77.2682 61.2607C75.3165 66.7951 71.5646 71.5147 66.613 74.6644C61.6614 77.814 55.7963 79.2115 49.9565 78.6332C44.1166 78.0549 38.6395 75.5343 34.4018 71.4747C30.1641 67.4151 27.4107 62.0512 26.5823 56.2416C26.0331 52.3898 26.3511 48.4897 27.4829 44.8174C28.4409 41.7088 27.549 38.1116 24.732 36.4852Z"/>
</mask>
<path d="M24.732 36.4852C21.915 34.8588 18.2646 35.8141 17.0926 38.8485C14.7629 44.88 13.9989 51.4391 14.9208 57.9043C16.1213 66.324 20.1117 74.0975 26.2532 79.9809C32.3947 85.8642 40.3323 89.5173 48.7957 90.3553C57.2591 91.1934 65.759 89.1681 72.9351 84.6035C80.1112 80.0389 85.5486 73.199 88.3772 65.1783C91.2057 57.1576 91.2618 48.4199 88.5365 40.3636C85.8112 32.3072 80.4621 25.398 73.3452 20.7416C67.8804 17.1661 61.6158 15.0777 55.1655 14.631C51.9204 14.4063 49.5078 17.3075 49.7867 20.5483C50.0657 23.7891 52.9457 26.1218 56.1672 26.5718C59.9731 27.1034 63.6402 28.4686 66.896 30.5988C71.8067 33.8117 75.4977 38.5792 77.3782 44.1382C79.2587 49.6972 79.22 55.7263 77.2682 61.2607C75.3165 66.7951 71.5646 71.5147 66.613 74.6644C61.6614 77.814 55.7963 79.2115 49.9565 78.6332C44.1166 78.0549 38.6395 75.5343 34.4018 71.4747C30.1641 67.4151 27.4107 62.0512 26.5823 56.2416C26.0331 52.3898 26.3511 48.4897 27.4829 44.8174C28.4409 41.7088 27.549 38.1116 24.732 36.4852Z" stroke="#0182FC" stroke-width="16" mask="url(#path-2-inside-1_311_890)"/>
<path d="M44.0103 51.8903C44.5603 52.1403 44.9803 52.4803 45.2703 52.9103C45.5703 53.3303 45.7203 53.8253 45.7203 54.3953C45.7203 55.0353 45.5403 55.5953 45.1803 56.0753C44.8303 56.5553 44.3303 56.9253 43.6803 57.1853C43.0303 57.4353 42.2753 57.5603 41.4153 57.5603C40.5553 57.5603 39.8003 57.4353 39.1503 57.1853C38.5103 56.9253 38.0153 56.5553 37.6653 56.0753C37.3153 55.5953 37.1403 55.0353 37.1403 54.3953C37.1403 53.8253 37.2853 53.3303 37.5753 52.9103C37.8653 52.4803 38.2803 52.1403 38.8203 51.8903C38.4003 51.6603 38.0753 51.3603 37.8453 50.9903C37.6253 50.6103 37.5153 50.1753 37.5153 49.6853C37.5153 49.0953 37.6753 48.5803 37.9953 48.1403C38.3253 47.7003 38.7853 47.3603 39.3753 47.1203C39.9653 46.8803 40.6453 46.7603 41.4153 46.7603C42.1953 46.7603 42.8803 46.8803 43.4703 47.1203C44.0603 47.3603 44.5203 47.7003 44.8503 48.1403C45.1803 48.5803 45.3453 49.0953 45.3453 49.6853C45.3453 50.1753 45.2303 50.6053 45.0003 50.9753C44.7703 51.3453 44.4403 51.6503 44.0103 51.8903ZM41.4153 48.2903C40.8053 48.2903 40.3203 48.4203 39.9603 48.6803C39.6103 48.9403 39.4353 49.3053 39.4353 49.7753C39.4353 50.2253 39.6103 50.5853 39.9603 50.8553C40.3203 51.1153 40.8053 51.2453 41.4153 51.2453C42.0353 51.2453 42.5253 51.1153 42.8853 50.8553C43.2453 50.5853 43.4253 50.2253 43.4253 49.7753C43.4253 49.3053 43.2403 48.9403 42.8703 48.6803C42.5103 48.4203 42.0253 48.2903 41.4153 48.2903ZM41.4153 56.0303C42.1353 56.0303 42.7053 55.8803 43.1253 55.5803C43.5453 55.2803 43.7553 54.8653 43.7553 54.3353C43.7553 53.8153 43.5453 53.4053 43.1253 53.1053C42.7053 52.8053 42.1353 52.6553 41.4153 52.6553C40.6953 52.6553 40.1303 52.8053 39.7203 53.1053C39.3103 53.4053 39.1053 53.8153 39.1053 54.3353C39.1053 54.8653 39.3103 55.2803 39.7203 55.5803C40.1303 55.8803 40.6953 56.0303 41.4153 56.0303ZM54.4975 46.9103V48.2153L50.4175 57.4103H48.3325L52.2775 48.5603H48.1525V50.3453H46.3375V46.9103H54.4975ZM57.7087 52.5653C56.9587 52.5653 56.3537 52.3003 55.8937 51.7703C55.4337 51.2403 55.2037 50.5453 55.2037 49.6853C55.2037 48.8253 55.4337 48.1303 55.8937 47.6003C56.3537 47.0703 56.9587 46.8053 57.7087 46.8053C58.4587 46.8053 59.0637 47.0703 59.5237 47.6003C59.9937 48.1203 60.2287 48.8153 60.2287 49.6853C60.2287 50.5553 59.9937 51.2553 59.5237 51.7853C59.0637 52.3053 58.4587 52.5653 57.7087 52.5653ZM64.0087 46.9103H65.4787L58.3087 57.4103H56.8387L64.0087 46.9103ZM57.7087 51.5153C58.1187 51.5153 58.4337 51.3553 58.6537 51.0353C58.8837 50.7153 58.9987 50.2653 58.9987 49.6853C58.9987 49.1053 58.8837 48.6553 58.6537 48.3353C58.4337 48.0153 58.1187 47.8553 57.7087 47.8553C57.3187 47.8553 57.0037 48.0203 56.7637 48.3503C56.5337 48.6703 56.4187 49.1153 56.4187 49.6853C56.4187 50.2553 56.5337 50.7053 56.7637 51.0353C57.0037 51.3553 57.3187 51.5153 57.7087 51.5153ZM64.5937 57.5153C63.8437 57.5153 63.2387 57.2503 62.7787 56.7203C62.3187 56.1903 62.0887 55.4953 62.0887 54.6353C62.0887 53.7753 62.3187 53.0803 62.7787 52.5503C63.2387 52.0203 63.8437 51.7553 64.5937 51.7553C65.3437 51.7553 65.9487 52.0203 66.4087 52.5503C66.8787 53.0803 67.1137 53.7753 67.1137 54.6353C67.1137 55.4953 66.8787 56.1903 66.4087 56.7203C65.9487 57.2503 65.3437 57.5153 64.5937 57.5153ZM64.5937 56.4653C64.9937 56.4653 65.3087 56.3053 65.5387 55.9853C65.7687 55.6553 65.8837 55.2053 65.8837 54.6353C65.8837 54.0653 65.7687 53.6203 65.5387 53.3003C65.3087 52.9703 64.9937 52.8053 64.5937 52.8053C64.1937 52.8053 63.8787 52.9653 63.6487 53.2853C63.4187 53.6053 63.3037 54.0553 63.3037 54.6353C63.3037 55.2153 63.4187 55.6653 63.6487 55.9853C63.8787 56.3053 64.1937 56.4653 64.5937 56.4653Z" fill="#0182FC"/>
</svg>
