<svg width="101" height="101" viewBox="0 0 101 101" fill="none" xmlns="http://www.w3.org/2000/svg">
<circle cx="50.5403" cy="50.5403" r="32" transform="rotate(-75 50.5403 50.5403)" stroke="white" stroke-width="12"/>
<mask id="path-2-inside-1_311_841" fill="white">
<path d="M38.2286 20.8841C36.9815 17.8799 33.5026 16.4184 30.7269 18.1144C24.3099 22.0355 19.1596 27.7996 15.9915 34.717C12.0006 43.4307 11.4498 53.3308 14.4494 62.4335C17.4491 71.5362 23.7776 79.1693 32.1671 83.8033C40.5566 88.4373 50.3873 89.73 59.6896 87.4224C68.9919 85.1148 77.0786 79.3774 82.3296 71.3596C87.5806 63.3418 89.6079 53.6359 88.0054 44.1866C86.4029 34.7373 81.2889 26.2425 73.6881 20.4043C67.6543 15.7697 60.4071 13.0809 52.9015 12.6136C49.655 12.4115 47.2625 15.3295 47.564 18.5683C47.8655 21.8071 50.7618 24.1196 53.9863 24.5472C58.5119 25.1472 62.8383 26.9238 66.5126 29.746C71.7573 33.7745 75.286 39.636 76.3917 46.1562C77.4975 52.6763 76.0986 59.3735 72.4754 64.9059C68.8521 70.4383 63.2722 74.3972 56.8535 75.9895C50.4347 77.5818 43.6514 76.6898 37.8626 73.4922C32.0737 70.2947 27.7069 65.0278 25.6371 58.7468C23.5673 52.4658 23.9474 45.6346 26.7011 39.622C28.6304 35.4097 31.6248 31.8171 35.3453 29.1714C37.9962 27.2863 39.4758 23.8883 38.2286 20.8841Z"/>
</mask>
<path d="M38.2286 20.8841C36.9815 17.8799 33.5026 16.4184 30.7269 18.1144C24.3099 22.0355 19.1596 27.7996 15.9915 34.717C12.0006 43.4307 11.4498 53.3308 14.4494 62.4335C17.4491 71.5362 23.7776 79.1693 32.1671 83.8033C40.5566 88.4373 50.3873 89.73 59.6896 87.4224C68.9919 85.1148 77.0786 79.3774 82.3296 71.3596C87.5806 63.3418 89.6079 53.6359 88.0054 44.1866C86.4029 34.7373 81.2889 26.2425 73.6881 20.4043C67.6543 15.7697 60.4071 13.0809 52.9015 12.6136C49.655 12.4115 47.2625 15.3295 47.564 18.5683C47.8655 21.8071 50.7618 24.1196 53.9863 24.5472C58.5119 25.1472 62.8383 26.9238 66.5126 29.746C71.7573 33.7745 75.286 39.636 76.3917 46.1562C77.4975 52.6763 76.0986 59.3735 72.4754 64.9059C68.8521 70.4383 63.2722 74.3972 56.8535 75.9895C50.4347 77.5818 43.6514 76.6898 37.8626 73.4922C32.0737 70.2947 27.7069 65.0278 25.6371 58.7468C23.5673 52.4658 23.9474 45.6346 26.7011 39.622C28.6304 35.4097 31.6248 31.8171 35.3453 29.1714C37.9962 27.2863 39.4758 23.8883 38.2286 20.8841Z" stroke="#09A76D" stroke-width="24" mask="url(#path-2-inside-1_311_841)"/>
<path d="M39.2 44.7604C40.64 44.7604 41.755 45.2104 42.545 46.1104C43.345 47.0104 43.745 48.3004 43.745 49.9804C43.745 51.1604 43.53 52.1704 43.1 53.0104C42.67 53.8404 42.065 54.4754 41.285 54.9154C40.515 55.3454 39.62 55.5604 38.6 55.5604C38.06 55.5604 37.55 55.5054 37.07 55.3954C36.6 55.2754 36.19 55.1054 35.84 54.8854L36.56 53.4154C37.08 53.7554 37.745 53.9254 38.555 53.9254C39.565 53.9254 40.355 53.6154 40.925 52.9954C41.495 52.3754 41.78 51.4804 41.78 50.3104V50.2954C41.47 50.6554 41.075 50.9304 40.595 51.1204C40.115 51.3004 39.575 51.3904 38.975 51.3904C38.285 51.3904 37.665 51.2604 37.115 51.0004C36.565 50.7304 36.135 50.3504 35.825 49.8604C35.515 49.3704 35.36 48.8054 35.36 48.1654C35.36 47.4854 35.53 46.8904 35.87 46.3804C36.21 45.8604 36.67 45.4604 37.25 45.1804C37.83 44.9004 38.48 44.7604 39.2 44.7604ZM39.35 49.8604C39.98 49.8604 40.49 49.6904 40.88 49.3504C41.28 49.0104 41.48 48.5804 41.48 48.0604C41.48 47.5504 41.285 47.1304 40.895 46.8004C40.515 46.4604 39.985 46.2904 39.305 46.2904C38.695 46.2904 38.2 46.4554 37.82 46.7854C37.44 47.1054 37.25 47.5354 37.25 48.0754C37.25 48.6254 37.44 49.0604 37.82 49.3804C38.2 49.7004 38.71 49.8604 39.35 49.8604ZM49.0363 55.5604C48.1963 55.5604 47.4463 55.3504 46.7863 54.9304C46.1263 54.5004 45.6063 53.8804 45.2263 53.0704C44.8463 52.2504 44.6563 51.2804 44.6563 50.1604C44.6563 49.0404 44.8463 48.0754 45.2263 47.2654C45.6063 46.4454 46.1263 45.8254 46.7863 45.4054C47.4463 44.9754 48.1963 44.7604 49.0363 44.7604C49.8763 44.7604 50.6263 44.9754 51.2863 45.4054C51.9563 45.8254 52.4813 46.4454 52.8613 47.2654C53.2413 48.0754 53.4313 49.0404 53.4313 50.1604C53.4313 51.2804 53.2413 52.2504 52.8613 53.0704C52.4813 53.8804 51.9563 54.5004 51.2863 54.9304C50.6263 55.3504 49.8763 55.5604 49.0363 55.5604ZM49.0363 53.8654C49.7863 53.8654 50.3763 53.5554 50.8063 52.9354C51.2463 52.3154 51.4663 51.3904 51.4663 50.1604C51.4663 48.9304 51.2463 48.0054 50.8063 47.3854C50.3763 46.7654 49.7863 46.4554 49.0363 46.4554C48.2963 46.4554 47.7063 46.7654 47.2663 47.3854C46.8363 48.0054 46.6213 48.9304 46.6213 50.1604C46.6213 51.3904 46.8363 52.3154 47.2663 52.9354C47.7063 53.5554 48.2963 53.8654 49.0363 53.8654ZM56.6811 50.5654C55.9311 50.5654 55.3261 50.3004 54.8661 49.7704C54.4061 49.2404 54.1761 48.5454 54.1761 47.6854C54.1761 46.8254 54.4061 46.1304 54.8661 45.6004C55.3261 45.0704 55.9311 44.8054 56.6811 44.8054C57.4311 44.8054 58.0361 45.0704 58.4961 45.6004C58.9661 46.1204 59.2011 46.8154 59.2011 47.6854C59.2011 48.5554 58.9661 49.2554 58.4961 49.7854C58.0361 50.3054 57.4311 50.5654 56.6811 50.5654ZM62.9811 44.9104H64.4511L57.2811 55.4104H55.8111L62.9811 44.9104ZM56.6811 49.5154C57.0911 49.5154 57.4061 49.3554 57.6261 49.0354C57.8561 48.7154 57.9711 48.2654 57.9711 47.6854C57.9711 47.1054 57.8561 46.6554 57.6261 46.3354C57.4061 46.0154 57.0911 45.8554 56.6811 45.8554C56.2911 45.8554 55.9761 46.0204 55.7361 46.3504C55.5061 46.6704 55.3911 47.1154 55.3911 47.6854C55.3911 48.2554 55.5061 48.7054 55.7361 49.0354C55.9761 49.3554 56.2911 49.5154 56.6811 49.5154ZM63.5661 55.5154C62.8161 55.5154 62.2111 55.2504 61.7511 54.7204C61.2911 54.1904 61.0611 53.4954 61.0611 52.6354C61.0611 51.7754 61.2911 51.0804 61.7511 50.5504C62.2111 50.0204 62.8161 49.7554 63.5661 49.7554C64.3161 49.7554 64.9211 50.0204 65.3811 50.5504C65.8511 51.0804 66.0861 51.7754 66.0861 52.6354C66.0861 53.4954 65.8511 54.1904 65.3811 54.7204C64.9211 55.2504 64.3161 55.5154 63.5661 55.5154ZM63.5661 54.4654C63.9661 54.4654 64.2811 54.3054 64.5111 53.9854C64.7411 53.6554 64.8561 53.2054 64.8561 52.6354C64.8561 52.0654 64.7411 51.6204 64.5111 51.3004C64.2811 50.9704 63.9661 50.8054 63.5661 50.8054C63.1661 50.8054 62.8511 50.9654 62.6211 51.2854C62.3911 51.6054 62.2761 52.0554 62.2761 52.6354C62.2761 53.2154 62.3911 53.6654 62.6211 53.9854C62.8511 54.3054 63.1661 54.4654 63.5661 54.4654Z" fill="#09A76D"/>
</svg>
