<svg width="36" height="36" viewBox="0 0 36 36" fill="none" xmlns="http://www.w3.org/2000/svg">
<g clip-path="url(#clip0_209_363)">
<path d="M30.0938 26.1562C30.7539 26.1562 31.2891 26.6914 31.2891 27.3516C31.2891 28.0117 30.7539 28.5469 30.0938 28.5469C29.4336 28.5469 28.8984 28.0117 28.8984 27.3516C28.8984 26.6914 29.4336 26.1562 30.0938 26.1562Z" fill="#DF5A48"/>
<path d="M30.5 27.6765C30.3979 27.7984 30.2537 27.8745 30.0938 27.8745C29.9338 27.8745 29.7896 27.7984 29.6875 27.6765C29.5149 27.7903 29.4027 27.9746 29.4027 28.1827C29.4027 28.238 29.4107 28.2917 29.4256 28.3428C29.6163 28.4717 29.8463 28.5469 30.0938 28.5469C30.3412 28.5469 30.5712 28.4717 30.7619 28.3428C30.7768 28.2917 30.7848 28.238 30.7848 28.1827C30.7848 27.9746 30.6726 27.7903 30.5 27.6765ZM30.5151 28.0994L30.4576 28.1392L30.48 28.2042C30.4827 28.2121 30.4798 28.2209 30.4729 28.2258C30.4694 28.2282 30.4653 28.2295 30.4612 28.2295C30.4571 28.2295 30.453 28.2282 30.4495 28.2257L30.3926 28.185L30.3358 28.2257C30.3323 28.2282 30.3282 28.2295 30.324 28.2295C30.32 28.2295 30.3159 28.2282 30.3124 28.2258C30.3054 28.2209 30.3026 28.2121 30.3053 28.2042L30.3276 28.1392L30.2701 28.0994C30.2631 28.0945 30.2602 28.0858 30.2628 28.0779C30.2655 28.07 30.2731 28.0646 30.2817 28.0646H30.2818L30.3525 28.0652L30.3738 27.9999C30.3764 27.9919 30.384 27.9865 30.3926 27.9865C30.4012 27.9865 30.4089 27.9919 30.4115 27.9999L30.4328 28.0652L30.5034 28.0646H30.5036C30.5121 28.0646 30.5198 28.07 30.5224 28.0779C30.5251 28.0858 30.5221 28.0945 30.5151 28.0994Z" fill="#EFC84A"/>
<path d="M30.5036 28.0647H30.5034L30.4328 28.0652L30.4115 27.9999C30.4089 27.992 30.4012 27.9865 30.3926 27.9865C30.384 27.9865 30.3764 27.992 30.3738 27.9999L30.3525 28.0652L30.2818 28.0647H30.2817C30.2731 28.0647 30.2655 28.07 30.2628 28.0779C30.2602 28.0859 30.2631 28.0945 30.2702 28.0994L30.3276 28.1393L30.3053 28.2042C30.3026 28.2122 30.3054 28.2209 30.3124 28.2258C30.3159 28.2283 30.32 28.2295 30.3241 28.2295C30.3282 28.2295 30.3323 28.2282 30.3358 28.2257L30.3927 28.185L30.4495 28.2257C30.453 28.2282 30.4571 28.2295 30.4612 28.2295C30.4653 28.2295 30.4694 28.2282 30.4729 28.2258C30.4798 28.2209 30.4827 28.2122 30.48 28.2042L30.4577 28.1393L30.5151 28.0994C30.5221 28.0945 30.5251 28.0859 30.5224 28.0779C30.5198 28.07 30.5121 28.0647 30.5036 28.0647Z" fill="#3B5766"/>
<path d="M30.0938 27.8745C30.2537 27.8745 30.3979 27.7984 30.5 27.6766C30.5954 27.5627 30.654 27.4089 30.654 27.2395C30.654 27.1631 30.6421 27.0898 30.6203 27.0219C30.5772 27.0287 30.5325 27.0325 30.4863 27.0325C30.295 27.0325 30.1257 26.9709 30.022 26.8763C29.9245 26.9786 29.754 27.0478 29.5582 27.0524C29.5421 27.1116 29.5334 27.1744 29.5334 27.2395C29.5334 27.4089 29.5921 27.5627 29.6875 27.6765C29.7896 27.7984 29.9338 27.8745 30.0938 27.8745ZM30.1817 27.623C30.1524 27.644 30.1226 27.6511 30.0959 27.6511C30.0446 27.6511 30.0048 27.6252 30.0024 27.6235C29.9895 27.615 29.986 27.5976 29.9945 27.5847C30.0031 27.5718 30.0204 27.5684 30.0332 27.5768C30.0358 27.5785 30.0951 27.6162 30.1489 27.5775C30.1615 27.5685 30.179 27.5713 30.1881 27.5838C30.1971 27.5964 30.1942 27.6139 30.1817 27.623ZM30.2712 27.1835C30.3279 27.1835 30.3739 27.2295 30.3739 27.2862C30.3739 27.3429 30.3279 27.3889 30.2712 27.3889C30.2145 27.3889 30.1685 27.3429 30.1685 27.2862C30.1685 27.2295 30.2145 27.1835 30.2712 27.1835ZM29.9163 27.1835C29.973 27.1835 30.019 27.2295 30.019 27.2862C30.019 27.3429 29.973 27.3889 29.9163 27.3889C29.8596 27.3889 29.8136 27.3429 29.8136 27.2862C29.8136 27.2295 29.8596 27.1835 29.9163 27.1835Z" fill="#E09274"/>
<path d="M30.022 26.8763C30.1258 26.9709 30.295 27.0325 30.4863 27.0325C30.5325 27.0325 30.5773 27.0287 30.6203 27.0219C30.6253 27.0211 30.6304 27.0204 30.6353 27.0196C30.5541 26.7556 30.3402 26.5671 30.0891 26.5671C29.8276 26.5671 29.6065 26.7715 29.5335 27.0527L29.5369 27.0527C29.5441 27.0527 29.5511 27.0526 29.5582 27.0525C29.754 27.0478 29.9245 26.9786 30.022 26.8763Z" fill="#752C00"/>
<path d="M30.2712 27.3889C30.3279 27.3889 30.3739 27.3429 30.3739 27.2862C30.3739 27.2295 30.3279 27.1835 30.2712 27.1835C30.2145 27.1835 30.1685 27.2295 30.1685 27.2862C30.1685 27.3429 30.2145 27.3889 30.2712 27.3889ZM30.2712 27.2395C30.297 27.2395 30.3179 27.2604 30.3179 27.2862C30.3179 27.312 30.297 27.3329 30.2712 27.3329C30.2454 27.3329 30.2245 27.312 30.2245 27.2862C30.2245 27.2604 30.2454 27.2395 30.2712 27.2395Z" fill="white"/>
<path d="M29.9163 27.3889C29.973 27.3889 30.019 27.3429 30.019 27.2862C30.019 27.2295 29.973 27.1835 29.9163 27.1835C29.8596 27.1835 29.8136 27.2295 29.8136 27.2862C29.8136 27.3429 29.8596 27.3889 29.9163 27.3889ZM29.9163 27.2395C29.9421 27.2395 29.963 27.2604 29.963 27.2862C29.963 27.312 29.9421 27.3329 29.9163 27.3329C29.8905 27.3329 29.8696 27.312 29.8696 27.2862C29.8696 27.2604 29.8905 27.2395 29.9163 27.2395Z" fill="white"/>
<path d="M30.2712 27.3329C30.297 27.3329 30.3179 27.312 30.3179 27.2862C30.3179 27.2604 30.297 27.2395 30.2712 27.2395C30.2454 27.2395 30.2245 27.2604 30.2245 27.2862C30.2245 27.312 30.2454 27.3329 30.2712 27.3329Z" fill="#334D5D"/>
<path d="M29.9164 27.3329C29.9421 27.3329 29.963 27.312 29.963 27.2862C29.963 27.2604 29.9421 27.2395 29.9164 27.2395C29.8906 27.2395 29.8697 27.2604 29.8697 27.2862C29.8697 27.312 29.8906 27.3329 29.9164 27.3329Z" fill="#334D5D"/>
<path d="M30.1489 27.5775C30.0951 27.6162 30.0358 27.5785 30.0332 27.5768C30.0204 27.5684 30.0031 27.5719 29.9945 27.5847C29.986 27.5976 29.9895 27.615 30.0024 27.6235C30.0048 27.6252 30.0446 27.6511 30.0959 27.6511C30.1226 27.6511 30.1524 27.644 30.1817 27.623C30.1942 27.6139 30.1971 27.5964 30.1881 27.5838C30.179 27.5713 30.1615 27.5685 30.1489 27.5775Z" fill="#9C6550"/>
</g>
<g clip-path="url(#clip1_209_363)">
<path d="M18 36C27.9411 36 36 27.9411 36 18C36 8.05887 27.9411 0 18 0C8.05887 0 0 8.05887 0 18C0 27.9411 8.05887 36 18 36Z" fill="#D35933"/>
<path d="M19.6233 35.9263C27.044 35.2628 33.1673 30.0968 35.2423 23.1791L21.3646 9.30142L19.6263 14.2291L9.99998 26.3031L19.6233 35.9263Z" fill="#B54324"/>
<path d="M26 18.4041C26 17.0763 24.9237 16.0001 23.596 16.0001H12.4041C11.0763 16 9.99998 17.0764 9.99998 18.4041V26.303H26V18.4041Z" fill="#386895"/>
<path d="M26 18.4041C26 17.0763 24.9237 16.0001 23.596 16.0001H17.9596V26.3031H26V18.4041Z" fill="#273B7A"/>
<path d="M18 18C20.7614 18 23 15.7614 23 13C23 10.2386 20.7614 8.00003 18 8.00003C15.2386 8.00003 13 10.2386 13 13C13 15.7614 15.2386 18 18 18Z" fill="#FFEDB5"/>
<path d="M18 8.00003C17.9864 8.00003 17.9731 8.00101 17.9596 8.00101V17.999C17.9731 17.9991 17.9864 17.9999 18 17.9999C20.7615 17.9999 23 15.7614 23 13C23 10.2385 20.7615 8.00003 18 8.00003Z" fill="#FEE187"/>
<path d="M26 30C28.2092 30 30 28.2092 30 26C30 23.7909 28.2092 22 26 22C23.7909 22 22 23.7909 22 26C22 28.2092 23.7909 30 26 30Z" fill="#FFC61B"/>
<path d="M28 25.6364H26.3636V24C26.3636 23.7991 26.2008 23.6363 25.9999 23.6363C25.7991 23.6363 25.6363 23.7991 25.6363 24V25.6364H23.9999C23.799 25.6364 23.6362 25.7991 23.6362 26C23.6362 26.2009 23.799 26.3637 23.9999 26.3637H25.6363V28.0001C25.6363 28.2009 25.7991 28.3637 25.9999 28.3637C26.2008 28.3637 26.3636 28.2009 26.3636 28.0001V26.3637H28C28.2009 26.3637 28.3636 26.2009 28.3636 26C28.3636 25.7991 28.2009 25.6364 28 25.6364Z" fill="#273B7A"/>
</g>
<defs>
<clipPath id="clip0_209_363">
<rect width="2.39062" height="2.39062" fill="white" transform="translate(28.8984 26.1562)"/>
</clipPath>
<clipPath id="clip1_209_363">
<rect width="36" height="36" fill="white"/>
</clipPath>
</defs>
</svg>
