<svg width="18" height="18" viewBox="0 0 18 18" fill="none" xmlns="http://www.w3.org/2000/svg">
<g clip-path="url(#clip0_182_851)">
<path d="M9 0C4.02571 0 0 4.02525 0 9C0 13.9742 4.02525 18 9 18C13.9743 18 18 13.9747 18 9C18 4.02571 13.9747 0 9 0ZM9 16.7442C4.72985 16.7442 1.25582 13.2702 1.25582 9C1.25582 4.72982 4.72985 1.25582 9 1.25582C13.2702 1.25582 16.7442 4.72982 16.7442 9C16.7442 13.2702 13.2702 16.7442 9 16.7442Z" fill="black" fill-opacity="0.7"/>
<path d="M8.73385 11.388C8.23628 11.388 7.8335 11.8026 7.8335 12.3001C7.8335 12.7859 8.22443 13.2124 8.73385 13.2124C9.24326 13.2124 9.64601 12.7859 9.64601 12.3001C9.64601 11.8026 9.23138 11.388 8.73385 11.388Z" fill="black" fill-opacity="0.7"/>
<path d="M8.88752 4.48133C7.28819 4.48133 6.55371 5.42911 6.55371 6.06881C6.55371 6.53083 6.94465 6.74409 7.2645 6.74409C7.90424 6.74409 7.64363 5.83186 8.85198 5.83186C9.44429 5.83186 9.9182 6.09251 9.9182 6.63746C9.9182 7.27717 9.25477 7.64441 8.86383 7.97611C8.52025 8.27223 8.07011 8.75798 8.07011 9.77681C8.07011 10.3928 8.23597 10.5705 8.72166 10.5705C9.30212 10.5705 9.4206 10.3099 9.4206 10.0848C9.4206 9.46877 9.43244 9.11338 10.084 8.60396C10.4039 8.3552 11.4108 7.54959 11.4108 6.43602C11.4108 5.32244 10.4039 4.48133 8.88752 4.48133Z" fill="black" fill-opacity="0.7"/>
</g>
<defs>
<clipPath id="clip0_182_851">
<rect width="18" height="18" fill="white"/>
</clipPath>
</defs>
</svg>
