<svg width="18" height="18" viewBox="0 0 18 18" fill="none" xmlns="http://www.w3.org/2000/svg">
<g clip-path="url(#clip0_182_830)">
<path d="M6.88044 9.42395C6.85158 9.27946 5.85729 4.30801 5.82575 4.15048C5.7765 3.904 5.56004 3.72656 5.30867 3.72656H4.25399C4.00262 3.72656 3.78616 3.904 3.73691 4.15048C3.70488 4.31068 2.70957 9.28719 2.68222 9.42392C2.62509 9.70952 2.81033 9.98733 3.0959 10.0444C3.38148 10.1016 3.65932 9.91631 3.71641 9.63074L4.05349 7.94531H5.50917L5.84625 9.63077C5.90338 9.91649 6.18132 10.1016 6.46675 10.0445C6.75233 9.98733 6.93757 9.70952 6.88044 9.42395ZM4.26443 6.89063L4.6863 4.78125H4.87636L5.29823 6.89063H4.26443Z" fill="black" fill-opacity="0.7"/>
<path d="M15.3281 7.94531H13.7461V7.41797C13.7461 7.12673 13.51 6.89062 13.2188 6.89062C12.9275 6.89062 12.6914 7.12673 12.6914 7.41797V7.94531H11.1094C10.8181 7.94531 10.582 8.18142 10.582 8.47266C10.582 8.76389 10.8181 9 11.1094 9H11.237C11.5375 9.97073 11.9899 10.7158 12.4877 11.3129C12.0825 11.6835 11.6725 11.9875 11.3073 12.2796C11.0799 12.4616 11.043 12.7934 11.225 13.0208C11.407 13.2484 11.7389 13.285 11.9662 13.1032C12.3334 12.8094 12.7736 12.4829 13.2188 12.0743C13.6642 12.4831 14.1052 12.8102 14.4713 13.1032C14.6988 13.2851 15.0306 13.2482 15.2125 13.0208C15.3945 12.7934 15.3576 12.4615 15.1302 12.2796C14.7659 11.9881 14.3554 11.6839 13.9498 11.3129C14.4476 10.7158 14.9 9.97073 15.2005 9H15.3281C15.6194 9 15.8555 8.76389 15.8555 8.47266C15.8555 8.18142 15.6194 7.94531 15.3281 7.94531ZM13.2188 10.5379C12.8821 10.1153 12.5793 9.61095 12.351 8.99648H14.0865C13.8582 9.61095 13.5554 10.1153 13.2188 10.5379Z" fill="black" fill-opacity="0.7"/>
<path d="M16.418 3.19922H8.81012L8.58407 1.38579C8.48531 0.595758 7.81045 0 7.01427 0H1.58203C0.709699 0 0 0.709699 0 1.58203V13.2188C0 14.0911 0.709699 14.8008 1.58203 14.8008H6.0287L6.25187 16.6142C6.35045 17.4027 7.02531 18 7.8217 18H16.418C17.2903 18 18 17.2903 18 16.418V4.78125C18 3.90892 17.2903 3.19922 16.418 3.19922ZM1.58203 13.7461C1.29125 13.7461 1.05469 13.5095 1.05469 13.2188V1.58203C1.05469 1.29125 1.29125 1.05469 1.58203 1.05469H7.01427C7.27966 1.05469 7.50463 1.25325 7.5375 1.51643C7.61393 2.12941 8.98622 13.138 9.06202 13.7461H1.58203ZM7.26764 16.2334L7.09133 14.8008H8.50616L7.26764 16.2334ZM16.9453 16.418C16.9453 16.7087 16.7087 16.9453 16.418 16.9453H8.04635L10.0539 14.6231C10.1567 14.5072 10.2027 14.3533 10.1815 14.2004L8.94161 4.25391H16.418C16.7087 4.25391 16.9453 4.49047 16.9453 4.78125V16.418Z" fill="black" fill-opacity="0.7"/>
</g>
<defs>
<clipPath id="clip0_182_830">
<rect width="18" height="18" fill="white"/>
</clipPath>
</defs>
</svg>
