<svg width="18" height="18" viewBox="0 0 18 18" fill="none" xmlns="http://www.w3.org/2000/svg">
<path d="M15.2801 11.7744C15.0227 11.7744 14.8134 11.565 14.8134 11.3076V8.01066C14.8134 5.40768 13.0937 3.19885 10.7307 2.46054C10.8017 2.26272 10.8393 2.0527 10.8393 1.83902C10.8393 0.824997 10.0143 0 9.00022 0C7.98613 0 7.16117 0.824997 7.16117 1.83905C7.16117 2.0544 7.19796 2.2641 7.26853 2.46096C4.90623 3.19963 3.18708 5.40814 3.18708 8.0107V11.3076C3.18708 11.565 2.9777 11.7744 2.72037 11.7744C1.69123 11.7744 0.854004 12.6117 0.854004 13.6408C0.854004 14.6699 1.69123 15.5071 2.72037 15.5071H7.07428C7.03222 15.6694 7.01021 15.838 7.01021 16.01C7.01021 17.1073 7.90295 18 9.00022 18C10.0975 18 10.9902 17.1073 10.9902 16.01C10.9902 15.838 10.9682 15.6694 10.9261 15.5071H15.28C16.3092 15.5071 17.1464 14.6699 17.1464 13.6408C17.1465 12.6116 16.3092 11.7744 15.2801 11.7744ZM8.22131 1.83905C8.22131 1.40956 8.57073 1.06014 9.00022 1.06014C9.42972 1.06014 9.77914 1.40956 9.77914 1.83905C9.77914 1.97987 9.74105 2.11695 9.67019 2.23639C9.45029 2.21105 9.22681 2.19755 9.00022 2.19755C8.77389 2.19755 8.55066 2.21102 8.33096 2.23632C8.26 2.11723 8.22131 1.98125 8.22131 1.83905ZM9.93014 16.01C9.93014 16.5227 9.51298 16.9399 9.00026 16.9399C8.48754 16.9399 8.07038 16.5227 8.07038 16.01C8.07038 15.8288 8.12204 15.6557 8.21799 15.5071H9.7825C9.87848 15.6557 9.93014 15.8288 9.93014 16.01ZM15.2801 14.447H2.72037C2.27582 14.447 1.91414 14.0853 1.91414 13.6407C1.91414 13.1962 2.27582 12.8345 2.72037 12.8345C3.56226 12.8345 4.24721 12.1495 4.24721 11.3076V8.01066C4.24721 5.38983 6.37939 3.25765 9.00022 3.25765C11.6211 3.25765 13.7532 5.38983 13.7532 8.01066V11.3076C13.7532 12.1495 14.4382 12.8345 15.2801 12.8345C15.7246 12.8345 16.0863 13.1962 16.0863 13.6407C16.0863 14.0853 15.7246 14.447 15.2801 14.447Z" fill="black" fill-opacity="0.7"/>
</svg>
