<svg width="141" height="136" viewBox="0 0 141 136" fill="none" xmlns="http://www.w3.org/2000/svg">
<path d="M9.25 115.972C7.15 115.972 5.35 116.872 4.25 118.572V110.672H2.475V129.222H4.175V126.622C5.25 128.397 7.075 129.347 9.25 129.347C13 129.347 15.8 126.622 15.8 122.647C15.8 118.672 13 115.972 9.25 115.972ZM9.125 127.772C6.325 127.772 4.225 125.722 4.225 122.647C4.225 119.572 6.325 117.522 9.125 117.522C11.9 117.522 14.025 119.572 14.025 122.647C14.025 125.722 11.9 127.772 9.125 127.772ZM30.8934 122.647C30.8934 118.697 28.2184 115.972 24.5184 115.972C20.8184 115.972 18.0934 118.747 18.0934 122.647C18.0934 126.547 20.8934 129.347 24.9934 129.347C27.0684 129.347 28.8934 128.597 30.0684 127.197L29.0684 126.047C28.0684 127.197 26.6434 127.772 25.0434 127.772C22.1684 127.772 20.0684 125.947 19.8684 123.197H30.8684C30.8684 122.997 30.8934 122.797 30.8934 122.647ZM24.5184 117.497C27.0934 117.497 28.9684 119.297 29.1934 121.872H19.8684C20.0934 119.297 21.9684 117.497 24.5184 117.497ZM48.7613 111.722C50.3113 111.722 51.653 111.981 52.7863 112.497C53.9363 113.014 54.8197 113.747 55.4363 114.697C56.053 115.647 56.3613 116.772 56.3613 118.072C56.3613 119.356 56.053 120.481 55.4363 121.447C54.8197 122.397 53.9363 123.131 52.7863 123.647C51.653 124.147 50.3113 124.397 48.7613 124.397H45.2363V129.222H41.1863V111.722H48.7613ZM48.5363 121.097C49.753 121.097 50.678 120.839 51.3113 120.322C51.9447 119.789 52.2613 119.039 52.2613 118.072C52.2613 117.089 51.9447 116.339 51.3113 115.822C50.678 115.289 49.753 115.022 48.5363 115.022H45.2363V121.097H48.5363ZM62.7027 117.547C63.1694 116.897 63.7944 116.406 64.5777 116.072C65.3777 115.739 66.2944 115.572 67.3277 115.572V119.172C66.8944 119.139 66.6027 119.122 66.4527 119.122C65.3361 119.122 64.4611 119.439 63.8277 120.072C63.1944 120.689 62.8777 121.622 62.8777 122.872V129.222H58.9777V115.772H62.7027V117.547ZM82.6996 122.547C82.6996 122.597 82.6746 122.947 82.6246 123.597H72.4496C72.6329 124.431 73.0663 125.089 73.7496 125.572C74.4329 126.056 75.2829 126.297 76.2996 126.297C76.9996 126.297 77.6163 126.197 78.1496 125.997C78.6996 125.781 79.2079 125.447 79.6746 124.997L81.7496 127.247C80.4829 128.697 78.6329 129.422 76.1996 129.422C74.6829 129.422 73.3413 129.131 72.1746 128.547C71.0079 127.947 70.1079 127.122 69.4746 126.072C68.8413 125.022 68.5246 123.831 68.5246 122.497C68.5246 121.181 68.8329 119.997 69.4496 118.947C70.0829 117.881 70.9413 117.056 72.0246 116.472C73.1246 115.872 74.3496 115.572 75.6996 115.572C77.0163 115.572 78.2079 115.856 79.2746 116.422C80.3413 116.989 81.1746 117.806 81.7746 118.872C82.3913 119.922 82.6996 121.147 82.6996 122.547ZM75.7246 118.522C74.8413 118.522 74.0996 118.772 73.4996 119.272C72.8996 119.772 72.5329 120.456 72.3996 121.322H79.0246C78.8913 120.472 78.5246 119.797 77.9246 119.297C77.3246 118.781 76.5913 118.522 75.7246 118.522ZM89.8211 129.422C88.7044 129.422 87.6128 129.289 86.5461 129.022C85.4794 128.739 84.6294 128.389 83.9961 127.972L85.2961 125.172C85.8961 125.556 86.6211 125.872 87.4711 126.122C88.3211 126.356 89.1544 126.472 89.9711 126.472C91.6211 126.472 92.4461 126.064 92.4461 125.247C92.4461 124.864 92.2211 124.589 91.7711 124.422C91.3211 124.256 90.6294 124.114 89.6961 123.997C88.5961 123.831 87.6878 123.639 86.9711 123.422C86.2544 123.206 85.6294 122.822 85.0961 122.272C84.5794 121.722 84.3211 120.939 84.3211 119.922C84.3211 119.072 84.5628 118.322 85.0461 117.672C85.5461 117.006 86.2628 116.489 87.1961 116.122C88.1461 115.756 89.2628 115.572 90.5461 115.572C91.4961 115.572 92.4378 115.681 93.3711 115.897C94.3211 116.097 95.1044 116.381 95.7211 116.747L94.4211 119.522C93.2378 118.856 91.9461 118.522 90.5461 118.522C89.7128 118.522 89.0878 118.639 88.6711 118.872C88.2544 119.106 88.0461 119.406 88.0461 119.772C88.0461 120.189 88.2711 120.481 88.7211 120.647C89.1711 120.814 89.8878 120.972 90.8711 121.122C91.9711 121.306 92.8711 121.506 93.5711 121.722C94.2711 121.922 94.8794 122.297 95.3961 122.847C95.9128 123.397 96.1711 124.164 96.1711 125.147C96.1711 125.981 95.9211 126.722 95.4211 127.372C94.9211 128.022 94.1878 128.531 93.2211 128.897C92.2711 129.247 91.1378 129.422 89.8211 129.422ZM111.752 122.547C111.752 122.597 111.727 122.947 111.677 123.597H101.502C101.686 124.431 102.119 125.089 102.802 125.572C103.486 126.056 104.336 126.297 105.352 126.297C106.052 126.297 106.669 126.197 107.202 125.997C107.752 125.781 108.261 125.447 108.727 124.997L110.802 127.247C109.536 128.697 107.686 129.422 105.252 129.422C103.736 129.422 102.394 129.131 101.227 128.547C100.061 127.947 99.1607 127.122 98.5273 126.072C97.894 125.022 97.5773 123.831 97.5773 122.497C97.5773 121.181 97.8857 119.997 98.5023 118.947C99.1357 117.881 99.994 117.056 101.077 116.472C102.177 115.872 103.402 115.572 104.752 115.572C106.069 115.572 107.261 115.856 108.327 116.422C109.394 116.989 110.227 117.806 110.827 118.872C111.444 119.922 111.752 121.147 111.752 122.547ZM104.777 118.522C103.894 118.522 103.152 118.772 102.552 119.272C101.952 119.772 101.586 120.456 101.452 121.322H108.077C107.944 120.472 107.577 119.797 106.977 119.297C106.377 118.781 105.644 118.522 104.777 118.522ZM122.524 115.572C124.19 115.572 125.532 116.072 126.549 117.072C127.582 118.072 128.099 119.556 128.099 121.522V129.222H124.199V122.122C124.199 121.056 123.965 120.264 123.499 119.747C123.032 119.214 122.357 118.947 121.474 118.947C120.49 118.947 119.707 119.256 119.124 119.872C118.54 120.472 118.249 121.372 118.249 122.572V129.222H114.349V115.772H118.074V117.347C118.59 116.781 119.232 116.347 119.999 116.047C120.765 115.731 121.607 115.572 122.524 115.572ZM140.309 128.572C139.926 128.856 139.451 129.072 138.884 129.222C138.334 129.356 137.751 129.422 137.134 129.422C135.534 129.422 134.292 129.014 133.409 128.197C132.542 127.381 132.109 126.181 132.109 124.597V119.072H130.034V116.072H132.109V112.797H136.009V116.072H139.359V119.072H136.009V124.547C136.009 125.114 136.151 125.556 136.434 125.872C136.734 126.172 137.151 126.322 137.684 126.322C138.301 126.322 138.826 126.156 139.259 125.822L140.309 128.572Z" fill="white"/>
<g clip-path="url(#clip0_440_938)">
<path d="M92.6341 81.8276C78.7442 64.5696 49.1975 69.863 49.1975 69.863V10.6389C71.5409 8.22233 84.2423 22.6104 88.0668 27.8254C83.2266 22.506 70.1098 15.7358 55.6031 16.185V62.7493C55.6031 62.7493 83.4967 62.0446 92.6341 81.8276Z" fill="white"/>
<path d="M47.2399 13.6242V18.0204H44.6957V76.6579C44.6957 76.6579 83.735 70.3823 95.9621 88.8176C95.9621 88.8176 78.644 74.3046 37.3567 83.13V13.6242H47.2399Z" fill="white"/>
<path d="M34.4577 24.1147V28.5109H31.9095V87.1484C31.9095 87.1484 83.7324 77.0673 95.9609 95.5013C95.9609 95.5013 76.5455 81.4498 24.5718 93.6205V24.1147H34.4577Z" fill="white"/>
<path d="M65.1106 4.83998C65.1106 4.83998 107.829 13.6242 97.8293 88.8135C97.8293 88.8135 124.68 10.3669 65.1106 4.83998Z" fill="white"/>
<path d="M116 12.0168L109.582 1.78596L96.7395 -7.62939e-06L98.4489 2.49898L96.941 4.94026C96.8423 4.94058 96.7457 4.96833 96.6618 5.02043C96.5779 5.07253 96.5101 5.14694 96.466 5.23537C96.4218 5.3238 96.4029 5.42278 96.4115 5.5213C96.4201 5.61982 96.4559 5.71402 96.5147 5.79341L94.8534 7.12602L95.6292 7.60822L96.4037 8.08906L96.8533 6.0036C96.9505 6.02084 97.0506 6.01076 97.1425 5.97447C97.2344 5.93817 97.3144 5.87709 97.3738 5.79798C97.4331 5.71887 97.4694 5.62483 97.4787 5.5263C97.488 5.42777 97.4698 5.32858 97.4263 5.23975L98.797 3.01416L100.645 5.71785L100.024 6.72485C98.69 7.11136 97.4968 7.87793 96.5895 8.93135C95.6822 9.98477 95.0998 11.2797 94.913 12.6587C94.7263 14.0376 94.9433 15.4413 95.5376 16.699C96.132 17.9567 97.0781 19.0142 98.2609 19.7431C99.4438 20.4719 100.812 20.8407 102.2 20.8045C103.589 20.7684 104.936 20.3288 106.08 19.5394C107.223 18.7499 108.113 17.6445 108.641 16.3576C109.17 15.0707 109.314 13.6576 109.056 12.2902L109.66 11.312L116 12.0168Z" fill="white"/>
</g>
<defs>
<clipPath id="clip0_440_938">
<rect width="91.4255" height="95.4889" fill="white" transform="translate(24.5745)"/>
</clipPath>
</defs>
</svg>
