<svg width="18" height="18" viewBox="0 0 18 18" fill="none" xmlns="http://www.w3.org/2000/svg">
<g clip-path="url(#clip0_182_845)">
<path d="M10.7556 12.8482C11.3781 12.3367 11.7758 11.5612 11.7758 10.6945C11.7758 9.15793 10.5257 7.90782 8.98911 7.90782C7.45253 7.90782 6.20242 9.15793 6.20242 10.6945C6.20242 11.5612 6.60013 12.3365 7.2225 12.8481C5.94809 13.4948 5.07275 14.8182 5.07275 16.3424V17.4727C5.07275 17.7639 5.30882 18 5.6001 18H12.3781C12.6694 18 12.9055 17.7639 12.9055 17.4727V16.3424C12.9055 14.8182 12.0303 13.4949 10.7556 12.8482ZM8.98911 8.96251C9.94423 8.96251 10.7211 9.73952 10.7211 10.6945C10.7211 11.6496 9.94423 12.4266 8.98911 12.4266C8.03412 12.4266 7.25711 11.6496 7.25711 10.6945C7.25711 9.73952 8.03412 8.96251 8.98911 8.96251ZM11.8508 16.9453H6.12744V16.3424C6.12744 14.7648 7.41092 13.4813 8.98965 13.4813C10.5673 13.4813 11.8509 14.7648 11.8509 16.3424V16.9453H11.8508Z" fill="black" fill-opacity="0.7"/>
<path d="M4.93105 6.01034L5.86269 4.92256C6.11881 4.62373 5.96816 4.15819 5.58474 4.06659L4.19153 3.73398L3.44501 2.51175C3.2474 2.1882 2.75809 2.16307 2.54496 2.51175L1.7983 3.73398L0.405096 4.06659C0.0220847 4.15805 -0.129389 4.62332 0.127004 4.92256L1.05864 6.01034L0.94425 7.43788C0.913351 7.82474 1.30254 8.12068 1.67237 7.96687L2.99499 7.41701L4.31733 7.96687C4.68097 8.11793 5.07689 7.83078 5.04545 7.43788L4.93105 6.01034ZM3.98746 5.49069C3.89614 5.59739 3.85109 5.73596 3.86236 5.8759L3.92525 6.6617L3.19755 6.35902C3.06791 6.30519 2.9222 6.30519 2.79256 6.35902L2.06458 6.6617L2.12748 5.8759C2.13874 5.73596 2.09369 5.59739 2.00237 5.49069L1.48958 4.89207L2.25643 4.70901C2.39293 4.67633 2.51076 4.59077 2.58396 4.47102L2.99499 3.79825L3.40587 4.47088C3.47893 4.59064 3.5969 4.67633 3.7334 4.70901L4.50025 4.89207L3.98746 5.49069Z" fill="black" fill-opacity="0.7"/>
<path d="M16.9413 6.01034L17.8729 4.92256C18.1291 4.62373 17.9784 4.15819 17.595 4.06659L16.2018 3.73398L15.4553 2.51175C15.2576 2.1882 14.7683 2.16307 14.5552 2.51175L13.8086 3.73398L12.4153 4.06659C12.0323 4.15805 11.8809 4.62332 12.1373 4.92256L13.0689 6.01034L12.9545 7.43788C12.9236 7.82474 13.3128 8.12068 13.6826 7.96687L15.0052 7.41701L16.3276 7.96687C16.6912 8.11793 17.0871 7.83078 17.0557 7.43788L16.9413 6.01034ZM15.9977 5.49069C15.9064 5.59739 15.8613 5.73596 15.8726 5.8759L15.9355 6.6617L15.2078 6.35902C15.0782 6.30519 14.9325 6.30519 14.8028 6.35902L14.0748 6.6617L14.1377 5.8759C14.149 5.73596 14.1039 5.59739 14.0126 5.49069L13.4998 4.89207L14.2667 4.70901C14.4032 4.67633 14.521 4.59077 14.5942 4.47102L15.0052 3.79825L15.4161 4.47088C15.4892 4.59064 15.6072 4.67633 15.7437 4.70901L16.5105 4.89207L15.9977 5.49069Z" fill="black" fill-opacity="0.7"/>
<path d="M10.9364 3.75073L11.8681 2.66295C12.1242 2.36412 11.9735 1.89857 11.5901 1.80697L10.1969 1.47436L9.45039 0.252271C9.25277 -0.0714137 8.76347 -0.0965449 8.55033 0.252134L7.80354 1.47436L6.41033 1.80697C6.02746 1.89843 5.87599 2.36371 6.13238 2.66295L7.06402 3.75073L6.94963 5.17827C6.91859 5.56526 7.30792 5.86107 7.67774 5.7074L9.00036 5.15739L10.3227 5.7074C10.6864 5.85832 11.0823 5.57117 11.0508 5.17827L10.9364 3.75073ZM9.99284 3.23108C9.90152 3.33764 9.85647 3.47635 9.86759 3.61629L9.93063 4.40208L9.20292 4.09941C9.07328 4.04558 8.92758 4.04558 8.79794 4.09941L8.06996 4.40208L8.13285 3.61629C8.14411 3.47635 8.09907 3.33764 8.00775 3.23108L7.49482 2.63246L8.26181 2.4494C8.39817 2.41672 8.51614 2.33116 8.5892 2.21141L9.00036 1.53863L9.41125 2.21127C9.48431 2.33102 9.60228 2.41672 9.73878 2.4494L10.5056 2.63246L9.99284 3.23108Z" fill="black" fill-opacity="0.7"/>
</g>
<defs>
<clipPath id="clip0_182_845">
<rect width="18" height="18" fill="white"/>
</clipPath>
</defs>
</svg>
