<svg width="100" height="99" viewBox="0 0 100 99" fill="none" xmlns="http://www.w3.org/2000/svg">
<g clip-path="url(#clip0_180_376)">
<path fill-rule="evenodd" clip-rule="evenodd" d="M49.8227 98.5478C64.3417 90.1672 76.5164 78.2654 85.2239 63.9402C93.9313 49.6149 98.8911 33.3275 99.6456 16.5805C87.8954 9.79943 74.8797 5.4993 61.4025 3.94568V44.6892C60.3342 44.1422 59.2276 43.6735 58.0915 43.2867V0H54.7849V42.3818C53.6914 42.1688 52.5856 42.0255 51.4739 41.9529V8.28594H48.163V41.9529C47.0514 42.0255 45.9455 42.1688 44.852 42.3818V0H41.5454V43.2696C40.409 43.6556 39.3024 44.1243 38.2344 44.672V3.92853C24.7585 5.48213 11.7443 9.78227 -0.00439453 16.5633C0.747757 33.3137 5.70682 49.6049 14.4152 63.9334C23.1235 78.2619 35.3006 90.1662 49.8227 98.5478ZM61.4025 48.9608V49.291L49.8227 61.1538L38.243 49.291V48.9608C41.7154 46.7904 45.7278 45.6395 49.8227 45.6395C53.9176 45.6395 57.9301 46.7904 61.4025 48.9608Z" fill="white"/>
</g>
<defs>
<clipPath id="clip0_180_376">
<rect width="99.65" height="98.5478" fill="white"/>
</clipPath>
</defs>
</svg>
