<svg width="22" height="14" viewBox="0 0 22 14" fill="none" xmlns="http://www.w3.org/2000/svg">
<path d="M9.77501 9.05906C9.90494 9.17319 10.0658 9.22888 10.2267 9.22888C10.4185 9.22888 10.6089 9.14913 10.7451 8.99306L16.6624 2.21156C16.9119 1.92556 16.8824 1.49106 16.5964 1.2415C16.3111 0.991938 15.8773 1.02081 15.6263 1.3075L9.70901 8.089C9.45876 8.375 9.48832 8.8095 9.77501 9.05906Z" fill="#686868"/>
<path d="M20.1968 0.712125L10.5223 11.7994L5.84593 6.60813C5.59087 6.32625 5.15637 6.30288 4.8745 6.55725C4.59262 6.81163 4.56993 7.24612 4.82362 7.52869L7.55231 10.5578L6.47156 11.7987L1.79656 6.60881C1.5415 6.32694 1.107 6.30356 0.82512 6.55794C0.543245 6.81231 0.520558 7.24681 0.774245 7.52938L5.969 13.2954C6.09962 13.4398 6.28525 13.523 6.47981 13.523H6.48531C6.68193 13.5216 6.86893 13.4357 6.99818 13.2872L8.47906 11.587L10.0191 13.2961C10.1497 13.4405 10.3353 13.5237 10.5299 13.5237H10.5354C10.732 13.5223 10.919 13.4364 11.0482 13.2879L21.2329 1.6155C21.4824 1.3295 21.4529 0.895687 21.1669 0.645437C20.8816 0.39725 20.4471 0.426125 20.1968 0.712125Z" fill="#686868"/>
</svg>
