<svg width="18" height="18" viewBox="0 0 18 18" fill="none" xmlns="http://www.w3.org/2000/svg">
<path d="M15.07 5.51L6.51002 1.23C0.76002 -1.65 -1.59998 0.709997 1.28002 6.46L2.15002 8.2C2.40002 8.71 2.40002 9.3 2.15002 9.81L1.28002 11.54C-1.59998 17.29 0.75002 19.65 6.51002 16.77L15.07 12.49C18.91 10.57 18.91 7.43 15.07 5.51ZM11.84 9.75H6.44002C6.03002 9.75 5.69002 9.41 5.69002 9C5.69002 8.59 6.03002 8.25 6.44002 8.25H11.84C12.25 8.25 12.59 8.59 12.59 9C12.59 9.41 12.25 9.75 11.84 9.75Z" fill="#1C1C1C" fill-opacity="0.7"/>
</svg>
